<svg width="17.462402" height="73.102631" viewBox="0 0 17.4624 73.1026" fill="none" xmlns="http://www.w3.org/2000/svg" xmlns:xlink="http://www.w3.org/1999/xlink">
	<desc>
			Created with Pixso.
	</desc>
	<defs/>
	<g opacity="0.500000">
		<path id="Vector" d="M2.68945 17.8856L10.2217 17.8856L9.84912 15.0094L2.25879 15.0094L2.68945 17.8856Z" fill="#FFFFFF" fill-opacity="1.000000" fill-rule="nonzero"/>
	</g>
	<g opacity="0.500000">
		<path id="Vector" d="M3.73682 24.8838L11.1411 24.8838L10.7803 22.1124L3.31787 22.1124L3.73682 24.8838Z" fill="#FFFFFF" fill-opacity="1.000000" fill-rule="nonzero"/>
	</g>
	<g opacity="0.500000">
		<path id="Vector" d="M4.75 31.6491L12.0259 31.6491L11.6768 28.9709L4.354 28.9709L4.75 31.6491Z" fill="#FFFFFF" fill-opacity="1.000000" fill-rule="nonzero"/>
	</g>
	<g opacity="0.500000">
		<path id="Vector" d="M5.73975 38.1815L12.8877 38.1815L12.5386 35.5849L5.34375 35.5849L5.73975 38.1815Z" fill="#FFFFFF" fill-opacity="1.000000" fill-rule="nonzero"/>
	</g>
	<g opacity="0.500000">
		<path id="Vector" d="M6.68262 44.4811L13.7144 44.4811L13.3765 41.9892L6.31006 41.9892L6.68262 44.4811Z" fill="#FFFFFF" fill-opacity="1.000000" fill-rule="nonzero"/>
	</g>
	<g opacity="0.500000">
		<path id="Vector" d="M7.60205 50.5827L14.5059 50.5827L14.1914 48.1723L7.22949 48.1723L7.60205 50.5827Z" fill="#FFFFFF" fill-opacity="1.000000" fill-rule="nonzero"/>
	</g>
	<g opacity="0.500000">
		<path id="Vector" d="M8.48682 56.4979L15.2856 56.4979L14.9829 54.1458L8.1377 54.1458L8.48682 56.4979Z" fill="#FFFFFF" fill-opacity="1.000000" fill-rule="nonzero"/>
	</g>
	<g opacity="0.500000">
		<path id="Vector" d="M9.33545 62.2036L16.0298 62.2036L15.7388 59.9446L8.99805 59.9446L9.33545 62.2036Z" fill="#FFFFFF" fill-opacity="1.000000" fill-rule="nonzero"/>
	</g>
	<g opacity="0.500000">
		<path id="Vector" d="M10.1748 67.7463L16.7637 67.7463L16.4727 65.5455L9.84863 65.5455L10.1748 67.7463Z" fill="#FFFFFF" fill-opacity="1.000000" fill-rule="nonzero"/>
	</g>
	<g opacity="0.500000">
		<path id="Vector" d="M1.59473 10.6312L9.2666 10.6312L8.88232 7.63864L1.15234 7.63864L1.59473 10.6312Z" fill="#FFFFFF" fill-opacity="1.000000" fill-rule="nonzero"/>
	</g>
	<g opacity="0.500000">
		<path id="Vector" d="M0.46582 3.09737L8.27734 3.09737L7.88135 0L0 0L0.46582 3.09737Z" fill="#FFFFFF" fill-opacity="1.000000" fill-rule="nonzero"/>
	</g>
	<g opacity="0.500000">
		<path id="Vector" d="M10.978 73.1026L17.4624 73.1026L17.1831 70.9717L10.6636 70.9717L10.978 73.1026Z" fill="#FFFFFF" fill-opacity="1.000000" fill-rule="nonzero"/>
	</g>
</svg>
