<svg width="56.447754" height="72.578644" viewBox="0 0 56.4478 72.5786" fill="none" xmlns="http://www.w3.org/2000/svg" xmlns:xlink="http://www.w3.org/1999/xlink">
	<desc>
			Created with Pixso.
	</desc>
	<defs/>
	<path id="Vector" d="M44.5415 14.9861L5.69287 14.9861C4.72656 14.9861 4.09766 15.4985 4.28418 16.1506C4.47217 16.5257 4.76709 16.8367 5.13184 17.044C5.49658 17.2513 5.91455 17.3456 6.33301 17.315L44.9604 17.315C45.9155 17.315 46.5903 16.8026 46.4858 16.1506C46.3809 15.4985 45.4961 14.9861 44.5415 14.9861Z" fill="#FFFFFF" fill-opacity="1.000000" fill-rule="nonzero"/>
	<path id="Vector" d="M45.834 22.0775L12.7949 22.0775C11.8516 22.0775 11.2349 22.5782 11.3975 23.2419C11.5757 23.6124 11.8604 23.9213 12.2148 24.1288C12.5698 24.3363 12.9785 24.4329 13.3882 24.4064L46.2998 24.4064C47.2427 24.4064 47.9062 23.9057 47.8018 23.2419C47.6968 22.5782 46.7773 22.0775 45.834 22.0775Z" fill="#FFFFFF" fill-opacity="1.000000" fill-rule="nonzero"/>
	<g opacity="0.500000">
		<path id="Vector" d="M47.0918 28.9243L9.60547 28.9243C8.67383 28.9243 8.06836 29.4017 8.23145 29.9956C8.41895 30.3512 8.70605 30.6442 9.05762 30.8387C9.40918 31.0332 9.81006 31.1206 10.2104 31.0901L47.4644 31.0901C48.3843 31.0901 49.0479 30.6127 48.9429 30.0189C48.8384 29.425 48.0234 28.9243 47.0918 28.9243Z" fill="#FFFFFF" fill-opacity="1.000000" fill-rule="nonzero"/>
	</g>
	<path id="Vector" d="M48.3022 35.5383L26.2876 35.5383C25.3794 35.5383 24.751 36.004 24.8906 36.5746C25.0303 37.1452 25.8799 37.6109 26.7881 37.6109L48.6865 37.6109C49.5942 37.6109 50.2466 37.1452 50.1416 36.5746C50.0366 36.004 49.2222 35.5383 48.3022 35.5383Z" fill="#FFFFFF" fill-opacity="1.000000" fill-rule="nonzero"/>
	<path id="Vector" d="M49.4785 41.9193L13.249 41.9193C12.3643 41.9193 11.7593 42.3734 11.9219 42.9207C12.085 43.468 12.9233 43.9221 13.8198 43.9221L49.9092 43.9221C50.7939 43.9221 51.4346 43.4796 51.3413 42.9207C51.248 42.3618 50.375 41.9193 49.4785 41.9193Z" fill="#FFFFFF" fill-opacity="1.000000" fill-rule="nonzero"/>
	<path id="Vector" d="M50.6074 48.1024L21.3633 48.1024C20.4785 48.1024 19.8848 48.5332 20.0244 49.0689C20.1641 49.6045 20.9907 50.0353 21.8638 50.0353L50.9683 50.0353C51.8413 50.0353 52.4702 49.6045 52.377 49.0689C52.2837 48.5332 51.4922 48.1024 50.6074 48.1024Z" fill="#FFFFFF" fill-opacity="1.000000" fill-rule="nonzero"/>
	<path id="Vector" d="M51.7017 54.0759L22.9351 54.0759C22.0615 54.0759 21.4795 54.4951 21.6191 55.0074C21.7588 55.5198 22.5625 55.9506 23.4238 55.9506L52.0513 55.9506C52.9126 55.9506 53.5298 55.5314 53.4365 55.0074C53.3433 54.4834 52.5747 54.0759 51.7017 54.0759Z" fill="#FFFFFF" fill-opacity="1.000000" fill-rule="nonzero"/>
	<path id="Vector" d="M52.7612 59.8515L21.3281 59.8515C20.478 59.8515 19.896 60.259 20.0356 60.7597C20.1758 61.2604 20.9673 61.668 21.8169 61.668L53.0522 61.668C53.9019 61.668 54.519 61.2604 54.4258 60.7597C54.3325 60.259 53.6226 59.8515 52.7612 59.8515Z" fill="#FFFFFF" fill-opacity="1.000000" fill-rule="nonzero"/>
	<g opacity="0.500000">
		<path id="Vector" d="M53.7969 65.4524L33.4937 65.4524C32.6553 65.4524 32.0732 65.8483 32.1895 66.3373C32.3062 66.8264 33.0859 67.2106 33.9126 67.2106L54.0879 67.2106C54.9263 67.2106 55.5312 66.8147 55.4502 66.3373C55.3687 65.8599 54.6353 65.4524 53.7969 65.4524Z" fill="#FFFFFF" fill-opacity="1.000000" fill-rule="nonzero"/>
	</g>
	<g opacity="0.500000">
		<path id="Vector" d="M43.1914 7.62698L14.2383 7.62698C13.2603 7.62698 12.6084 8.16261 12.7832 8.7914C12.9707 9.16954 13.2671 9.4827 13.6348 9.69031C14.002 9.89792 14.4233 9.99042 14.8438 9.95583L43.6226 9.95583C44.6001 9.95583 45.2871 9.4202 45.1709 8.7914C45.0088 8.41116 44.729 8.09291 44.373 7.88333C44.0166 7.67375 43.6025 7.58391 43.1914 7.62698Z" fill="#FFFFFF" fill-opacity="1.000000" fill-rule="nonzero"/>
	</g>
	<path id="Vector" d="M41.7832 0L1.479 0C0.489258 0 -0.162598 0.547287 0.0356445 1.2343C0.230469 1.62895 0.538086 1.95691 0.918945 2.17662C1.30029 2.39635 1.73828 2.49796 2.17773 2.46858L42.2485 2.46858C43.2266 2.46858 43.9365 1.9213 43.8086 1.2343C43.6807 0.547287 42.8076 0 41.7832 0Z" fill="#FFFFFF" fill-opacity="1.000000" fill-rule="nonzero"/>
	<path id="Vector" d="M54.7871 70.8786L21.3867 70.8786C20.5605 70.8786 20.0015 71.2628 20.1294 71.7286C20.2578 72.1944 21.0376 72.5786 21.8643 72.5786L55.1016 72.5786C55.9165 72.5786 56.522 72.1944 56.4404 71.7286C56.3589 71.2628 55.6138 70.8786 54.7871 70.8786Z" fill="#FFFFFF" fill-opacity="1.000000" fill-rule="nonzero"/>
</svg>
