<svg width="37.206055" height="35.571800" viewBox="0 0 37.2061 35.5718" fill="none" xmlns="http://www.w3.org/2000/svg" xmlns:xlink="http://www.w3.org/1999/xlink">
	<desc>
			Created with Pixso.
	</desc>
	<defs/>
	<path id="Vector" d="M30.8853 0.5L6.3208 0.5C4.77734 0.5 3.29639 1.11341 2.20508 2.20528C1.11328 3.29713 0.5 4.778 0.5 6.32213L0.5 18.2226C0.5 19.7667 1.11328 21.2476 2.20508 22.3394C3.29639 23.4313 4.77734 24.0447 6.3208 24.0447L12.7471 24.0447L17.6133 35.0718L24.4707 24.0447L30.8853 24.0447C32.4287 24.0447 33.9097 23.4313 35.001 22.3394C36.0928 21.2476 36.7061 19.7667 36.7061 18.2226L36.7061 6.27556C36.6938 4.73952 36.0752 3.27058 34.9849 2.18877C33.8945 1.10696 32.4209 0.499954 30.8853 0.5Z" fill="#FFFFFF" fill-opacity="1.000000" fill-rule="nonzero"/>
	<path id="Vector" d="M6.3208 0.5C4.77734 0.5 3.29639 1.11341 2.20508 2.20528C1.11328 3.29713 0.5 4.778 0.5 6.32213L0.5 18.2226C0.5 19.7667 1.11328 21.2476 2.20508 22.3394C3.29639 23.4313 4.77734 24.0447 6.3208 24.0447L12.7471 24.0447L17.6133 35.0718L24.4707 24.0447L30.8853 24.0447C32.4287 24.0447 33.9097 23.4313 35.001 22.3394C36.0928 21.2476 36.7061 19.7667 36.7061 18.2226L36.7061 6.27556C36.6938 4.73952 36.0752 3.27058 34.9849 2.18877C33.8945 1.10696 32.4209 0.499954 30.8853 0.5L6.3208 0.5Z" stroke="#263238" stroke-opacity="1.000000" stroke-width="1.000000" stroke-linejoin="round"/>
	<path id="Vector" d="M13.6079 12.4121C14.2017 12.61 14.4927 13.0176 14.4927 13.9375L14.4927 16.7903C14.4663 16.9441 14.4761 17.1019 14.521 17.2512C14.5664 17.4005 14.646 17.5371 14.7534 17.6502C14.8608 17.7633 14.9932 17.8497 15.1401 17.9026C15.2866 17.9555 15.4438 17.9733 15.5986 17.9548L15.9131 17.9548L15.9131 19.4569L15.1562 19.4569C14.8193 19.5071 14.4756 19.4793 14.1514 19.3756C13.8271 19.2719 13.5308 19.0951 13.2856 18.8589C13.0405 18.6226 12.8525 18.3332 12.7368 18.0129C12.6211 17.6926 12.5806 17.35 12.6182 17.0116L12.6182 13.9375C12.6182 13.4368 12.3623 13.2155 11.9429 13.2155L11.4541 13.2155L11.4541 11.6901L11.9429 11.6901C12.3623 11.6901 12.6182 11.4689 12.6182 10.9682L12.6182 7.88248C12.5801 7.5444 12.6206 7.2021 12.7363 6.88219C12.8521 6.56228 13.04 6.27338 13.2856 6.03794C13.5312 5.8025 13.8276 5.62685 14.1519 5.52468C14.4766 5.42251 14.8203 5.39655 15.1562 5.44881L15.9131 5.44881L15.9131 6.95094L15.5522 6.95094C15.3965 6.92976 15.2383 6.94582 15.0903 6.9978C14.9424 7.04979 14.8091 7.1362 14.7012 7.24993C14.5928 7.36366 14.5137 7.50143 14.4692 7.65191C14.4248 7.80238 14.417 7.96122 14.4463 8.11536L14.4463 10.9566C14.4927 11.8182 14.2017 12.2258 13.6079 12.4121Z" fill="#263238" fill-opacity="1.000000" fill-rule="nonzero"/>
	<path id="Vector" d="M25.0171 11.6552L25.0171 13.1806L24.5049 13.1806C24.0977 13.1806 23.8413 13.4018 23.8413 13.9025L23.8413 16.9766C23.877 17.3157 23.8345 17.6584 23.7173 17.9786C23.6006 18.2988 23.4116 18.5879 23.1655 18.8239C22.9194 19.0599 22.6226 19.2364 22.2979 19.3401C21.9731 19.4437 21.6289 19.4717 21.292 19.4219L20.5352 19.4219L20.5352 17.9198L20.8496 17.9198C21.0083 17.946 21.1709 17.934 21.3242 17.8847C21.4775 17.8355 21.6167 17.7504 21.7305 17.6366C21.8442 17.5228 21.9292 17.3835 21.9785 17.2302C22.0278 17.077 22.04 16.9142 22.0137 16.7554L22.0137 13.9025C22.0137 12.9826 22.2812 12.5751 22.875 12.3771C22.2812 12.1908 22.0137 11.7833 22.0137 10.8517L22.0137 8.01054C22.0425 7.85126 22.0327 7.68732 21.9844 7.53278C21.936 7.37825 21.8511 7.23773 21.7368 7.12325C21.6221 7.00877 21.4814 6.92375 21.3271 6.87548C21.1729 6.82722 21.0088 6.81715 20.8496 6.84612L20.5352 6.84612L20.5352 5.41386L21.292 5.41386C21.6284 5.36201 21.9722 5.38818 22.2974 5.49033C22.6221 5.59248 22.9189 5.76791 23.1655 6.00305C23.4116 6.2382 23.6011 6.5268 23.7183 6.8466C23.8354 7.16639 23.8774 7.50883 23.8413 7.84752L23.8413 10.9332C23.8413 11.4339 24.0977 11.6552 24.5049 11.6552L25.0171 11.6552Z" fill="#263238" fill-opacity="1.000000" fill-rule="nonzero"/>
</svg>
