<svg width="37.206055" height="35.630020" viewBox="0 0 37.2061 35.63" fill="none" xmlns="http://www.w3.org/2000/svg" xmlns:xlink="http://www.w3.org/1999/xlink">
	<desc>
			Created with Pixso.
	</desc>
	<defs/>
	<path id="Vector" d="M30.8853 0.5L6.3208 0.5C4.77734 0.5 3.29639 1.11341 2.20508 2.20528C1.11328 3.29713 0.5 4.778 0.5 6.32213L0.5 18.2808C0.5 19.8249 1.11328 21.3058 2.20508 22.3977C3.29639 23.4895 4.77734 24.1029 6.3208 24.1029L12.7471 24.1029L17.6021 35.13L24.459 24.1029L30.8853 24.1029C32.4292 24.1029 33.9097 23.4895 35.001 22.3977C36.0928 21.3058 36.7061 19.8249 36.7061 18.2808L36.7061 6.27556C36.6938 4.73952 36.0752 3.27058 34.9849 2.18877C33.8945 1.10696 32.4209 0.499954 30.8853 0.5Z" fill="#FFFFFF" fill-opacity="1.000000" fill-rule="nonzero"/>
	<path id="Vector" d="M6.3208 0.5C4.77734 0.5 3.29639 1.11341 2.20508 2.20528C1.11328 3.29713 0.5 4.778 0.5 6.32213L0.5 18.2808C0.5 19.8249 1.11328 21.3058 2.20508 22.3977C3.29639 23.4895 4.77734 24.1029 6.3208 24.1029L12.7471 24.1029L17.6021 35.13L24.459 24.1029L30.8853 24.1029C32.4292 24.1029 33.9097 23.4895 35.001 22.3977C36.0928 21.3058 36.7061 19.8249 36.7061 18.2808L36.7061 6.27556C36.6938 4.73952 36.0752 3.27058 34.9849 2.18877C33.8945 1.10696 32.4209 0.499954 30.8853 0.5L6.3208 0.5Z" stroke="#263238" stroke-opacity="1.000000" stroke-width="1.000000" stroke-linejoin="round"/>
	<path id="Vector" d="M11.9546 9.36126L11.9546 9.8969L14.1553 9.8969L14.1553 11.399L12.0132 11.399L12.0132 17.8266L10.1968 17.8266L10.1968 11.399L8.88135 11.399L8.88135 9.8969L10.1968 9.8969L10.1968 9.38455C10.167 9.00645 10.2212 8.62643 10.3555 8.27169C10.4893 7.91694 10.7002 7.59624 10.9731 7.33254C11.2456 7.06884 11.5728 6.86865 11.9316 6.74632C12.2905 6.62397 12.6724 6.5825 13.0493 6.62487C13.6421 6.59567 14.2305 6.7458 14.7373 7.0557L14.2134 8.46466C13.9146 8.24958 13.5566 8.13168 13.189 8.12697C12.3623 8.06875 11.9546 8.51123 11.9546 9.36126Z" fill="#263238" fill-opacity="1.000000" fill-rule="nonzero"/>
	<path id="Vector" d="M14.6323 13.7745C14.6001 12.9249 14.8223 12.085 15.271 11.3628C15.7192 10.6405 16.3735 10.069 17.1494 9.72163C17.9253 9.37425 18.7871 9.26691 19.6245 9.41343C20.4619 9.55994 21.2363 9.9536 21.8481 10.5438C22.46 11.134 22.8813 11.8937 23.0581 12.7254C23.2349 13.557 23.1587 14.4225 22.8398 15.2106C22.521 15.9987 21.9736 16.6733 21.2681 17.1478C20.563 17.6223 19.7319 17.875 18.8818 17.8733C18.3281 17.9055 17.7739 17.8228 17.2539 17.6302C16.7339 17.4377 16.2593 17.1395 15.8599 16.7545C15.4609 16.3694 15.1455 15.9058 14.9341 15.393C14.7231 14.8801 14.6201 14.329 14.6323 13.7745ZM21.2568 13.7745C21.2251 13.3222 21.062 12.889 20.7876 12.528C20.5132 12.1671 20.1396 11.8941 19.7124 11.7426C19.2852 11.591 18.8228 11.5675 18.3823 11.675C17.9419 11.7824 17.5425 12.0161 17.2329 12.3474C16.9233 12.6786 16.7173 13.093 16.6401 13.5398C16.5625 13.9866 16.6172 14.4462 16.7974 14.8623C16.9771 15.2785 17.2749 15.633 17.6533 15.8824C18.0317 16.1318 18.4751 16.2652 18.9282 16.2663C19.2485 16.2671 19.5649 16.2019 19.8589 16.0748C20.1523 15.9478 20.4165 15.7615 20.6353 15.5276C20.8535 15.2938 21.0215 15.0175 21.1284 14.7158C21.2354 14.4142 21.2793 14.0937 21.2568 13.7745Z" fill="#263238" fill-opacity="1.000000" fill-rule="nonzero"/>
	<path id="Vector" d="M29.5454 9.68732L29.5454 11.4689C29.4023 11.4587 29.2583 11.4587 29.1147 11.4689C28.79 11.4432 28.4639 11.4906 28.1602 11.6077C27.8564 11.7248 27.583 11.9085 27.3594 12.1453C27.1362 12.3822 26.9688 12.6662 26.8696 12.9763C26.77 13.2865 26.7417 13.6149 26.7866 13.9375L26.7866 17.815L24.9121 17.815L24.9121 9.78046L26.6934 9.78046L26.6934 10.9449C27.019 10.5062 27.4531 10.1596 27.9531 9.93918C28.4531 9.71873 29.002 9.63195 29.5454 9.68732Z" fill="#263238" fill-opacity="1.000000" fill-rule="nonzero"/>
</svg>
