<svg width="37.206055" height="35.618378" viewBox="0 0 37.2061 35.6184" fill="none" xmlns="http://www.w3.org/2000/svg" xmlns:xlink="http://www.w3.org/1999/xlink">
	<desc>
			Created with Pixso.
	</desc>
	<defs/>
	<path id="Vector" d="M30.8853 0.5L6.3208 0.5C4.77734 0.5 3.29639 1.1134 2.20508 2.20526C1.11328 3.29712 0.5 4.77801 0.5 6.32213L0.5 18.2691C0.5 19.8133 1.11328 21.2941 2.20508 22.386C3.29639 23.4779 4.77734 24.0913 6.3208 24.0913L12.7354 24.0913L17.6021 35.1184L24.459 24.0913L30.8853 24.0913C32.4287 24.0913 33.9097 23.4779 35.001 22.386C36.0928 21.2941 36.7061 19.8133 36.7061 18.2691L36.7061 6.27554C36.6938 4.7395 36.0752 3.27056 34.9849 2.18875C33.8945 1.10694 32.4209 0.499954 30.8853 0.5Z" fill="#FFFFFF" fill-opacity="1.000000" fill-rule="nonzero"/>
	<path id="Vector" d="M6.3208 0.5C4.77734 0.5 3.29639 1.1134 2.20508 2.20526C1.11328 3.29712 0.5 4.77801 0.5 6.32213L0.5 18.2691C0.5 19.8133 1.11328 21.2941 2.20508 22.386C3.29639 23.4779 4.77734 24.0913 6.3208 24.0913L12.7354 24.0913L17.6021 35.1184L24.459 24.0913L30.8853 24.0913C32.4287 24.0913 33.9097 23.4779 35.001 22.386C36.0928 21.2941 36.7061 19.8133 36.7061 18.2691L36.7061 6.27554C36.6938 4.7395 36.0752 3.27056 34.9849 2.18875C33.8945 1.10694 32.4209 0.499954 30.8853 0.5L6.3208 0.5Z" stroke="#263238" stroke-opacity="1.000000" stroke-width="1.000000" stroke-linejoin="round"/>
	<path id="Vector" d="M17.625 9.33799C17.6084 9.16662 17.6274 8.99364 17.6816 8.83018C17.7358 8.66673 17.8237 8.51642 17.9395 8.38889C18.0547 8.26137 18.1958 8.15945 18.3535 8.08972C18.5107 8.01998 18.6812 7.98395 18.853 7.98395C19.0254 7.98395 19.1958 8.01998 19.353 8.08972C19.5103 8.15945 19.6514 8.26137 19.7671 8.38889C19.8828 8.51642 19.9707 8.66673 20.0244 8.83018C20.0786 8.99364 20.0981 9.16662 20.0815 9.33799C20.0981 9.50936 20.0786 9.68233 20.0244 9.84579C19.9707 10.0092 19.8828 10.1596 19.7671 10.2871C19.6514 10.4146 19.5103 10.5165 19.353 10.5863C19.1958 10.656 19.0254 10.692 18.853 10.692C18.6812 10.692 18.5107 10.656 18.3535 10.5863C18.1958 10.5165 18.0547 10.4146 17.9395 10.2871C17.8237 10.1596 17.7358 10.0092 17.6816 9.84579C17.6274 9.68233 17.6084 9.50936 17.625 9.33799ZM20.0815 15.0437C20.0498 15.4893 19.9312 15.9245 19.7319 16.3245L18.9639 18.4438L17.7998 18.4438L18.4048 16.1149C18.189 16.0235 18.0054 15.869 17.8789 15.6717C17.752 15.4743 17.688 15.2432 17.6948 15.0087C17.6948 14.686 17.8228 14.3765 18.0513 14.1483C18.2793 13.9201 18.5889 13.7919 18.9116 13.7919C19.2339 13.7919 19.5435 13.9201 19.7715 14.1483C20 14.3765 20.1279 14.686 20.1279 15.0087L20.0815 15.0437Z" fill="#263238" fill-opacity="1.000000" fill-rule="nonzero"/>
</svg>
