<svg width="37.206055" height="35.630005" viewBox="0 0 37.2061 35.63" fill="none" xmlns="http://www.w3.org/2000/svg" xmlns:xlink="http://www.w3.org/1999/xlink">
	<desc>
			Created with Pixso.
	</desc>
	<defs/>
	<path id="Vector" d="M30.9199 0.5L6.3208 0.5C4.77734 0.5 3.29639 1.1134 2.20508 2.20525C1.11328 3.29712 0.5 4.778 0.5 6.32213L0.5 18.2808C0.5 19.8249 1.11328 21.3058 2.20508 22.3976C3.29639 23.4895 4.77734 24.1029 6.3208 24.1029L12.7471 24.1029L17.6021 35.13L24.459 24.1029L30.8853 24.1029C32.4292 24.1029 33.9097 23.4895 35.001 22.3976C36.0928 21.3058 36.7061 19.8249 36.7061 18.2808L36.7061 6.27554C36.6938 4.74553 36.0801 3.28184 34.9971 2.20101C33.9146 1.12019 32.4497 0.509132 30.9199 0.5Z" fill="#FFFFFF" fill-opacity="1.000000" fill-rule="nonzero"/>
	<path id="Vector" d="M6.3208 0.5C4.77734 0.5 3.29639 1.1134 2.20508 2.20525C1.11328 3.29712 0.5 4.778 0.5 6.32213L0.5 18.2808C0.5 19.8249 1.11328 21.3058 2.20508 22.3976C3.29639 23.4895 4.77734 24.1029 6.3208 24.1029L12.7471 24.1029L17.6021 35.13L24.459 24.1029L30.8853 24.1029C32.4292 24.1029 33.9097 23.4895 35.001 22.3976C36.0928 21.3058 36.7061 19.8249 36.7061 18.2808L36.7061 6.27554C36.6938 4.74553 36.0801 3.28184 34.9971 2.20101C33.9146 1.12019 32.4497 0.509132 30.9199 0.5L6.3208 0.5Z" stroke="#263238" stroke-opacity="1.000000" stroke-width="1.000000" stroke-linejoin="round"/>
	<path id="Vector" d="M15.4478 9.38452L22.3398 9.38452L22.3398 10.8633L15.4478 10.8633L15.4478 9.38452ZM15.4478 13.0059L22.3398 13.0059L22.3398 14.508L15.4478 14.508L15.4478 13.0059Z" fill="#263238" fill-opacity="1.000000" fill-rule="nonzero"/>
</svg>
