<svg width="37.194336" height="35.525208" viewBox="0 0 37.1943 35.5252" fill="none" xmlns="http://www.w3.org/2000/svg" xmlns:xlink="http://www.w3.org/1999/xlink">
	<desc>
			Created with Pixso.
	</desc>
	<defs/>
	<path id="Vector" d="M6.3208 35.0252L30.8735 35.0252C32.4175 35.0252 33.8979 34.4118 34.9897 33.3199C36.0811 32.2281 36.6943 30.7472 36.6943 29.2031L36.6943 17.291C36.6792 15.757 36.0591 14.291 34.9692 13.2117C33.8789 12.1324 32.4072 11.527 30.8735 11.5271L24.459 11.5271L22.5845 0.5L12.7354 11.5271L6.3208 11.5271C4.78711 11.527 3.31543 12.1324 2.22559 13.2117C1.13525 14.291 0.515137 15.757 0.5 17.291L0.5 29.2496C0.512207 30.7857 1.13086 32.2546 2.22119 33.3364C3.31152 34.4182 4.78516 35.0253 6.3208 35.0252Z" fill="#FFFFFF" fill-opacity="1.000000" fill-rule="nonzero"/>
	<path id="Vector" d="M30.8735 35.0252C32.4175 35.0252 33.8979 34.4118 34.9897 33.3199C36.0811 32.2281 36.6943 30.7472 36.6943 29.2031L36.6943 17.291C36.6792 15.757 36.0591 14.291 34.9692 13.2117C33.8789 12.1324 32.4072 11.527 30.8735 11.5271L24.459 11.5271L22.5845 0.5L12.7354 11.5271L6.3208 11.5271C4.78711 11.527 3.31543 12.1324 2.22559 13.2117C1.13525 14.291 0.515137 15.757 0.5 17.291L0.5 29.2496C0.512207 30.7857 1.13086 32.2546 2.22119 33.3364C3.31152 34.4182 4.78516 35.0253 6.3208 35.0252L30.8735 35.0252Z" stroke="#263238" stroke-opacity="1.000000" stroke-width="1.000000" stroke-linejoin="round"/>
	<path id="Vector" d="M14.9478 20.8192L9.79004 22.7522L14.9478 24.6851L14.9478 26.2454L8.05566 23.5673L8.05566 21.9371L14.9478 19.2589L14.9478 20.8192Z" fill="#263238" fill-opacity="1.000000" fill-rule="nonzero"/>
	<path id="Vector" d="M20.3965 15.3813L22.0615 15.3813L17.0903 29.4825L15.4604 29.4825L20.3965 15.3813Z" fill="#263238" fill-opacity="1.000000" fill-rule="nonzero"/>
	<path id="Vector" d="M29.314 21.9371L29.314 23.5556L22.4219 26.2338L22.4219 24.6735L27.5674 22.7522L22.4102 20.8309L22.4102 19.2589L29.314 21.9371Z" fill="#263238" fill-opacity="1.000000" fill-rule="nonzero"/>
</svg>
