<svg width="37.194336" height="35.571770" viewBox="0 0 37.1943 35.5718" fill="none" xmlns="http://www.w3.org/2000/svg" xmlns:xlink="http://www.w3.org/1999/xlink">
	<desc>
			Created with Pixso.
	</desc>
	<defs/>
	<path id="Vector" d="M6.3208 35.0718L30.8735 35.0718C32.4175 35.0718 33.8979 34.4584 34.9897 33.3665C36.0811 32.2747 36.6943 30.7938 36.6943 29.2496L36.6943 17.3492C36.6943 15.8051 36.0811 14.3242 34.9897 13.2324C33.8979 12.1405 32.4175 11.5271 30.8735 11.5271L24.459 11.5271L25.856 0.5L12.7354 11.5271L6.3208 11.5271C4.77734 11.5271 3.29639 12.1405 2.20508 13.2324C1.11328 14.3242 0.5 15.8051 0.5 17.3492L0.5 29.2962C0.512207 30.8323 1.13086 32.3012 2.22119 33.383C3.31152 34.4648 4.78516 35.0718 6.3208 35.0718Z" fill="#FFFFFF" fill-opacity="1.000000" fill-rule="nonzero"/>
	<path id="Vector" d="M30.8735 35.0718C32.4175 35.0718 33.8979 34.4584 34.9897 33.3665C36.0811 32.2747 36.6943 30.7938 36.6943 29.2496L36.6943 17.3492C36.6943 15.8051 36.0811 14.3242 34.9897 13.2324C33.8979 12.1405 32.4175 11.5271 30.8735 11.5271L24.459 11.5271L25.856 0.5L12.7354 11.5271L6.3208 11.5271C4.77734 11.5271 3.29639 12.1405 2.20508 13.2324C1.11328 14.3242 0.5 15.8051 0.5 17.3492L0.5 29.2962C0.512207 30.8323 1.13086 32.3012 2.22119 33.383C3.31152 34.4648 4.78516 35.0718 6.3208 35.0718L30.8735 35.0718Z" stroke="#263238" stroke-opacity="1.000000" stroke-width="1.000000" stroke-linejoin="round"/>
	<path id="Vector" d="M13.5977 27.4914C13.5977 27.1826 13.7202 26.8864 13.9385 26.668C14.1567 26.4497 14.4531 26.327 14.7617 26.327C15.0708 26.327 15.3667 26.4497 15.585 26.668C15.8032 26.8864 15.9258 27.1826 15.9258 27.4914C15.9258 27.8002 15.8032 28.0964 15.585 28.3148C15.3667 28.5331 15.0708 28.6558 14.7617 28.6558C14.4531 28.6558 14.1567 28.5331 13.9385 28.3148C13.7202 28.0964 13.5977 27.8002 13.5977 27.4914ZM13.7373 18.0828L15.9492 18.0828L15.5767 25.0694L14.0635 25.0694L13.7373 18.0828Z" fill="#263238" fill-opacity="1.000000" fill-rule="nonzero"/>
	<path id="Vector" d="M17.8462 20.761L24.7383 20.761L24.7383 22.2632L17.8462 22.2632L17.8462 20.761ZM17.8462 24.3824L24.7383 24.3824L24.7383 25.8845L17.8462 25.8845L17.8462 24.3824Z" fill="#263238" fill-opacity="1.000000" fill-rule="nonzero"/>
</svg>
