<svg width="37.194336" height="35.630005" viewBox="0 0 37.1943 35.63" fill="none" xmlns="http://www.w3.org/2000/svg" xmlns:xlink="http://www.w3.org/1999/xlink">
	<desc>
			Created with Pixso.
	</desc>
	<defs/>
	<path id="Vector" d="M30.8735 0.5L6.3208 0.5C4.77734 0.5 3.29639 1.1134 2.20508 2.20525C1.11328 3.29712 0.5 4.778 0.5 6.32213L0.5 18.2808C0.5 19.8249 1.11328 21.3058 2.20508 22.3976C3.29639 23.4895 4.77734 24.1029 6.3208 24.1029L12.7354 24.1029L17.6021 35.13L24.459 24.1029L30.8735 24.1029C32.4175 24.1029 33.8979 23.4895 34.9897 22.3976C36.0811 21.3058 36.6943 19.8249 36.6943 18.2808L36.6943 6.27554C36.6821 4.7395 36.0635 3.27056 34.9731 2.18875C33.8828 1.10694 32.4092 0.499954 30.8735 0.5Z" fill="#FFFFFF" fill-opacity="1.000000" fill-rule="nonzero"/>
	<path id="Vector" d="M6.3208 0.5C4.77734 0.5 3.29639 1.1134 2.20508 2.20525C1.11328 3.29712 0.5 4.778 0.5 6.32213L0.5 18.2808C0.5 19.8249 1.11328 21.3058 2.20508 22.3976C3.29639 23.4895 4.77734 24.1029 6.3208 24.1029L12.7354 24.1029L17.6021 35.13L24.459 24.1029L30.8735 24.1029C32.4175 24.1029 33.8979 23.4895 34.9897 22.3976C36.0811 21.3058 36.6943 19.8249 36.6943 18.2808L36.6943 6.27554C36.6821 4.7395 36.0635 3.27056 34.9731 2.18875C33.8828 1.10694 32.4092 0.499954 30.8735 0.5L6.3208 0.5Z" stroke="#263238" stroke-opacity="1.000000" stroke-width="1.000000" stroke-linejoin="round"/>
	<path id="Vector" d="M15.1807 7.37006C15.1807 7.06123 15.3032 6.76505 15.5215 6.54668C15.7397 6.32831 16.0361 6.20563 16.3447 6.20563C16.6401 6.20491 16.9243 6.31635 17.1406 6.51738C17.3564 6.71842 17.4883 6.99406 17.5093 7.28854C17.5093 7.59737 17.3862 7.89354 17.168 8.11192C16.9497 8.33028 16.6538 8.45296 16.3447 8.45296C16.0498 8.45369 15.7651 8.34227 15.5493 8.14123C15.333 7.94019 15.2012 7.66454 15.1807 7.37006ZM15.437 9.8037L17.311 9.8037L17.311 17.7917L15.4019 17.7917L15.437 9.8037Z" fill="#263238" fill-opacity="1.000000" fill-rule="nonzero"/>
	<path id="Vector" d="M21.8164 9.36127L21.8164 9.83867L24.0166 9.83867L24.0166 11.3408L21.8862 11.3408L21.8862 17.7684L20.0586 17.7684L20.0586 11.3408L18.6963 11.3408L18.6963 9.83867L20.0586 9.83867L20.0586 9.32632C20.0283 8.94822 20.0825 8.5682 20.2168 8.21346C20.3511 7.85871 20.562 7.53801 20.8345 7.27431C21.1069 7.0106 21.4346 6.81044 21.7935 6.6881C22.1523 6.56576 22.5337 6.52428 22.9106 6.56664C23.5073 6.53653 24.0996 6.68663 24.6104 6.99747L24.0864 8.40643C23.7812 8.19656 23.4204 8.08299 23.0503 8.08039C22.2236 8.08039 21.8164 8.53452 21.8164 9.36127Z" fill="#263238" fill-opacity="1.000000" fill-rule="nonzero"/>
</svg>
