<svg width="37.206055" height="35.618385" viewBox="0 0 37.2061 35.6184" fill="none" xmlns="http://www.w3.org/2000/svg" xmlns:xlink="http://www.w3.org/1999/xlink">
	<desc>
			Created with Pixso.
	</desc>
	<defs/>
	<path id="Vector" d="M30.8853 0.5L6.3208 0.5C4.77734 0.5 3.29639 1.11341 2.20508 2.20528C1.11328 3.29713 0.5 4.77801 0.5 6.32213L0.5 18.2691C0.5 19.8133 1.11328 21.2941 2.20508 22.386C3.29639 23.4779 4.77734 24.0913 6.3208 24.0913L12.7471 24.0913L17.6021 35.1184L24.459 24.0913L30.8853 24.0913C32.4292 24.0913 33.9097 23.4779 35.001 22.386C36.0928 21.2941 36.7061 19.8133 36.7061 18.2691L36.7061 6.27556C36.6938 4.73952 36.0752 3.27058 34.9849 2.18877C33.8945 1.10696 32.4209 0.499954 30.8853 0.5Z" fill="#FFFFFF" fill-opacity="1.000000" fill-rule="nonzero"/>
	<path id="Vector" d="M6.3208 0.5C4.77734 0.5 3.29639 1.11341 2.20508 2.20528C1.11328 3.29713 0.5 4.77801 0.5 6.32213L0.5 18.2691C0.5 19.8133 1.11328 21.2941 2.20508 22.386C3.29639 23.4779 4.77734 24.0913 6.3208 24.0913L12.7471 24.0913L17.6021 35.1184L24.459 24.0913L30.8853 24.0913C32.4292 24.0913 33.9097 23.4779 35.001 22.386C36.0928 21.2941 36.7061 19.8133 36.7061 18.2691L36.7061 6.27556C36.6938 4.73952 36.0752 3.27058 34.9849 2.18877C33.8945 1.10696 32.4209 0.499954 30.8853 0.5L6.3208 0.5Z" stroke="#263238" stroke-opacity="1.000000" stroke-width="1.000000" stroke-linejoin="round"/>
	<path id="Vector" d="M12.8286 5.46045L16.3911 5.46045L16.3911 6.96255L14.6914 6.96255L14.6914 17.9664L16.3911 17.9664L16.3911 19.4685L12.8286 19.4685L12.8286 5.46045Z" fill="#263238" fill-opacity="1.000000" fill-rule="nonzero"/>
	<path id="Vector" d="M21.0474 19.4685L21.0474 17.9664L22.7354 17.9664L22.7354 6.96255L21.0474 6.96255L21.0474 5.46045L24.54 5.46045L24.54 19.4336L21.0474 19.4685Z" fill="#263238" fill-opacity="1.000000" fill-rule="nonzero"/>
</svg>
