<svg width="37.206055" height="35.618378" viewBox="0 0 37.2061 35.6184" fill="none" xmlns="http://www.w3.org/2000/svg" xmlns:xlink="http://www.w3.org/1999/xlink">
	<desc>
			Created with Pixso.
	</desc>
	<defs/>
	<path id="Vector" d="M30.8853 0.5L6.3208 0.5C4.77734 0.5 3.29639 1.11341 2.20508 2.20528C1.11328 3.29713 0.5 4.778 0.5 6.32213L0.5 18.2691C0.5 19.8133 1.11328 21.2942 2.20508 22.386C3.29639 23.4779 4.77734 24.0913 6.3208 24.0913L12.7471 24.0913L17.6021 35.1184L24.459 24.0913L30.8853 24.0913C32.4287 24.0913 33.9097 23.4779 35.001 22.386C36.0928 21.2942 36.7061 19.8133 36.7061 18.2691L36.7061 6.27556C36.6938 4.73952 36.0752 3.27058 34.9849 2.18877C33.8945 1.10696 32.4209 0.499954 30.8853 0.5Z" fill="#FFFFFF" fill-opacity="1.000000" fill-rule="nonzero"/>
	<path id="Vector" d="M6.3208 0.5C4.77734 0.5 3.29639 1.11341 2.20508 2.20528C1.11328 3.29713 0.5 4.778 0.5 6.32213L0.5 18.2691C0.5 19.8133 1.11328 21.2942 2.20508 22.386C3.29639 23.4779 4.77734 24.0913 6.3208 24.0913L12.7471 24.0913L17.6021 35.1184L24.459 24.0913L30.8853 24.0913C32.4287 24.0913 33.9097 23.4779 35.001 22.386C36.0928 21.2942 36.7061 19.8133 36.7061 18.2691L36.7061 6.27556C36.6938 4.73952 36.0752 3.27058 34.9849 2.18877C33.8945 1.10696 32.4209 0.499954 30.8853 0.5L6.3208 0.5Z" stroke="#263238" stroke-opacity="1.000000" stroke-width="1.000000" stroke-linejoin="round"/>
	<path id="Vector" d="M11.4912 14.3683L5.21582 14.3683C5.33887 14.9507 5.6709 15.4679 6.14941 15.8219C6.62793 16.176 7.21924 16.3424 7.81201 16.2896C8.21436 16.3044 8.61475 16.2342 8.98779 16.0837C9.36084 15.9333 9.69824 15.7058 9.97754 15.4163L10.979 16.5808C10.374 17.1819 9.61035 17.5981 8.77783 17.7806C7.94482 17.963 7.07715 17.904 6.27686 17.6107C5.47656 17.3173 4.77588 16.8016 4.2583 16.1242C3.74023 15.4468 3.42676 14.6357 3.35352 13.7861C3.33691 13.242 3.43262 12.7003 3.63428 12.1947C3.83643 11.6891 4.13965 11.2304 4.52637 10.8471C4.9126 10.4638 5.37402 10.1641 5.88135 9.96658C6.38818 9.76907 6.93066 9.678 7.47461 9.69901C8.01904 9.67668 8.56201 9.76907 9.06836 9.97018C9.5752 10.1713 10.0337 10.4766 10.4146 10.8664C10.7954 11.2561 11.0903 11.7216 11.2798 12.2326C11.4692 12.7436 11.5488 13.2888 11.5142 13.8327C11.5142 13.9608 11.5024 14.1937 11.4912 14.3683ZM5.20459 13.134L9.73291 13.134C9.67725 12.5814 9.41211 12.0709 8.99219 11.7073C8.57227 11.3436 8.0293 11.1542 7.47461 11.1778C6.91895 11.1568 6.37646 11.3468 5.95508 11.7097C5.53418 12.0726 5.26562 12.5815 5.20459 13.134Z" fill="#263238" fill-opacity="1.000000" fill-rule="nonzero"/>
	<path id="Vector" d="M13.3066 6.67151L15.1577 6.67151L15.1577 17.7685L13.2832 17.7685L13.3066 6.67151Z" fill="#263238" fill-opacity="1.000000" fill-rule="nonzero"/>
	<path id="Vector" d="M16.7168 16.9767L17.4268 15.5561C18.2646 16.0692 19.2271 16.343 20.2095 16.3479C21.3735 16.3479 21.8857 16.0218 21.8857 15.4629C21.8857 13.9375 16.9497 15.3697 16.9497 12.1909C16.9497 10.6771 18.3115 9.68734 20.4424 9.68734C21.4805 9.67076 22.5073 9.90653 23.4341 10.3744L22.7124 11.795C22.0063 11.3848 21.2002 11.1792 20.3838 11.2011C19.2197 11.2011 18.7075 11.5737 18.7075 12.0977C18.7075 13.7163 23.6436 12.2724 23.6436 15.4047C23.6436 16.8951 22.27 17.8733 20.0229 17.8733C18.8599 17.8809 17.7168 17.5709 16.7168 16.9767Z" fill="#263238" fill-opacity="1.000000" fill-rule="nonzero"/>
	<path id="Vector" d="M32.8066 14.3683L26.5312 14.3683C26.6543 14.9507 26.9863 15.4679 27.4648 15.8219C27.9434 16.176 28.5347 16.3424 29.1274 16.2896C29.5298 16.3044 29.9302 16.2342 30.3032 16.0837C30.6763 15.9333 31.0137 15.7058 31.293 15.4163L32.2939 16.5808C31.6895 17.1819 30.9258 17.5981 30.0933 17.7806C29.2603 17.963 28.3926 17.904 27.5923 17.6107C26.792 17.3173 26.0913 16.8016 25.5737 16.1242C25.0557 15.4468 24.7422 14.6357 24.6689 13.7861C24.6523 13.242 24.748 12.7003 24.9497 12.1947C25.1519 11.6891 25.4551 11.2304 25.8418 10.8471C26.228 10.4638 26.6895 10.1641 27.1968 9.96658C27.7036 9.76907 28.2461 9.678 28.79 9.69901C29.3345 9.67668 29.8774 9.76907 30.3838 9.97018C30.8906 10.1713 31.3491 10.4766 31.73 10.8664C32.1108 11.2561 32.4053 11.7216 32.5952 12.2326C32.7847 12.7436 32.8643 13.2888 32.8296 13.8327C32.8296 13.9608 32.8179 14.1937 32.8066 14.3683ZM26.52 13.134L31.0483 13.134C30.9927 12.5814 30.7275 12.0709 30.3076 11.7073C29.8877 11.3436 29.3447 11.1542 28.79 11.1778C28.2344 11.1568 27.6919 11.3468 27.2705 11.7097C26.8496 12.0726 26.5811 12.5815 26.52 13.134Z" fill="#263238" fill-opacity="1.000000" fill-rule="nonzero"/>
</svg>
