<svg width="269.541992" height="114.776711" viewBox="0 0 269.542 114.777" fill="none" xmlns="http://www.w3.org/2000/svg" xmlns:xlink="http://www.w3.org/1999/xlink">
	<desc>
			Created with Pixso.
	</desc>
	<defs/>
	<path id="Vector" d="M269.042 1.15277L0.5 1.15277L0.5 114.277L269.042 114.277L269.042 1.15277Z" fill="#38BFF2" fill-opacity="1.000000" fill-rule="nonzero"/>
	<path id="Vector" d="M269.042 1.15277L269.042 114.277L0.5 114.277L0.5 1.15277L269.042 1.15277Z" stroke="#263238" stroke-opacity="1.000000" stroke-width="1.000000" stroke-linejoin="round"/>
	<path id="Vector" d="M31.374 7.99957L6.11133 7.99957L6.11133 21.9843L31.374 21.9843L31.374 7.99957Z" fill="#FFFFFF" fill-opacity="1.000000" fill-rule="nonzero"/>
	<path id="Vector" d="M31.374 7.99957L31.374 21.9843L6.11133 21.9843L6.11133 7.99957L31.374 7.99957Z" stroke="#263238" stroke-opacity="1.000000" stroke-width="1.000000"/>
	<path id="Vector" d="M262.825 76.1884L223.033 76.1884L223.033 90.1731L262.825 90.1731L262.825 76.1884Z" fill="#FFFFFF" fill-opacity="1.000000" fill-rule="nonzero"/>
	<path id="Vector" d="M262.825 76.1884L262.825 90.1731L223.033 90.1731L223.033 76.1884L262.825 76.1884Z" stroke="#263238" stroke-opacity="1.000000" stroke-width="1.000000"/>
	<path id="Vector" d="M262.837 25.4659L238.272 25.4659L238.272 39.4507L262.837 39.4507L262.837 25.4659Z" fill="#FFFFFF" fill-opacity="1.000000" fill-rule="nonzero"/>
	<path id="Vector" d="M262.837 25.4659L262.837 39.4507L238.272 39.4507L238.272 25.4659L262.837 25.4659Z" stroke="#263238" stroke-opacity="1.000000" stroke-width="1.000000"/>
	<path id="Vector" d="M31.374 58.9433L6.11133 58.9433L6.11133 72.928L31.374 72.928L31.374 58.9433Z" fill="#FFFFFF" fill-opacity="1.000000" fill-rule="nonzero"/>
	<path id="Vector" d="M31.374 58.9433L31.374 72.928L6.11133 72.928L6.11133 58.9433L31.374 58.9433Z" stroke="#263238" stroke-opacity="1.000000" stroke-width="1.000000"/>
	<path id="Vector" d="M26.5659 42.094L6.11133 42.094L6.11133 56.0788L26.5659 56.0788L26.5659 42.094Z" fill="#FFFFFF" fill-opacity="1.000000" fill-rule="nonzero"/>
	<path id="Vector" d="M26.5659 42.094L26.5659 56.0788L6.11133 56.0788L6.11133 42.094L26.5659 42.094Z" stroke="#263238" stroke-opacity="1.000000" stroke-width="1.000000"/>
	<path id="Vector" d="M20.0933 25.0468L6.11133 25.0468L6.11133 39.0315L20.0933 39.0315L20.0933 25.0468Z" fill="#FFFFFF" fill-opacity="1.000000" fill-rule="nonzero"/>
	<path id="Vector" d="M20.0933 25.0468L20.0933 39.0315L6.11133 39.0315L6.11133 25.0468L20.0933 25.0468Z" stroke="#263238" stroke-opacity="1.000000" stroke-width="1.000000"/>
	<path id="Vector" d="M37.9517 25.0468L23.9697 25.0468L23.9697 39.0315L37.9517 39.0315L37.9517 25.0468Z" fill="#FFFFFF" fill-opacity="1.000000" fill-rule="nonzero"/>
	<path id="Vector" d="M37.9517 25.0468L37.9517 39.0315L23.9697 39.0315L23.9697 25.0468L37.9517 25.0468Z" stroke="#263238" stroke-opacity="1.000000" stroke-width="1.000000"/>
	<path id="Vector" d="M55.7988 25.0468L41.8169 25.0468L41.8169 39.0315L55.7988 39.0315L55.7988 25.0468Z" fill="#FFFFFF" fill-opacity="1.000000" fill-rule="nonzero"/>
	<path id="Vector" d="M55.7988 25.0468L55.7988 39.0315L41.8169 39.0315L41.8169 25.0468L55.7988 25.0468Z" stroke="#263238" stroke-opacity="1.000000" stroke-width="1.000000"/>
	<path id="Vector" d="M73.6455 25.0468L59.6636 25.0468L59.6636 39.0315L73.6455 39.0315L73.6455 25.0468Z" fill="#FFFFFF" fill-opacity="1.000000" fill-rule="nonzero"/>
	<path id="Vector" d="M73.6455 25.0468L73.6455 39.0315L59.6636 39.0315L59.6636 25.0468L73.6455 25.0468Z" stroke="#263238" stroke-opacity="1.000000" stroke-width="1.000000"/>
	<path id="Vector" d="M91.5044 25.0468L77.5225 25.0468L77.5225 39.0315L91.5044 39.0315L91.5044 25.0468Z" fill="#FFFFFF" fill-opacity="1.000000" fill-rule="nonzero"/>
	<path id="Vector" d="M91.5044 25.0468L91.5044 39.0315L77.5225 39.0315L77.5225 25.0468L91.5044 25.0468Z" stroke="#263238" stroke-opacity="1.000000" stroke-width="1.000000"/>
	<path id="Vector" d="M109.351 25.0468L95.3691 25.0468L95.3691 39.0315L109.351 39.0315L109.351 25.0468Z" fill="#FFFFFF" fill-opacity="1.000000" fill-rule="nonzero"/>
	<path id="Vector" d="M109.351 25.0468L109.351 39.0315L95.3691 39.0315L95.3691 25.0468L109.351 25.0468Z" stroke="#263238" stroke-opacity="1.000000" stroke-width="1.000000"/>
	<path id="Vector" d="M127.198 25.0468L113.216 25.0468L113.216 39.0315L127.198 39.0315L127.198 25.0468Z" fill="#FFFFFF" fill-opacity="1.000000" fill-rule="nonzero"/>
	<path id="Vector" d="M127.198 25.0468L127.198 39.0315L113.216 39.0315L113.216 25.0468L127.198 25.0468Z" stroke="#263238" stroke-opacity="1.000000" stroke-width="1.000000"/>
	<path id="Vector" d="M145.056 25.0468L131.074 25.0468L131.074 39.0315L145.056 39.0315L145.056 25.0468Z" fill="#FFFFFF" fill-opacity="1.000000" fill-rule="nonzero"/>
	<path id="Vector" d="M145.056 25.0468L145.056 39.0315L131.074 39.0315L131.074 25.0468L145.056 25.0468Z" stroke="#263238" stroke-opacity="1.000000" stroke-width="1.000000"/>
	<path id="Vector" d="M162.904 25.0468L148.922 25.0468L148.922 39.0315L162.904 39.0315L162.904 25.0468Z" fill="#FFFFFF" fill-opacity="1.000000" fill-rule="nonzero"/>
	<path id="Vector" d="M162.904 25.0468L162.904 39.0315L148.922 39.0315L148.922 25.0468L162.904 25.0468Z" stroke="#263238" stroke-opacity="1.000000" stroke-width="1.000000"/>
	<path id="Vector" d="M180.762 25.0468L166.78 25.0468L166.78 39.0315L180.762 39.0315L180.762 25.0468Z" fill="#FFFFFF" fill-opacity="1.000000" fill-rule="nonzero"/>
	<path id="Vector" d="M180.762 25.0468L180.762 39.0315L166.78 39.0315L166.78 25.0468L180.762 25.0468Z" stroke="#263238" stroke-opacity="1.000000" stroke-width="1.000000"/>
	<path id="Vector" d="M198.609 25.0468L184.627 25.0468L184.627 39.0315L198.609 39.0315L198.609 25.0468Z" fill="#FFFFFF" fill-opacity="1.000000" fill-rule="nonzero"/>
	<path id="Vector" d="M198.609 25.0468L198.609 39.0315L184.627 39.0315L184.627 25.0468L198.609 25.0468Z" stroke="#263238" stroke-opacity="1.000000" stroke-width="1.000000"/>
	<path id="Vector" d="M216.456 25.0468L202.474 25.0468L202.474 39.0315L216.456 39.0315L216.456 25.0468Z" fill="#FFFFFF" fill-opacity="1.000000" fill-rule="nonzero"/>
	<path id="Vector" d="M216.456 25.0468L216.456 39.0315L202.474 39.0315L202.474 25.0468L216.456 25.0468Z" stroke="#263238" stroke-opacity="1.000000" stroke-width="1.000000"/>
	<path id="Vector" d="M234.314 25.0468L220.332 25.0468L220.332 39.0315L234.314 39.0315L234.314 25.0468Z" fill="#FFFFFF" fill-opacity="1.000000" fill-rule="nonzero"/>
	<path id="Vector" d="M234.314 25.0468L234.314 39.0315L220.332 39.0315L220.332 25.0468L234.314 25.0468Z" stroke="#263238" stroke-opacity="1.000000" stroke-width="1.000000"/>
	<path id="Vector" d="M20.0933 93.4335L6.11133 93.4335L6.11133 107.418L20.0933 107.418L20.0933 93.4335Z" fill="#FFFFFF" fill-opacity="1.000000" fill-rule="nonzero"/>
	<path id="Vector" d="M20.0933 93.4335L20.0933 107.418L6.11133 107.418L6.11133 93.4335L20.0933 93.4335Z" stroke="#263238" stroke-opacity="1.000000" stroke-width="1.000000"/>
	<path id="Vector" d="M37.9517 93.4335L23.9697 93.4335L23.9697 107.418L37.9517 107.418L37.9517 93.4335Z" fill="#FFFFFF" fill-opacity="1.000000" fill-rule="nonzero"/>
	<path id="Vector" d="M37.9517 93.4335L37.9517 107.418L23.9697 107.418L23.9697 93.4335L37.9517 93.4335Z" stroke="#263238" stroke-opacity="1.000000" stroke-width="1.000000"/>
	<path id="Vector" d="M55.7988 93.4335L41.8169 93.4335L41.8169 107.418L55.7988 107.418L55.7988 93.4335Z" fill="#FFFFFF" fill-opacity="1.000000" fill-rule="nonzero"/>
	<path id="Vector" d="M55.7988 93.4335L55.7988 107.418L41.8169 107.418L41.8169 93.4335L55.7988 93.4335Z" stroke="#263238" stroke-opacity="1.000000" stroke-width="1.000000"/>
	<path id="Vector" d="M76.731 93.4335L59.6641 93.4335L59.6641 107.418L76.731 107.418L76.731 93.4335Z" fill="#FFFFFF" fill-opacity="1.000000" fill-rule="nonzero"/>
	<path id="Vector" d="M76.731 93.4335L76.731 107.418L59.6641 107.418L59.6641 93.4335L76.731 93.4335Z" stroke="#263238" stroke-opacity="1.000000" stroke-width="1.000000"/>
	<path id="Vector" d="M165.988 93.4335L80.5957 93.4335L80.5957 107.418L165.988 107.418L165.988 93.4335Z" fill="#FFFFFF" fill-opacity="1.000000" fill-rule="nonzero"/>
	<path id="Vector" d="M165.988 93.4335L165.988 107.418L80.5957 107.418L80.5957 93.4335L165.988 93.4335Z" stroke="#263238" stroke-opacity="1.000000" stroke-width="1.000000"/>
	<path id="Vector" d="M226.526 93.4335L212.544 93.4335L212.544 107.418L226.526 107.418L226.526 93.4335Z" fill="#FFFFFF" fill-opacity="1.000000" fill-rule="nonzero"/>
	<path id="Vector" d="M226.526 93.4335L226.526 107.418L212.544 107.418L212.544 93.4335L226.526 93.4335Z" stroke="#263238" stroke-opacity="1.000000" stroke-width="1.000000"/>
	<path id="Vector" d="M244.408 93.4335L230.426 93.4335L230.426 107.418L244.408 107.418L244.408 93.4335Z" fill="#FFFFFF" fill-opacity="1.000000" fill-rule="nonzero"/>
	<path id="Vector" d="M244.408 93.4335L244.408 107.418L230.426 107.418L230.426 93.4335L244.408 93.4335Z" stroke="#263238" stroke-opacity="1.000000" stroke-width="1.000000"/>
	<path id="Vector" d="M191.193 93.4335L169.481 93.4335L169.481 107.418L191.193 107.418L191.193 93.4335Z" fill="#FFFFFF" fill-opacity="1.000000" fill-rule="nonzero"/>
	<path id="Vector" d="M191.193 93.4335L191.193 107.418L169.481 107.418L169.481 93.4335L191.193 93.4335Z" stroke="#263238" stroke-opacity="1.000000" stroke-width="1.000000"/>
	<path id="Vector" d="M262.826 93.4335L248.844 93.4335L248.844 107.418L262.826 107.418L262.826 93.4335Z" fill="#FFFFFF" fill-opacity="1.000000" fill-rule="nonzero"/>
	<path id="Vector" d="M262.826 93.4335L262.826 107.418L248.844 107.418L248.844 93.4335L262.826 93.4335Z" stroke="#263238" stroke-opacity="1.000000" stroke-width="1.000000"/>
	<path id="Vector" d="M44.5176 42.094L30.5356 42.094L30.5356 56.0788L44.5176 56.0788L44.5176 42.094Z" fill="#FFFFFF" fill-opacity="1.000000" fill-rule="nonzero"/>
	<path id="Vector" d="M44.5176 42.094L44.5176 56.0788L30.5356 56.0788L30.5356 42.094L44.5176 42.094Z" stroke="#263238" stroke-opacity="1.000000" stroke-width="1.000000"/>
	<path id="Vector" d="M62.3647 42.094L48.3828 42.094L48.3828 56.0788L62.3647 56.0788L62.3647 42.094Z" fill="#FFFFFF" fill-opacity="1.000000" fill-rule="nonzero"/>
	<path id="Vector" d="M62.3647 42.094L62.3647 56.0788L48.3828 56.0788L48.3828 42.094L62.3647 42.094Z" stroke="#263238" stroke-opacity="1.000000" stroke-width="1.000000"/>
	<path id="Vector" d="M80.2231 42.094L66.2412 42.094L66.2412 56.0788L80.2231 56.0788L80.2231 42.094Z" fill="#FFFFFF" fill-opacity="1.000000" fill-rule="nonzero"/>
	<path id="Vector" d="M80.2231 42.094L80.2231 56.0788L66.2412 56.0788L66.2412 42.094L80.2231 42.094Z" stroke="#263238" stroke-opacity="1.000000" stroke-width="1.000000"/>
	<path id="Vector" d="M98.0698 42.094L84.0879 42.094L84.0879 56.0788L98.0698 56.0788L98.0698 42.094Z" fill="#FFFFFF" fill-opacity="1.000000" fill-rule="nonzero"/>
	<path id="Vector" d="M98.0698 42.094L98.0698 56.0788L84.0879 56.0788L84.0879 42.094L98.0698 42.094Z" stroke="#263238" stroke-opacity="1.000000" stroke-width="1.000000"/>
	<path id="Vector" d="M115.929 42.094L101.947 42.094L101.947 56.0788L115.929 56.0788L115.929 42.094Z" fill="#FFFFFF" fill-opacity="1.000000" fill-rule="nonzero"/>
	<path id="Vector" d="M115.929 42.094L115.929 56.0788L101.947 56.0788L101.947 42.094L115.929 42.094Z" stroke="#263238" stroke-opacity="1.000000" stroke-width="1.000000"/>
	<path id="Vector" d="M133.776 42.094L119.794 42.094L119.794 56.0788L133.776 56.0788L133.776 42.094Z" fill="#FFFFFF" fill-opacity="1.000000" fill-rule="nonzero"/>
	<path id="Vector" d="M133.776 42.094L133.776 56.0788L119.794 56.0788L119.794 42.094L133.776 42.094Z" stroke="#263238" stroke-opacity="1.000000" stroke-width="1.000000"/>
	<path id="Vector" d="M151.623 42.094L137.641 42.094L137.641 56.0788L151.623 56.0788L151.623 42.094Z" fill="#FFFFFF" fill-opacity="1.000000" fill-rule="nonzero"/>
	<path id="Vector" d="M151.623 42.094L151.623 56.0788L137.641 56.0788L137.641 42.094L151.623 42.094Z" stroke="#263238" stroke-opacity="1.000000" stroke-width="1.000000"/>
	<path id="Vector" d="M169.481 42.094L155.499 42.094L155.499 56.0788L169.481 56.0788L169.481 42.094Z" fill="#FFFFFF" fill-opacity="1.000000" fill-rule="nonzero"/>
	<path id="Vector" d="M169.481 42.094L169.481 56.0788L155.499 56.0788L155.499 42.094L169.481 42.094Z" stroke="#263238" stroke-opacity="1.000000" stroke-width="1.000000"/>
	<path id="Vector" d="M187.328 42.094L173.346 42.094L173.346 56.0788L187.328 56.0788L187.328 42.094Z" fill="#FFFFFF" fill-opacity="1.000000" fill-rule="nonzero"/>
	<path id="Vector" d="M187.328 42.094L187.328 56.0788L173.346 56.0788L173.346 42.094L187.328 42.094Z" stroke="#263238" stroke-opacity="1.000000" stroke-width="1.000000"/>
	<path id="Vector" d="M205.175 42.094L191.193 42.094L191.193 56.0788L205.175 56.0788L205.175 42.094Z" fill="#FFFFFF" fill-opacity="1.000000" fill-rule="nonzero"/>
	<path id="Vector" d="M205.175 42.094L205.175 56.0788L191.193 56.0788L191.193 42.094L205.175 42.094Z" stroke="#263238" stroke-opacity="1.000000" stroke-width="1.000000"/>
	<path id="Vector" d="M223.034 42.094L209.052 42.094L209.052 56.0788L223.034 56.0788L223.034 42.094Z" fill="#FFFFFF" fill-opacity="1.000000" fill-rule="nonzero"/>
	<path id="Vector" d="M223.034 42.094L223.034 56.0788L209.052 56.0788L209.052 42.094L223.034 42.094Z" stroke="#263238" stroke-opacity="1.000000" stroke-width="1.000000"/>
	<path id="Vector" d="M240.88 42.094L226.898 42.094L226.898 56.0788L240.88 56.0788L240.88 42.094Z" fill="#FFFFFF" fill-opacity="1.000000" fill-rule="nonzero"/>
	<path id="Vector" d="M240.88 42.094L240.88 56.0788L226.898 56.0788L226.898 42.094L240.88 42.094Z" stroke="#263238" stroke-opacity="1.000000" stroke-width="1.000000"/>
	<path id="Vector" d="M262.825 42.094L262.825 73.1376L248.843 73.1376L248.843 56.0787L244.745 56.0787L244.745 42.094L262.825 42.094Z" fill="#FFFFFF" fill-opacity="1.000000" fill-rule="nonzero"/>
	<path id="Vector" d="M262.825 73.1376L248.843 73.1376L248.843 56.0787L244.745 56.0787L244.745 42.094L262.825 42.094L262.825 73.1376Z" stroke="#263238" stroke-opacity="1.000000" stroke-width="1.000000"/>
	<path id="Vector" d="M48.6157 59.1412L34.6338 59.1412L34.6338 73.1259L48.6157 73.1259L48.6157 59.1412Z" fill="#FFFFFF" fill-opacity="1.000000" fill-rule="nonzero"/>
	<path id="Vector" d="M48.6157 59.1412L48.6157 73.1259L34.6338 73.1259L34.6338 59.1412L48.6157 59.1412Z" stroke="#263238" stroke-opacity="1.000000" stroke-width="1.000000"/>
	<path id="Vector" d="M66.4624 59.1412L52.4805 59.1412L52.4805 73.1259L66.4624 73.1259L66.4624 59.1412Z" fill="#FFFFFF" fill-opacity="1.000000" fill-rule="nonzero"/>
	<path id="Vector" d="M66.4624 59.1412L66.4624 73.1259L52.4805 73.1259L52.4805 59.1412L66.4624 59.1412Z" stroke="#263238" stroke-opacity="1.000000" stroke-width="1.000000"/>
	<path id="Vector" d="M84.3101 59.1412L70.3281 59.1412L70.3281 73.1259L84.3101 73.1259L84.3101 59.1412Z" fill="#FFFFFF" fill-opacity="1.000000" fill-rule="nonzero"/>
	<path id="Vector" d="M84.3101 59.1412L84.3101 73.1259L70.3281 73.1259L70.3281 59.1412L84.3101 59.1412Z" stroke="#263238" stroke-opacity="1.000000" stroke-width="1.000000"/>
	<path id="Vector" d="M102.168 59.1412L88.1865 59.1412L88.1865 73.1259L102.168 73.1259L102.168 59.1412Z" fill="#FFFFFF" fill-opacity="1.000000" fill-rule="nonzero"/>
	<path id="Vector" d="M102.168 59.1412L102.168 73.1259L88.1865 73.1259L88.1865 59.1412L102.168 59.1412Z" stroke="#263238" stroke-opacity="1.000000" stroke-width="1.000000"/>
	<path id="Vector" d="M120.015 59.1412L106.033 59.1412L106.033 73.1259L120.015 73.1259L120.015 59.1412Z" fill="#FFFFFF" fill-opacity="1.000000" fill-rule="nonzero"/>
	<path id="Vector" d="M120.015 59.1412L120.015 73.1259L106.033 73.1259L106.033 59.1412L120.015 59.1412Z" stroke="#263238" stroke-opacity="1.000000" stroke-width="1.000000"/>
	<path id="Vector" d="M137.874 59.1412L123.892 59.1412L123.892 73.1259L137.874 73.1259L137.874 59.1412Z" fill="#FFFFFF" fill-opacity="1.000000" fill-rule="nonzero"/>
	<path id="Vector" d="M137.874 59.1412L137.874 73.1259L123.892 73.1259L123.892 59.1412L137.874 59.1412Z" stroke="#263238" stroke-opacity="1.000000" stroke-width="1.000000"/>
	<path id="Vector" d="M155.72 59.1412L141.738 59.1412L141.738 73.1259L155.72 73.1259L155.72 59.1412Z" fill="#FFFFFF" fill-opacity="1.000000" fill-rule="nonzero"/>
	<path id="Vector" d="M155.72 59.1412L155.72 73.1259L141.738 73.1259L141.738 59.1412L155.72 59.1412Z" stroke="#263238" stroke-opacity="1.000000" stroke-width="1.000000"/>
	<path id="Vector" d="M173.567 59.1412L159.585 59.1412L159.585 73.1259L173.567 73.1259L173.567 59.1412Z" fill="#FFFFFF" fill-opacity="1.000000" fill-rule="nonzero"/>
	<path id="Vector" d="M173.567 59.1412L173.567 73.1259L159.585 73.1259L159.585 59.1412L173.567 59.1412Z" stroke="#263238" stroke-opacity="1.000000" stroke-width="1.000000"/>
	<path id="Vector" d="M191.426 59.1412L177.444 59.1412L177.444 73.1259L191.426 73.1259L191.426 59.1412Z" fill="#FFFFFF" fill-opacity="1.000000" fill-rule="nonzero"/>
	<path id="Vector" d="M191.426 59.1412L191.426 73.1259L177.444 73.1259L177.444 59.1412L191.426 59.1412Z" stroke="#263238" stroke-opacity="1.000000" stroke-width="1.000000"/>
	<path id="Vector" d="M209.273 59.1412L195.291 59.1412L195.291 73.1259L209.273 73.1259L209.273 59.1412Z" fill="#FFFFFF" fill-opacity="1.000000" fill-rule="nonzero"/>
	<path id="Vector" d="M209.273 59.1412L209.273 73.1259L195.291 73.1259L195.291 59.1412L209.273 59.1412Z" stroke="#263238" stroke-opacity="1.000000" stroke-width="1.000000"/>
	<path id="Vector" d="M227.12 59.1412L213.138 59.1412L213.138 73.1259L227.12 73.1259L227.12 59.1412Z" fill="#FFFFFF" fill-opacity="1.000000" fill-rule="nonzero"/>
	<path id="Vector" d="M227.12 59.1412L227.12 73.1259L213.138 73.1259L213.138 59.1412L227.12 59.1412Z" stroke="#263238" stroke-opacity="1.000000" stroke-width="1.000000"/>
	<path id="Vector" d="M244.978 59.1412L230.996 59.1412L230.996 73.1259L244.978 73.1259L244.978 59.1412Z" fill="#FFFFFF" fill-opacity="1.000000" fill-rule="nonzero"/>
	<path id="Vector" d="M244.978 59.1412L244.978 73.1259L230.996 73.1259L230.996 59.1412L244.978 59.1412Z" stroke="#263238" stroke-opacity="1.000000" stroke-width="1.000000"/>
	<path id="Vector" d="M41.0254 76.1884L27.0435 76.1884L27.0435 90.1731L41.0254 90.1731L41.0254 76.1884Z" fill="#FFFFFF" fill-opacity="1.000000" fill-rule="nonzero"/>
	<path id="Vector" d="M41.0254 76.1884L41.0254 90.1731L27.0435 90.1731L27.0435 76.1884L41.0254 76.1884Z" stroke="#263238" stroke-opacity="1.000000" stroke-width="1.000000"/>
	<path id="Vector" d="M58.8721 76.1884L44.8901 76.1884L44.8901 90.1731L58.8721 90.1731L58.8721 76.1884Z" fill="#FFFFFF" fill-opacity="1.000000" fill-rule="nonzero"/>
	<path id="Vector" d="M58.8721 76.1884L58.8721 90.1731L44.8901 90.1731L44.8901 76.1884L58.8721 76.1884Z" stroke="#263238" stroke-opacity="1.000000" stroke-width="1.000000"/>
	<path id="Vector" d="M76.731 76.1884L62.749 76.1884L62.749 90.1731L76.731 90.1731L76.731 76.1884Z" fill="#FFFFFF" fill-opacity="1.000000" fill-rule="nonzero"/>
	<path id="Vector" d="M76.731 76.1884L76.731 90.1731L62.749 90.1731L62.749 76.1884L76.731 76.1884Z" stroke="#263238" stroke-opacity="1.000000" stroke-width="1.000000"/>
	<path id="Vector" d="M94.5776 76.1884L80.5957 76.1884L80.5957 90.1731L94.5776 90.1731L94.5776 76.1884Z" fill="#FFFFFF" fill-opacity="1.000000" fill-rule="nonzero"/>
	<path id="Vector" d="M94.5776 76.1884L94.5776 90.1731L80.5957 90.1731L80.5957 76.1884L94.5776 76.1884Z" stroke="#263238" stroke-opacity="1.000000" stroke-width="1.000000"/>
	<path id="Vector" d="M112.436 76.1884L98.4541 76.1884L98.4541 90.1731L112.436 90.1731L112.436 76.1884Z" fill="#FFFFFF" fill-opacity="1.000000" fill-rule="nonzero"/>
	<path id="Vector" d="M112.436 76.1884L112.436 90.1731L98.4541 90.1731L98.4541 76.1884L112.436 76.1884Z" stroke="#263238" stroke-opacity="1.000000" stroke-width="1.000000"/>
	<path id="Vector" d="M130.283 76.1884L116.301 76.1884L116.301 90.1731L130.283 90.1731L130.283 76.1884Z" fill="#FFFFFF" fill-opacity="1.000000" fill-rule="nonzero"/>
	<path id="Vector" d="M130.283 76.1884L130.283 90.1731L116.301 90.1731L116.301 76.1884L130.283 76.1884Z" stroke="#263238" stroke-opacity="1.000000" stroke-width="1.000000"/>
	<path id="Vector" d="M148.13 76.1884L134.148 76.1884L134.148 90.1731L148.13 90.1731L148.13 76.1884Z" fill="#FFFFFF" fill-opacity="1.000000" fill-rule="nonzero"/>
	<path id="Vector" d="M148.13 76.1884L148.13 90.1731L134.148 90.1731L134.148 76.1884L148.13 76.1884Z" stroke="#263238" stroke-opacity="1.000000" stroke-width="1.000000"/>
	<path id="Vector" d="M165.989 76.1884L152.007 76.1884L152.007 90.1731L165.989 90.1731L165.989 76.1884Z" fill="#FFFFFF" fill-opacity="1.000000" fill-rule="nonzero"/>
	<path id="Vector" d="M165.989 76.1884L165.989 90.1731L152.007 90.1731L152.007 76.1884L165.989 76.1884Z" stroke="#263238" stroke-opacity="1.000000" stroke-width="1.000000"/>
	<path id="Vector" d="M183.835 76.1884L169.854 76.1884L169.854 90.1731L183.835 90.1731L183.835 76.1884Z" fill="#FFFFFF" fill-opacity="1.000000" fill-rule="nonzero"/>
	<path id="Vector" d="M183.835 76.1884L183.835 90.1731L169.854 90.1731L169.854 76.1884L183.835 76.1884Z" stroke="#263238" stroke-opacity="1.000000" stroke-width="1.000000"/>
	<path id="Vector" d="M201.682 76.1884L187.7 76.1884L187.7 90.1731L201.682 90.1731L201.682 76.1884Z" fill="#FFFFFF" fill-opacity="1.000000" fill-rule="nonzero"/>
	<path id="Vector" d="M201.682 76.1884L201.682 90.1731L187.7 90.1731L187.7 76.1884L201.682 76.1884Z" stroke="#263238" stroke-opacity="1.000000" stroke-width="1.000000"/>
	<path id="Vector" d="M219.541 76.1884L205.559 76.1884L205.559 90.1731L219.541 90.1731L219.541 76.1884Z" fill="#FFFFFF" fill-opacity="1.000000" fill-rule="nonzero"/>
	<path id="Vector" d="M219.541 76.1884L219.541 90.1731L205.559 90.1731L205.559 76.1884L219.541 76.1884Z" stroke="#263238" stroke-opacity="1.000000" stroke-width="1.000000"/>
	<path id="Vector" d="M48.6157 8.83801L34.6338 8.83801L34.6338 22.8228L48.6157 22.8228L48.6157 8.83801Z" fill="#FFFFFF" fill-opacity="1.000000" fill-rule="nonzero"/>
	<path id="Vector" d="M48.6157 8.83801L48.6157 22.8228L34.6338 22.8228L34.6338 8.83801L48.6157 8.83801Z" stroke="#263238" stroke-opacity="1.000000" stroke-width="1.000000"/>
	<path id="Vector" d="M66.4624 8.83801L52.4805 8.83801L52.4805 22.8228L66.4624 22.8228L66.4624 8.83801Z" fill="#FFFFFF" fill-opacity="1.000000" fill-rule="nonzero"/>
	<path id="Vector" d="M66.4624 8.83801L66.4624 22.8228L52.4805 22.8228L52.4805 8.83801L66.4624 8.83801Z" stroke="#263238" stroke-opacity="1.000000" stroke-width="1.000000"/>
	<path id="Vector" d="M84.3101 8.83801L70.3281 8.83801L70.3281 22.8228L84.3101 22.8228L84.3101 8.83801Z" fill="#FFFFFF" fill-opacity="1.000000" fill-rule="nonzero"/>
	<path id="Vector" d="M84.3101 8.83801L84.3101 22.8228L70.3281 22.8228L70.3281 8.83801L84.3101 8.83801Z" stroke="#263238" stroke-opacity="1.000000" stroke-width="1.000000"/>
	<path id="Vector" d="M102.168 8.83801L88.1865 8.83801L88.1865 22.8228L102.168 22.8228L102.168 8.83801Z" fill="#FFFFFF" fill-opacity="1.000000" fill-rule="nonzero"/>
	<path id="Vector" d="M102.168 8.83801L102.168 22.8228L88.1865 22.8228L88.1865 8.83801L102.168 8.83801Z" stroke="#263238" stroke-opacity="1.000000" stroke-width="1.000000"/>
	<path id="Vector" d="M120.015 8.83801L106.033 8.83801L106.033 22.8228L120.015 22.8228L120.015 8.83801Z" fill="#FFFFFF" fill-opacity="1.000000" fill-rule="nonzero"/>
	<path id="Vector" d="M120.015 8.83801L120.015 22.8228L106.033 22.8228L106.033 8.83801L120.015 8.83801Z" stroke="#263238" stroke-opacity="1.000000" stroke-width="1.000000"/>
	<path id="Vector" d="M137.874 8.83801L123.892 8.83801L123.892 22.8228L137.874 22.8228L137.874 8.83801Z" fill="#FFFFFF" fill-opacity="1.000000" fill-rule="nonzero"/>
	<path id="Vector" d="M137.874 8.83801L137.874 22.8228L123.892 22.8228L123.892 8.83801L137.874 8.83801Z" stroke="#263238" stroke-opacity="1.000000" stroke-width="1.000000"/>
	<path id="Vector" d="M155.72 8.83801L141.738 8.83801L141.738 22.8228L155.72 22.8228L155.72 8.83801Z" fill="#FFFFFF" fill-opacity="1.000000" fill-rule="nonzero"/>
	<path id="Vector" d="M155.72 8.83801L155.72 22.8228L141.738 22.8228L141.738 8.83801L155.72 8.83801Z" stroke="#263238" stroke-opacity="1.000000" stroke-width="1.000000"/>
	<path id="Vector" d="M173.567 8.83801L159.585 8.83801L159.585 22.8228L173.567 22.8228L173.567 8.83801Z" fill="#FFFFFF" fill-opacity="1.000000" fill-rule="nonzero"/>
	<path id="Vector" d="M173.567 8.83801L173.567 22.8228L159.585 22.8228L159.585 8.83801L173.567 8.83801Z" stroke="#263238" stroke-opacity="1.000000" stroke-width="1.000000"/>
	<path id="Vector" d="M191.426 8.83801L177.444 8.83801L177.444 22.8228L191.426 22.8228L191.426 8.83801Z" fill="#FFFFFF" fill-opacity="1.000000" fill-rule="nonzero"/>
	<path id="Vector" d="M191.426 8.83801L191.426 22.8228L177.444 22.8228L177.444 8.83801L191.426 8.83801Z" stroke="#263238" stroke-opacity="1.000000" stroke-width="1.000000"/>
	<path id="Vector" d="M209.273 8.83801L195.291 8.83801L195.291 22.8228L209.273 22.8228L209.273 8.83801Z" fill="#FFFFFF" fill-opacity="1.000000" fill-rule="nonzero"/>
	<path id="Vector" d="M209.273 8.83801L209.273 22.8228L195.291 22.8228L195.291 8.83801L209.273 8.83801Z" stroke="#263238" stroke-opacity="1.000000" stroke-width="1.000000"/>
	<path id="Vector" d="M227.12 8.83801L213.138 8.83801L213.138 22.8228L227.12 22.8228L227.12 8.83801Z" fill="#FFFFFF" fill-opacity="1.000000" fill-rule="nonzero"/>
	<path id="Vector" d="M227.12 8.83801L227.12 22.8228L213.138 22.8228L213.138 8.83801L227.12 8.83801Z" stroke="#263238" stroke-opacity="1.000000" stroke-width="1.000000"/>
	<path id="Vector" d="M244.978 8.83801L230.996 8.83801L230.996 22.8228L244.978 22.8228L244.978 8.83801Z" fill="#FFFFFF" fill-opacity="1.000000" fill-rule="nonzero"/>
	<path id="Vector" d="M244.978 8.83801L244.978 22.8228L230.996 22.8228L230.996 8.83801L244.978 8.83801Z" stroke="#263238" stroke-opacity="1.000000" stroke-width="1.000000"/>
	<path id="Vector" d="M262.826 8.83801L248.844 8.83801L248.844 22.8228L262.826 22.8228L262.826 8.83801Z" fill="#FFFFFF" fill-opacity="1.000000" fill-rule="nonzero"/>
	<path id="Vector" d="M262.826 8.83801L262.826 22.8228L248.844 22.8228L248.844 8.83801L262.826 8.83801Z" stroke="#263238" stroke-opacity="1.000000" stroke-width="1.000000"/>
	<path id="Vector" d="M23.0503 76.1884L6.11133 76.1884L6.11133 90.1731L23.0503 90.1731L23.0503 76.1884Z" fill="#FFFFFF" fill-opacity="1.000000" fill-rule="nonzero"/>
	<path id="Vector" d="M23.0503 76.1884L23.0503 90.1731L6.11133 90.1731L6.11133 76.1884L23.0503 76.1884Z" stroke="#263238" stroke-opacity="1.000000" stroke-width="1.000000"/>
	<path id="Vector" d="M0.5 1.87471L6.11133 0L265.398 0L269.088 1.85142L0.5 1.87471Z" fill="#263238" fill-opacity="1.000000" fill-rule="nonzero"/>
</svg>
