<svg width="95.478516" height="170.446136" viewBox="0 0 95.4785 170.446" fill="none" xmlns="http://www.w3.org/2000/svg" xmlns:xlink="http://www.w3.org/1999/xlink">
	<desc>
			Created with Pixso.
	</desc>
	<defs/>
	<path id="Vector" d="M93.9067 51.7861C93.4062 49.4573 90.1348 49.8182 90.1348 49.8182C79.1333 50.4587 77.6548 67.7038 77.6548 67.7038L73.708 79.5227L72.5439 61.7536L72.6602 38.8493C72.6602 38.8493 75.9897 16.9349 74.5112 13.4998C74.1738 12.5524 73.5591 11.7283 72.7476 11.1345C71.9355 10.5407 70.9644 10.2045 69.9595 10.1695C63.5562 8.56263 63.1841 17.7965 63.1841 17.7965L57.7822 36.6369L55.5005 56.9562L53.6606 55.9664C53.6606 55.9664 52.7876 34.4129 53.1602 34.0519C53.5327 33.6909 55.7446 19.1473 55.7446 19.1473C55.7446 19.1473 56.9087 16.4458 58.457 12.9991C58.895 12.0313 59.1211 10.9813 59.1211 9.91919C59.1211 8.85705 58.895 7.80709 58.457 6.83928C55.8613 1.54115 50.4595 4.00973 49.3418 6.83928C48.0298 9.71296 46.5527 12.5084 44.918 15.2115L38.7476 32.084C38.9805 35.9033 36.792 54.7321 36.792 54.7321L34.5684 53.7307L30.9941 42.6687L33.7183 31.3388C33.7183 31.3388 39.6675 24.818 38.6313 20.9754C37.5952 17.1328 32.6006 18.2739 32.6006 18.2739L22.519 30.3257L19.5503 30.3257L12.5654 39.1987C9.39453 48.7153 8.82764 58.9072 10.9238 68.7169L12.5303 76.2041L12.5303 124.609C12.5303 124.609 7.74561 132.364 7.74561 133.098C7.74561 133.436 3.21729 141.652 0.458008 149.279C12.48 157.139 25.458 163.779 40.958 170.279C45.3701 157.854 52.8926 140.876 55.7446 137.779C61.4028 131.619 72.4858 119.8 72.4858 119.8C72.4858 119.8 85.0703 99.5741 86.5488 92.8438C87.7134 87.3244 90.7168 77.3103 91.7412 73.8753C91.979 73.0953 92.0737 72.2786 92.0205 71.4649C91.939 69.6484 91.7646 66.1202 91.7646 63.0112C91.7646 58.5165 94.3838 54.08 93.9067 51.7861Z" fill="#FFFFFF" fill-opacity="1.000000" fill-rule="nonzero"/>
	<path id="Vector" d="M0.458008 149.279C3.95801 141.279 8.86914 130.119 8.86914 129.781C8.86914 129.048 13.6538 121.293 13.6538 121.293L13.6538 72.8991L12.0474 65.4584C9.95264 55.6742 10.5073 45.5081 13.6538 36.01L20.6387 27.1371L23.6074 27.1371L33.6895 15.0853C33.6895 15.0853 38.7417 13.9209 39.7197 17.7868C40.6978 21.6527 34.8071 28.1269 34.8071 28.1269L32.0825 39.4567L35.6567 50.5188L37.8804 51.5202C37.8804 51.5202 40.0688 32.6914 39.8364 28.8721L46.0063 11.9996C47.6411 9.29646 49.1182 6.50105 50.4302 3.62737C51.5942 0.797813 56.9497 -1.67077 59.5459 3.62737C59.9834 4.59518 60.2095 5.64513 60.2095 6.70728C60.2095 7.76942 59.9834 8.81938 59.5459 9.78719C58.0557 13.2805 56.8335 15.9354 56.8335 15.9354C56.8335 15.9354 54.6211 30.4674 54.249 30.84C53.8765 31.2126 54.7495 52.7545 54.7495 52.7545L56.5889 53.7442L58.8125 33.425L64.2144 14.5846C64.2144 14.5846 64.5869 5.35072 70.9897 6.95762C71.9946 6.99256 72.9663 7.32875 73.7778 7.92257C74.5894 8.5164 75.2041 9.34046 75.5415 10.2879C77.02 13.7229 73.6904 35.6374 73.6904 35.6374L73.5742 58.5417L74.7383 76.3108L78.6851 64.4919C78.6851 64.4919 80.1636 47.2467 91.165 46.6063C91.165 46.6063 94.4365 46.2686 94.937 48.5742C95.4375 50.8798 92.7949 55.3046 92.7949 59.741C92.7949 62.85 92.9697 66.3783 93.0508 68.1948C93.104 69.0085 93.0093 69.8251 92.7715 70.6051C91.7471 74.0402 88.8018 84.0542 87.5791 89.5736C86.1006 96.304 73.5161 116.53 73.5161 116.53C73.5161 116.53 62.4331 128.349 56.7749 134.509C53.9229 137.606 45.3701 157.854 40.958 170.279" stroke="#263238" stroke-opacity="1.000000" stroke-width="1.000000"/>
	<path id="Vector" d="M37.7173 53.3018C38.0269 54.4584 38.0361 55.6748 37.7451 56.8361C37.4536 57.9974 36.8711 59.0653 36.0527 59.9389" fill="#FFFFFF" fill-opacity="1.000000" fill-rule="nonzero"/>
	<path id="Vector" d="M37.7173 53.3018C38.0269 54.4584 38.0361 55.6748 37.7451 56.8361C37.4536 57.9974 36.8711 59.0653 36.0527 59.9389" stroke="#263238" stroke-opacity="1.000000" stroke-width="1.000000"/>
	<path id="Vector" d="M18.9395 69.5804C20.5342 67.1002 22.0942 63.7001 21.6636 60.789C20.8252 55.0717 18.1709 48.4927 19.3936 42.8336C20.1387 39.2238 20.8955 35.6025 21.6401 31.9927" fill="#FFFFFF" fill-opacity="1.000000" fill-rule="nonzero"/>
	<path id="Vector" d="M18.9395 69.5804C20.5342 67.1002 22.0942 63.7001 21.6636 60.789C20.8252 55.0717 18.1709 48.4927 19.3936 42.8336C20.1387 39.2238 20.8955 35.6025 21.6401 31.9927" stroke="#263238" stroke-opacity="1.000000" stroke-width="1.000000"/>
	<path id="Vector" d="M65.3555 15.5744C67.2632 15.0715 69.2686 15.0715 71.1763 15.5744C71.1763 15.0388 71.1763 14.5031 71.1763 13.9559" stroke="#263238" stroke-opacity="1.000000" stroke-width="1.000000"/>
	<path id="Vector" d="M50.1045 8.29671C50.6655 8.68345 51.3223 8.90836 52.0024 8.94684C52.6826 8.98532 53.3604 8.83588 53.9614 8.51487C54.5625 8.19385 55.0635 7.71363 55.4102 7.12679C55.7563 6.53995 55.9346 5.86911 55.9253 5.18768" stroke="#263238" stroke-opacity="1.000000" stroke-width="1.000000"/>
	<path id="Vector" d="M92.1436 48.7256C90.5342 49.1397 89.1196 50.1026 88.144 51.4482C87.1685 52.7938 86.6934 54.4377 86.7998 56.0964L89.6523 56.9465" stroke="#263238" stroke-opacity="1.000000" stroke-width="1.000000"/>
	<path id="Vector" d="M54.6797 50.1462C54.8081 52.1024 54.5635 56.7717 54.6797 58.7163" fill="#FFFFFF" fill-opacity="1.000000" fill-rule="nonzero"/>
	<path id="Vector" d="M54.6797 50.1462C54.8081 52.1024 54.5635 56.7717 54.6797 58.7163" stroke="#263238" stroke-opacity="1.000000" stroke-width="1.000000"/>
	<path id="Vector" d="M56.8213 52.8476C56.5889 56.0537 56.3521 59.2559 56.1113 62.4542C56.1113 62.0466 56.1113 61.639 56.1113 61.2315" fill="#FFFFFF" fill-opacity="1.000000" fill-rule="nonzero"/>
	<path id="Vector" d="M56.8213 52.8476C56.5889 56.0537 56.3521 59.2559 56.1113 62.4542C56.1113 62.0466 56.1113 61.639 56.1113 61.2315" stroke="#263238" stroke-opacity="1.000000" stroke-width="1.000000"/>
	<path id="Vector" d="M74.5522 79.839C75.3975 83.3777 75.0112 87.0989 73.458 90.3887" fill="#FFFFFF" fill-opacity="1.000000" fill-rule="nonzero"/>
	<path id="Vector" d="M74.5522 79.839C75.3975 83.3777 75.0112 87.0989 73.458 90.3887" stroke="#263238" stroke-opacity="1.000000" stroke-width="1.000000"/>
	<path id="Vector" d="M45.0752 63.0596C42.5376 65.8426 42.9102 72.5147 44.7031 76.1943" stroke="#263238" stroke-opacity="1.000000" stroke-width="1.000000"/>
	<path id="Vector" d="M63.8301 67.6474C63.8447 70.7757 62.7422 73.8065 60.7217 76.1943" stroke="#263238" stroke-opacity="1.000000" stroke-width="1.000000"/>
	<path id="Vector" d="M26.5884 64.3871C26.1665 67.2243 26.7827 70.1186 28.3232 72.5381" stroke="#263238" stroke-opacity="1.000000" stroke-width="1.000000"/>
	<path id="Vector" d="M15.7842 73.0853C15.6729 75.2999 16.3037 77.4882 17.5767 79.3034" stroke="#263238" stroke-opacity="1.000000" stroke-width="1.000000"/>
	<path id="Vector" d="M30.5928 19.3937C31.2612 19.0887 32.0054 18.9889 32.731 19.1071C33.4561 19.2252 34.1299 19.556 34.6675 20.0574L36.1343 18.1478" stroke="#263238" stroke-opacity="1.000000" stroke-width="1.000000"/>
	<path id="Vector" d="M42.5371 27.9522C43.519 27.3634 44.6787 27.1442 45.8076 27.3342C46.9365 27.5242 47.9604 28.1108 48.6958 28.9886" stroke="#263238" stroke-opacity="1.000000" stroke-width="1.000000"/>
	<path id="Vector" d="M61.1875 33.7743C62.2334 33.3075 63.3701 33.0779 64.5151 33.1021C65.6606 33.1262 66.7861 33.4035 67.8115 33.914" stroke="#263238" stroke-opacity="1.000000" stroke-width="1.000000"/>
	<path id="Vector" d="M19.6841 43.5438C20.3037 42.5074 21.2085 41.671 22.29 41.1343C23.3716 40.5975 24.5845 40.383 25.7842 40.5163" stroke="#263238" stroke-opacity="1.000000" stroke-width="1.000000"/>
	<path id="Vector" d="M11.873 54.6758C11.9106 53.9221 12.2046 53.204 12.7065 52.6406C13.2085 52.0771 13.8882 51.7024 14.6323 51.5784" stroke="#263238" stroke-opacity="1.000000" stroke-width="1.000000"/>
</svg>
