<svg width="94.811035" height="167.468994" viewBox="0 0 94.811 167.469" fill="none" xmlns="http://www.w3.org/2000/svg" xmlns:xlink="http://www.w3.org/1999/xlink">
	<desc>
			Created with Pixso.
	</desc>
	<defs/>
	<path id="Vector" d="M85.0083 110.179L85.1479 58.6996C85.7065 56.6269 86.1606 48.9882 87.3481 43.6668C89.374 34.7473 81.4106 23.988 80.8521 23.6387C78.6167 22.2414 73.8672 22.2647 73.8672 22.2647C73.8672 22.2647 69.2104 16.9549 65.0542 15.2781C62.1978 14.264 59.1543 13.8865 56.1362 14.1719C52.936 11.5288 49.3672 9.36727 45.5425 7.75593C44.0454 7.18992 42.4214 7.04697 40.8481 7.34273C39.2754 7.63848 37.814 8.36155 36.625 9.43271L31.3857 17.5837C30.6206 18.7403 30.2734 20.1239 30.4028 21.505C30.5317 22.886 31.1294 24.1812 32.0962 25.1757C34.5874 27.621 37.7773 26.4799 39.3838 26.4799C41.6074 26.4799 42.4458 23.9647 42.4458 23.9647C42.4458 23.9647 42.9927 37.0645 42.4458 38.7413C41.8755 40.4064 37.7075 44.3073 37.7075 44.3073L23.7373 25.8744C18.9414 19.366 14.7451 12.4365 11.1992 5.17091C10.7949 4.28486 10.2656 3.4614 9.62744 2.72562C7.18262 -0.0340652 1.95557 -0.849163 0.593262 4.27431C0.258301 5.91306 0.334473 7.60924 0.814453 9.21146C6.63525 26.4217 14.063 39.4283 20.8267 52.9822C24.8433 61.0284 23.353 60.9353 25.3555 64.5683C25.1226 64.7313 25.2393 65.034 24.9829 65.1854C24.0049 69.0979 23.3184 73.022 22.3286 76.9345C21.5088 72.0226 20.0078 67.249 17.8696 62.7518C18.4346 60.0267 18.6416 57.2397 18.4868 54.461C18.312 51.6534 17.061 49.0215 14.9941 47.1135C13.8369 46.1773 12.417 45.6239 10.9312 45.5299C9.86719 45.4603 8.81641 45.7944 7.98779 46.4656C7.15918 47.1368 6.61377 48.0958 6.46094 49.1513C6.22852 51.2808 5.83936 53.3902 5.29688 55.4624C4.40674 58.1679 3.33301 60.8095 2.0835 63.3689C2.0835 68.5739 5.29688 67.7238 7.63672 88.6136C9.45264 104.916 30.4082 115.64 41.8169 127.389L55.3286 167.31C72.3286 159.31 79.3286 155.31 93.8286 144.31L85.0083 110.179Z" fill="#FFFFFF" fill-opacity="1.000000" fill-rule="nonzero"/>
	<path id="Vector" d="M55.3286 167.31L41.9331 127.354C30.5244 115.605 9.56885 104.857 7.75293 88.5787C5.42432 67.6889 2.19971 68.539 2.19971 63.334C3.44922 60.7746 4.52295 58.133 5.41309 55.4275C5.95557 53.3553 6.34473 51.2459 6.57715 49.1164C6.72998 48.0609 7.27539 47.1019 8.104 46.4307C8.93262 45.7595 9.9834 45.4254 11.0474 45.495C12.5332 45.589 13.9531 46.1424 15.1104 47.0786C17.1772 48.9865 18.4282 51.6185 18.603 54.4261C18.7583 57.2048 18.5508 59.9918 17.9858 62.7169C20.124 67.2141 21.625 71.9877 22.4448 76.8996C23.4346 72.9871 24.1211 69.063 25.0991 65.1505C25.3555 64.9991 25.2388 64.6964 25.4717 64.5334C23.4692 60.9003 24.9595 61.0401 20.9429 52.9473C14.1792 39.3934 6.76318 26.3868 0.930664 9.17656C0.450684 7.57434 0.374512 5.87814 0.709473 4.23939C2.07178 -0.884083 7.29883 -0.0689697 9.74365 2.69072C10.3818 3.42649 10.9111 4.24996 11.3154 5.136C14.8613 12.4016 19.0576 19.3311 23.8535 25.8395L37.8237 44.2723C37.8237 44.2723 41.9917 40.3715 42.562 38.7064C43.1089 37.0296 42.562 23.9298 42.562 23.9298C42.562 23.9298 41.7236 26.445 39.5 26.445C37.8936 26.445 34.7036 27.6094 32.2124 25.1408C31.2363 24.1628 30.6226 22.8812 30.4722 21.5075C30.3218 20.1337 30.644 18.7497 31.3857 17.5837L36.5898 9.43274C37.7793 8.36158 39.2402 7.63851 40.8135 7.34275C42.3862 7.04699 44.0103 7.18995 45.5073 7.75596C49.332 9.3673 52.9014 11.5288 56.1016 14.172C59.1191 13.8865 62.1626 14.264 65.019 15.2782C69.21 16.9666 73.832 22.2647 73.832 22.2647C73.832 22.2647 78.5703 22.2647 80.8169 23.6387C81.376 23.9881 89.3389 34.7473 87.313 43.6668C86.1489 48.9883 85.6714 56.6269 85.1128 58.6996L84.9731 110.179L94.3286 144.31" stroke="#263238" stroke-opacity="1.000000" stroke-width="1.000000"/>
	<path id="Vector" d="M57.4175 15.9884C59.4673 23.5833 60.5317 31.4104 60.584 39.2769C60.5181 40.595 60.6592 41.9153 61.0029 43.1894C61.1836 43.8229 61.5234 44.3996 61.9902 44.8644C62.457 45.3291 63.0352 45.6665 63.6689 45.8443" stroke="#263238" stroke-opacity="1.000000" stroke-width="1.000000"/>
	<path id="Vector" d="M73.8794 23.6387C77.3721 30.928 73.7979 47.2067 74.0542 48.3595C74.1636 48.9387 74.396 49.4877 74.7354 49.9697C75.0747 50.4517 75.5132 50.8556 76.0215 51.1541" stroke="#263238" stroke-opacity="1.000000" stroke-width="1.000000"/>
	<path id="Vector" d="M43.8662 14.9871C43.459 17.3159 43.1211 19.9941 42.7021 22.3113C41.3472 21.1449 40.2378 19.7207 39.4385 18.1214C38.6387 16.5222 38.1655 14.7799 38.0454 12.9959" stroke="#263238" stroke-opacity="1.000000" stroke-width="1.000000"/>
	<path id="Vector" d="M21.5601 77.1208L19.0454 78.2269" stroke="#263238" stroke-opacity="1.000000" stroke-width="1.000000"/>
	<path id="Vector" d="M36.9155 57.3721L39.6978 62.3908" stroke="#263238" stroke-opacity="1.000000" stroke-width="1.000000"/>
	<path id="Vector" d="M42.271 39.0091L45.0415 35.0967" stroke="#263238" stroke-opacity="1.000000" stroke-width="1.000000"/>
	<path id="Vector" d="M81.2363 57.3721L80.3979 60.4462" stroke="#263238" stroke-opacity="1.000000" stroke-width="1.000000"/>
	<path id="Vector" d="M74.4604 49.0232C75.2363 46.4149 76.0552 43.8065 76.917 41.1982" stroke="#263238" stroke-opacity="1.000000" stroke-width="1.000000"/>
	<path id="Vector" d="M82.6099 35.1083C83.3467 34.7223 84.2061 34.644 85.0005 34.8907C85.7949 35.1373 86.459 35.6887 86.8477 36.4241" stroke="#263238" stroke-opacity="1.000000" stroke-width="1.000000"/>
	<path id="Vector" d="M65.9272 21.7407C66.8936 21.4694 67.9121 21.4445 68.8901 21.6682C69.8682 21.892 70.7749 22.3573 71.5269 23.0216" stroke="#263238" stroke-opacity="1.000000" stroke-width="1.000000"/>
	<path id="Vector" d="M14.0747 29.5074C14.978 28.5167 16.103 27.7534 17.3574 27.2799C18.6113 26.8064 19.96 26.636 21.2925 26.7826" stroke="#263238" stroke-opacity="1.000000" stroke-width="1.000000"/>
	<path id="Vector" d="M3.56201 7.54638C4.39453 6.94615 5.33691 6.51587 6.33594 6.28011C7.33447 6.04435 8.37012 6.00772 9.38281 6.17235" stroke="#263238" stroke-opacity="1.000000" stroke-width="1.000000"/>
	<path id="Vector" d="M5.77393 59.6544C4.4209 60.7211 3.26611 62.0179 2.36279 63.4854" stroke="#263238" stroke-opacity="1.000000" stroke-width="1.000000"/>
	<path id="Vector" d="M6.84521 54.3563C8.68457 53.0521 11.6182 55.9865 13.3066 54.4844C13.6055 54.147 13.8145 53.7397 13.9141 53.3C14.0142 52.8603 14.001 52.4026 13.877 51.9692C13.6284 51.1029 13.5142 50.2036 13.5391 49.3027" stroke="#263238" stroke-opacity="1.000000" stroke-width="1.000000"/>
	<path id="Vector" d="M58.7554 46.2868C60.9956 50.9379 61.4517 56.2498 60.0361 61.2147" stroke="#263238" stroke-opacity="1.000000" stroke-width="1.000000"/>
	<path id="Vector" d="M72.2837 53.4714C72.646 55.6728 72.2349 57.9317 71.1196 59.864" stroke="#263238" stroke-opacity="1.000000" stroke-width="1.000000"/>
</svg>
