<svg width="271" height="97" viewBox="0 0 271 97" fill="none" xmlns="http://www.w3.org/2000/svg">
<path d="M239.066 96.5291H32.3309C31.1667 96.5291 30.1189 96.0168 29.9094 95.3647L0.502157 1.91957C0.176186 0.87159 1.09589 0.0215607 2.56276 0.0215607H268.835C270.301 0.0215607 271.221 0.87159 270.883 1.91957L241.488 95.3647C241.267 96.0051 240.196 96.5291 239.066 96.5291Z" fill="#38BFF2"/>
<path d="M21.2357 6.14643C21.399 6.5358 21.4603 6.96045 21.4137 7.38014C21.3671 7.79983 21.2142 8.20067 20.9693 8.54468C20.7245 8.88869 20.3959 9.16449 20.0147 9.34593C19.6334 9.52737 19.2122 9.60845 18.7909 9.58149C17.7737 9.52223 16.7964 9.16495 15.9808 8.55414C15.1652 7.94333 14.5472 7.10599 14.204 6.14643C14.0319 5.75611 13.9629 5.32814 14.0035 4.90349C14.0442 4.47884 14.1931 4.07174 14.4362 3.72116C14.6792 3.37059 15.0081 3.08829 15.3914 2.90129C15.7748 2.71429 16.1997 2.62885 16.6255 2.65316C17.6554 2.70629 18.6457 3.06775 19.4677 3.69064C20.2897 4.31354 20.9057 5.16913 21.2357 6.14643Z" fill="white"/>
<path d="M30.6659 6.20466C30.8123 6.60341 30.8567 7.0324 30.7953 7.45269C30.7338 7.87298 30.5683 8.27125 30.3139 8.61134C30.0594 8.95143 29.7241 9.22257 29.3383 9.40012C28.9525 9.57768 28.5285 9.65603 28.1047 9.62807C27.1005 9.57801 26.1351 9.22379 25.3367 8.6124C24.5383 8.001 23.9446 7.1613 23.6343 6.20466C23.4803 5.80408 23.4289 5.37135 23.4848 4.94584C23.5407 4.52033 23.7021 4.11556 23.9544 3.76838C24.2066 3.4212 24.5417 3.14262 24.929 2.95801C25.3164 2.7734 25.7437 2.68862 26.1722 2.71139C27.1901 2.7585 28.1685 3.11957 28.9731 3.74502C29.7777 4.37048 30.369 5.22967 30.6659 6.20466Z" fill="white"/>
<path d="M40.2465 6.14644C40.377 6.55816 40.4047 6.99559 40.327 7.42047C40.2494 7.84535 40.0689 8.24473 39.8012 8.58367C39.5336 8.92262 39.187 9.19079 38.7917 9.36475C38.3965 9.53869 37.9646 9.61312 37.5339 9.5815C36.5389 9.53614 35.5829 9.18056 34.8001 8.56457C34.0172 7.94858 33.4466 7.10304 33.1683 6.14644C33.0311 5.73629 32.9963 5.29885 33.0667 4.87214C33.1371 4.44544 33.3107 4.04241 33.5723 3.69809C33.8339 3.35377 34.1757 3.07859 34.5679 2.89648C34.9601 2.71437 35.3908 2.63084 35.8226 2.65317C36.8373 2.68309 37.8153 3.03896 38.6121 3.66809C39.4088 4.29723 39.9819 5.16622 40.2465 6.14644Z" fill="white"/>
</svg>
