<svg width="255" height="84" viewBox="0 0 255 84" fill="none" xmlns="http://www.w3.org/2000/svg">
<path d="M228.994 82.3983H26.426C26.0462 82.4008 25.6759 82.2794 25.3713 82.0525C25.0666 81.8255 24.8443 81.5054 24.738 81.1407L0.802368 2.58854C0.713269 2.32084 0.689445 2.03571 0.732884 1.75694C0.776323 1.47816 0.885766 1.21381 1.05209 0.985922C1.21841 0.758039 1.43679 0.573229 1.68901 0.446898C1.94124 0.320568 2.22001 0.256382 2.50207 0.259689H252.894C253.176 0.256382 253.455 0.320568 253.707 0.446898C253.96 0.573229 254.178 0.758039 254.344 0.985922C254.511 1.21381 254.62 1.47816 254.664 1.75694C254.707 2.03571 254.683 2.32084 254.594 2.58854L230.682 81.1407C230.574 81.5044 230.351 81.8235 230.047 82.0501C229.742 82.2768 229.373 82.3989 228.994 82.3983Z" fill="#263238"/>
<path d="M228.675 83.1245H26.1068C25.727 83.127 25.3567 83.0056 25.0521 82.7787C24.7474 82.5517 24.5251 82.2316 24.4188 81.8669L0.483169 3.31477C0.394071 3.04707 0.370246 2.76195 0.413685 2.48317C0.457124 2.20439 0.566567 1.94004 0.732887 1.71216C0.899207 1.48427 1.11759 1.29946 1.36982 1.17313C1.62204 1.0468 1.90081 0.982616 2.18287 0.985922H252.575C252.857 0.982616 253.136 1.0468 253.388 1.17313C253.641 1.29946 253.859 1.48427 254.025 1.71216C254.191 1.94004 254.301 2.20439 254.344 2.48317C254.388 2.76195 254.364 3.04707 254.275 3.31477L230.363 81.8669C230.255 82.2307 230.032 82.5497 229.728 82.7763C229.423 83.003 229.054 83.1251 228.675 83.1245Z" fill="#263238"/>
</svg>
