<svg width="393" height="175" viewBox="0 0 393 175" fill="none" xmlns="http://www.w3.org/2000/svg">
<path d="M391.908 14.7266L1.3252 16.5664L7.2276 7.71679C8.62103 5.61149 10.5126 3.88287 12.7344 2.6844C14.9562 1.48592 17.4395 0.854671 19.9638 0.846684H373.363C375.65 0.845036 377.909 1.35682 379.972 2.34431C382.035 3.3318 383.85 4.76982 385.284 6.55237L391.908 14.7266Z" fill="white" stroke="#263238" stroke-linecap="round" stroke-linejoin="round"/>
<path d="M203.404 73.2856H182.006C160.049 73.2856 142.249 91.0891 142.249 113.051V134.453C142.249 156.415 160.049 174.218 182.006 174.218H203.404C225.361 174.218 243.16 156.415 243.16 134.453V113.051C243.16 91.0891 225.361 73.2856 203.404 73.2856Z" fill="#757575" stroke="#263238" stroke-linecap="round" stroke-linejoin="round"/>
<path d="M160.585 132.287V146.633C160.585 148.795 161.444 150.868 162.972 152.396C164.5 153.925 166.573 154.784 168.734 154.784H217.944C220.096 154.784 222.16 153.933 223.686 152.417C225.213 150.901 226.078 148.843 226.094 146.691C226.163 140.228 226.501 132.287 226.501 132.287H160.585Z" fill="#999999" stroke="#263238" stroke-linecap="round" stroke-linejoin="round"/>
<path d="M340.685 137.073H52.8987C51.4186 137.076 49.9717 136.634 48.7466 135.803C47.5215 134.972 46.5749 133.792 46.03 132.415L1.63978 18.4295C1.37044 17.7404 1.27352 16.9959 1.35744 16.2608C1.44135 15.5257 1.70357 14.8223 2.12129 14.2116C2.539 13.601 3.09955 13.1017 3.75417 12.7572C4.4088 12.4126 5.13768 12.2333 5.8774 12.2348H387.729C388.464 12.2427 389.186 12.4289 389.833 12.7774C390.48 13.1259 391.033 13.6263 391.444 14.2355C391.855 14.8448 392.112 15.5447 392.193 16.2752C392.274 17.0057 392.176 17.745 391.909 18.4295L347.518 132.38C346.981 133.758 346.042 134.942 344.824 135.779C343.605 136.615 342.163 137.066 340.685 137.073Z" fill="white" stroke="#263238" stroke-linecap="round" stroke-linejoin="round"/>
<path d="M342.826 127.14H50.0693L9.78857 19.4542H382.921L342.826 127.14Z" fill="white"/>
<path d="M226.163 136.922H160.899V141.393H226.163V136.922Z" fill="#263238"/>
</svg>
