<svg width="255" height="83" viewBox="0 0 255 83" fill="none" xmlns="http://www.w3.org/2000/svg">
<path d="M228.994 82.3983H26.4262C26.0463 82.4008 25.676 82.2794 25.3714 82.0525C25.0668 81.8255 24.8444 81.5054 24.7381 81.1407L0.802505 2.58854C0.713407 2.32084 0.689582 2.03571 0.733021 1.75694C0.77646 1.47816 0.885903 1.21381 1.05222 0.985922C1.21854 0.758039 1.43692 0.573229 1.68915 0.446898C1.94138 0.320568 2.22015 0.256382 2.50221 0.259689H252.895C253.177 0.256382 253.455 0.320568 253.708 0.446898C253.96 0.573229 254.178 0.758039 254.344 0.985922C254.511 1.21381 254.62 1.47816 254.664 1.75694C254.707 2.03571 254.683 2.32084 254.594 2.58854L230.682 81.1407C230.574 81.5044 230.351 81.8235 230.047 82.0501C229.743 82.2768 229.373 82.3989 228.994 82.3983Z" fill="#263238"/>
</svg>
