<svg width="57.402344" height="57.402100" viewBox="0 0 57.4023 57.4021" fill="none" xmlns="http://www.w3.org/2000/svg" xmlns:xlink="http://www.w3.org/1999/xlink">
	<desc>
			Created with Pixso.
	</desc>
	<defs/>
	<path id="Vector" d="M56.8042 11.4027L56.8042 54.1732C56.8042 55.6321 55.6265 56.8041 54.1675 56.8041L3.23486 56.8041C1.77588 56.8041 0.598145 55.6321 0.598145 54.1732L0.598145 11.4027L56.8042 11.4027Z" fill="#FFFFFF" fill-opacity="1.000000" fill-rule="nonzero"/>
	<path id="Vector" d="M56.8042 3.23486L56.8042 11.4027L0.598145 11.4027L0.598145 3.23486C0.598145 1.77588 1.77588 0.598022 3.23486 0.598022L54.1675 0.598022C55.6265 0.598022 56.8042 1.77588 56.8042 3.23486Z" fill="#38BFF2" fill-opacity="1.000000" fill-rule="nonzero"/>
	<path id="Vector" d="M7.81836 5.99756C7.81836 6.75867 7.20068 7.37659 6.43945 7.37659C5.67822 7.37659 5.06055 6.75879 5.06055 5.99756C5.06055 5.23633 5.67822 4.62415 6.43945 4.62415C7.20068 4.62415 7.81836 5.23645 7.81836 5.99756Z" fill="#D7E9FF" fill-opacity="1.000000" fill-rule="nonzero"/>
	<path id="Vector" d="M13.6494 5.99756C13.6494 6.75867 13.0317 7.37659 12.2705 7.37659C11.5093 7.37659 10.8916 6.75879 10.8916 5.99756C10.8916 5.23633 11.5093 4.62415 12.2705 4.62415C13.0317 4.62415 13.6494 5.23645 13.6494 5.99756Z" fill="#D7E9FF" fill-opacity="1.000000" fill-rule="nonzero"/>
	<path id="Vector" d="M19.48 5.99756C19.48 6.75867 18.8623 7.37659 18.1011 7.37659C17.3398 7.37659 16.7222 6.75879 16.7222 5.99756C16.7222 5.23633 17.3398 4.62415 18.1011 4.62415C18.8623 4.62415 19.48 5.23645 19.48 5.99756Z" fill="#D7E9FF" fill-opacity="1.000000" fill-rule="nonzero"/>
	<path id="Vector" d="M52.3418 5.9967C52.3418 6.7583 51.7192 7.37341 50.9575 7.37341L36.3628 7.37341C35.6016 7.37341 34.9863 6.7583 34.9863 5.9967C34.9863 5.23511 35.6016 4.62732 36.3628 4.62732L50.9575 4.62732C51.7192 4.62732 52.3418 5.23511 52.3418 5.9967Z" fill="#D7E9FF" fill-opacity="1.000000" fill-rule="nonzero"/>
	<path id="Vector" d="M54.167 0L3.23486 0C1.45117 0 0 1.45105 0 3.23499L0 54.1732C0 55.9536 1.45117 57.4021 3.23486 57.4021L54.167 57.4021C55.9512 57.4021 57.4023 55.9537 57.4023 54.1732C57.4023 47.7732 57.4023 10.8241 57.4023 3.23499C57.4023 1.45105 55.9512 0 54.167 0ZM1.1958 3.23499C1.1958 2.1106 2.11084 1.19592 3.23486 1.19592L54.167 1.19592C55.291 1.19592 56.2061 2.1106 56.2061 3.23499L56.2061 10.8047L1.1958 10.8047L1.1958 3.23499ZM56.2061 54.1732C56.2061 55.2941 55.291 56.2062 54.167 56.2062L3.23486 56.2062C2.11084 56.2062 1.1958 55.2941 1.1958 54.1732L1.1958 12.0006L56.2061 12.0006L56.2061 54.1732Z" fill="#1A2E35" fill-opacity="1.000000" fill-rule="nonzero"/>
	<path id="Vector" d="M7.79639 34.7131C8.95654 34.7131 9.90039 35.6466 9.90039 36.7937L9.90039 42.0101C9.90039 43.8293 11.3701 45.3096 13.1763 45.3096C13.5068 45.3096 13.7739 45.0419 13.7739 44.7117C13.7739 44.3815 13.5068 44.1138 13.1763 44.1138C12.0293 44.1138 11.0962 43.1702 11.0962 42.0101L11.0962 36.7937C11.0962 35.6786 10.5322 34.6919 9.67285 34.0997C10.5186 33.4989 11.0728 32.5149 11.0728 31.4137L11.0728 26.1969C11.0728 25.0369 12.0059 24.0933 13.1533 24.0933C13.4839 24.0933 13.7515 23.8256 13.7515 23.4954C13.7515 23.1652 13.4839 22.8975 13.1533 22.8975C11.3467 22.8975 9.87695 24.3777 9.87695 26.1969L9.87695 31.4137C9.87695 32.5553 8.93945 33.4989 7.78711 33.5173C7.00146 33.5298 7.01221 34.7131 7.79639 34.7131Z" fill="#1A2E35" fill-opacity="1.000000" fill-rule="nonzero"/>
	<path id="Vector" d="M46.3057 36.7937L46.3057 42.0101C46.3057 43.1702 45.3726 44.1138 44.2256 44.1138C43.8955 44.1138 43.6279 44.3815 43.6279 44.7117C43.6279 45.0419 43.8955 45.3096 44.2256 45.3096C46.0317 45.3096 47.5015 43.8293 47.5015 42.0101L47.5015 36.7937C47.5015 35.6466 48.4453 34.7131 49.6055 34.7131C50.3906 34.7131 50.3994 33.5298 49.6147 33.5172C48.4629 33.4989 47.5249 32.5553 47.5249 31.4136L47.5249 26.1968C47.5249 24.3776 46.0552 22.8973 44.2485 22.8973C43.918 22.8973 43.6509 23.165 43.6509 23.4952C43.6509 23.8254 43.918 24.0931 44.2485 24.0931C45.396 24.0931 46.3291 25.0367 46.3291 26.1968L46.3291 31.4136C46.3291 32.5149 46.8833 33.4988 47.7295 34.0996C46.8701 34.6919 46.3057 35.6786 46.3057 36.7937Z" fill="#1A2E35" fill-opacity="1.000000" fill-rule="nonzero"/>
	<path id="Vector" d="M24.6865 44.4985C24.9946 44.6182 25.3408 44.4644 25.46 44.1562L33.0581 24.4816C33.1772 24.1736 33.0234 23.8273 32.7158 23.7085C32.4092 23.5896 32.0615 23.7429 31.9424 24.0507L24.3447 43.7253C24.2256 44.0333 24.3789 44.3796 24.6865 44.4985Z" fill="#1A2E35" fill-opacity="1.000000" fill-rule="nonzero"/>
	<path id="Vector" d="M40.6997 34.1125L33.8066 38.7712C33.5327 38.9563 33.4604 39.328 33.646 39.6016C33.8311 39.877 34.2046 39.9457 34.4756 39.7622L42.1006 34.609C42.4531 34.3707 42.4492 33.8549 42.1016 33.6187L34.4766 28.4457C34.2046 28.2606 33.832 28.3315 33.6465 28.6049C33.4604 28.8781 33.5317 29.2501 33.8052 29.4354L40.6997 34.1125Z" fill="#1A2E35" fill-opacity="1.000000" fill-rule="nonzero"/>
	<path id="Vector" d="M15.2998 34.6074L22.8525 39.7606C23.1245 39.9465 23.4976 39.8763 23.6836 39.6035C23.8696 39.3308 23.7993 38.9587 23.5264 38.7726L16.6963 34.1125L23.5278 29.4337C23.7998 29.2472 23.8691 28.8749 23.6831 28.6025C23.4961 28.3301 23.1255 28.2606 22.8516 28.4469L15.2983 33.6199C15.1357 33.7314 15.0386 33.9165 15.0386 34.1139C15.0386 34.3112 15.1367 34.4962 15.2998 34.6074Z" fill="#1A2E35" fill-opacity="1.000000" fill-rule="nonzero"/>
	<path id="Vector" d="M6.43994 4.02612C5.3501 4.02612 4.46338 4.91052 4.46338 5.99744C4.46338 7.08765 5.35059 7.97437 6.43994 7.97437C7.53027 7.97437 8.41699 7.08765 8.41699 5.99744C8.41699 4.91052 7.52979 4.02612 6.43994 4.02612ZM6.43994 6.77856C6.00977 6.77856 5.65918 6.4281 5.65918 5.99756C5.65918 5.56982 6.00977 5.22217 6.43994 5.22217C6.87061 5.22217 7.22119 5.56995 7.22119 5.99756C7.22119 6.4281 6.87061 6.77856 6.43994 6.77856Z" fill="#1A2E35" fill-opacity="1.000000" fill-rule="nonzero"/>
	<path id="Vector" d="M12.2705 4.02612C11.1807 4.02612 10.2935 4.91052 10.2935 5.99744C10.2935 7.08765 11.1807 7.97437 12.2705 7.97437C13.3604 7.97437 14.2471 7.08765 14.2471 5.99744C14.2471 4.91052 13.3604 4.02612 12.2705 4.02612ZM12.2705 6.77856C11.8398 6.77856 11.4893 6.4281 11.4893 5.99756C11.4893 5.56982 11.8398 5.22217 12.2705 5.22217C12.7012 5.22217 13.0513 5.56995 13.0513 5.99756C13.0513 6.4281 12.7012 6.77856 12.2705 6.77856Z" fill="#1A2E35" fill-opacity="1.000000" fill-rule="nonzero"/>
	<path id="Vector" d="M18.1011 4.02612C17.0112 4.02612 16.124 4.91052 16.124 5.99744C16.124 7.08765 17.0112 7.97437 18.1011 7.97437C19.1909 7.97437 20.0776 7.08765 20.0776 5.99744C20.0776 4.91052 19.1909 4.02612 18.1011 4.02612ZM18.1011 6.77856C17.6704 6.77856 17.3198 6.4281 17.3198 5.99756C17.3198 5.56982 17.6704 5.22217 18.1011 5.22217C18.5317 5.22217 18.8818 5.56995 18.8818 5.99756C18.8818 6.4281 18.5317 6.77856 18.1011 6.77856Z" fill="#1A2E35" fill-opacity="1.000000" fill-rule="nonzero"/>
	<path id="Vector" d="M50.9575 4.02942L36.3628 4.02942C35.2739 4.02942 34.3882 4.91199 34.3882 5.9967C34.3882 7.08569 35.2739 7.97144 36.3628 7.97144L50.9575 7.97144C52.0503 7.97144 52.9395 7.08569 52.9395 5.9967C52.9395 4.91199 52.0503 4.02942 50.9575 4.02942ZM50.9575 6.77563L36.3628 6.77563C35.9331 6.77563 35.584 6.42615 35.584 5.9967C35.584 5.56421 35.9263 5.22534 36.3628 5.22534L50.9575 5.22534C51.3911 5.22534 51.7437 5.57129 51.7437 5.9967C51.7437 6.42615 51.3911 6.77563 50.9575 6.77563Z" fill="#1A2E35" fill-opacity="1.000000" fill-rule="nonzero"/>
</svg>
