<svg width="188.027344" height="298.205231" viewBox="0 0 188.027 298.205" fill="none" xmlns="http://www.w3.org/2000/svg" xmlns:xlink="http://www.w3.org/1999/xlink">
	<desc>
			Created with Pixso.
	</desc>
	<defs/>
	<path id="path126" d="M80.7334 218.558C90.5669 218.558 118.979 212.139 118.979 212.139L42.4878 212.139C42.4878 212.139 70.8994 218.558 80.7334 218.558Z" fill="#1A2E35" fill-opacity="1.000000" fill-rule="nonzero"/>
	<path id="path130" d="M118.979 212.139L42.4878 212.139C42.4878 212.139 70.8994 218.558 80.7334 218.558C90.5669 218.558 118.979 212.139 118.979 212.139Z" stroke="#1A2E35" stroke-opacity="1.000000" stroke-width="1.333333" stroke-linejoin="round"/>
	<path id="path132" d="M71.9683 227.362L89.4956 227.362L89.4956 215.348L71.9683 215.348L71.9683 227.362Z" fill="#868686" fill-opacity="1.000000" fill-rule="nonzero"/>
	<path id="path132" d="M89.4956 227.362L89.4956 215.348L71.9683 215.348L71.9683 227.362L89.4956 227.362Z" stroke="#1A2E35" stroke-opacity="1.000000" stroke-width="1.333333" stroke-linejoin="round"/>
	<path id="path134" d="M69.3765 279.025L92.0903 279.025L92.0903 227.362L69.3765 227.362L69.3765 279.025Z" fill="#9A9A9A" fill-opacity="1.000000" fill-rule="nonzero"/>
	<path id="path134" d="M92.0903 279.025L92.0903 227.362L69.3765 227.362L69.3765 279.025L92.0903 279.025Z" stroke="#1A2E35" stroke-opacity="1.000000" stroke-width="1.333333" stroke-linejoin="round"/>
	<path id="path138" d="M38.0713 196.816L52.832 196.816C51.1924 186.646 49.9819 176.283 49.2358 166.009L34.4741 166.009C35.2202 176.283 36.4316 186.646 38.0713 196.816Z" fill="#868686" fill-opacity="1.000000" fill-rule="nonzero"/>
	<path id="path142" d="M52.832 196.816C51.1924 186.646 49.9819 176.283 49.2358 166.009L34.4741 166.009C35.2202 176.283 36.4316 186.646 38.0713 196.816L52.832 196.816Z" stroke="#1A2E35" stroke-opacity="1.000000" stroke-width="1.333333" stroke-linejoin="round"/>
	<path id="path146" d="M15.6499 75.0233L79.2798 75.0233C86.7593 75.0233 91.6533 81.3375 90.2075 88.7807C86.1333 111.688 83.7256 134.335 82.9326 157.598C82.812 164.338 77.6826 169.545 70.9375 169.545L17.373 169.545C10.6279 169.545 4.55566 164.338 3.68994 157.598C1.10986 134.582 0.177734 111.939 0.898926 88.7807C1.25293 81.3375 8.16943 75.0233 15.6499 75.0233Z" fill="#868686" fill-opacity="1.000000" fill-rule="nonzero"/>
	<path id="path150" d="M79.2798 75.0233C86.7593 75.0233 91.6533 81.3375 90.2075 88.7807C86.1333 111.688 83.7256 134.335 82.9326 157.598C82.812 164.338 77.6826 169.545 70.9375 169.545L17.373 169.545C10.6279 169.545 4.55566 164.338 3.68994 157.598C1.10986 134.582 0.177734 111.939 0.898926 88.7807C1.25293 81.3375 8.16943 75.0233 15.6499 75.0233L79.2798 75.0233Z" stroke="#1A2E35" stroke-opacity="1.000000" stroke-width="1.333333" stroke-linejoin="round"/>
	<path id="path154" d="M12.1841 88.7807C11.4624 111.939 12.395 134.583 14.9756 157.598C15.8413 164.338 21.9131 169.546 28.6582 169.546L70.937 169.546C77.6831 169.546 82.8125 164.338 82.9321 157.598C83.7261 134.335 86.1338 111.688 90.208 88.7807C91.6538 81.3385 86.7598 75.0233 79.2803 75.0233L26.9351 75.0233C19.4536 75.0233 12.5381 81.3385 12.1841 88.7807Z" fill="#9A9A9A" fill-opacity="1.000000" fill-rule="nonzero"/>
	<path id="path158" d="M14.9756 157.598C15.8413 164.338 21.9131 169.546 28.6582 169.546L70.937 169.546C77.6831 169.546 82.8125 164.338 82.9321 157.598C83.7261 134.335 86.1338 111.688 90.208 88.7807C91.6538 81.3385 86.7598 75.0233 79.2803 75.0233L26.9351 75.0233C19.4536 75.0233 12.5381 81.3385 12.1841 88.7807C11.4624 111.939 12.395 134.583 14.9756 157.598Z" stroke="#1A2E35" stroke-opacity="1.000000" stroke-width="1.333333" stroke-linejoin="round"/>
	<path id="path162" d="M42.4873 288.298C42.4873 289.51 43.604 290.412 44.7886 290.154C51.7485 288.636 72.5977 284.244 80.7329 284.244C88.8672 284.244 109.717 288.636 116.677 290.154C117.862 290.412 118.978 289.51 118.978 288.298C118.978 285.948 117.342 283.92 115.045 283.427C106.896 281.676 88.3062 277.871 80.7329 277.871C73.1606 277.871 54.5688 281.676 46.4209 283.427C44.123 283.92 42.4873 285.948 42.4873 288.298Z" fill="#1A2E35" fill-opacity="1.000000" fill-rule="nonzero"/>
	<path id="path166" d="M44.7886 290.154C51.7485 288.636 72.5977 284.244 80.7329 284.244C88.8672 284.244 109.717 288.636 116.677 290.154C117.862 290.412 118.978 289.51 118.978 288.298C118.978 285.948 117.342 283.92 115.045 283.427C106.896 281.676 88.3062 277.871 80.7329 277.871C73.1606 277.871 54.5688 281.676 46.4209 283.427C44.123 283.92 42.4873 285.948 42.4873 288.298C42.4873 289.51 43.604 290.412 44.7886 290.154Z" stroke="#1A2E35" stroke-opacity="1.000000" stroke-width="1.333333" stroke-linejoin="round"/>
	<path id="path170" d="M118.979 294.539C120.937 294.539 122.522 292.954 122.522 290.996C122.522 289.04 120.937 287.453 118.979 287.453C117.022 287.453 115.437 289.04 115.437 290.996C115.437 292.954 117.022 294.539 118.979 294.539ZM118.979 284.455C122.592 284.455 125.52 287.384 125.52 290.996C125.52 294.609 122.592 297.539 118.979 297.539C115.366 297.539 112.438 294.609 112.438 290.996C112.438 287.384 115.366 284.455 118.979 284.455Z" fill="#868686" fill-opacity="1.000000" fill-rule="nonzero"/>
	<path id="path174" d="M122.522 290.996C122.522 289.04 120.937 287.453 118.979 287.453C117.022 287.453 115.437 289.04 115.437 290.996C115.437 292.954 117.022 294.539 118.979 294.539C120.937 294.539 122.522 292.954 122.522 290.996ZM125.52 290.996C125.52 294.609 122.592 297.539 118.979 297.539C115.366 297.539 112.438 294.609 112.438 290.996C112.438 287.384 115.366 284.455 118.979 284.455C122.592 284.455 125.52 287.384 125.52 290.996Z" stroke="#1A2E35" stroke-opacity="1.000000" stroke-width="1.333333" stroke-linejoin="round"/>
	<path id="path178" d="M80.7329 294.539C82.689 294.539 84.2744 292.954 84.2744 290.996C84.2744 289.04 82.689 287.453 80.7329 287.453C78.7764 287.453 77.1895 289.04 77.1895 290.996C77.1895 292.954 78.7764 294.539 80.7329 294.539ZM80.7329 284.455C84.3452 284.455 87.2739 287.384 87.2739 290.996C87.2739 294.609 84.3452 297.539 80.7329 297.539C77.1191 297.539 74.1914 294.609 74.1914 290.996C74.1914 287.384 77.1191 284.455 80.7329 284.455Z" fill="#868686" fill-opacity="1.000000" fill-rule="nonzero"/>
	<path id="path182" d="M84.2744 290.996C84.2744 289.04 82.689 287.453 80.7329 287.453C78.7764 287.453 77.1895 289.04 77.1895 290.996C77.1895 292.954 78.7764 294.539 80.7329 294.539C82.689 294.539 84.2744 292.954 84.2744 290.996ZM87.2739 290.996C87.2739 294.609 84.3452 297.539 80.7329 297.539C77.1191 297.539 74.1914 294.609 74.1914 290.996C74.1914 287.384 77.1191 284.455 80.7329 284.455C84.3452 284.455 87.2739 287.384 87.2739 290.996Z" stroke="#1A2E35" stroke-opacity="1.000000" stroke-width="1.333333" stroke-linejoin="round"/>
	<path id="path186" d="M43.2808 294.539C45.2383 294.539 46.8237 292.954 46.8237 290.996C46.8237 289.04 45.2383 287.453 43.2808 287.453C41.3242 287.453 39.7388 289.04 39.7388 290.996C39.7388 292.954 41.3242 294.539 43.2808 294.539ZM43.2808 284.455C46.8945 284.455 49.8232 287.384 49.8232 290.996C49.8232 294.609 46.8945 297.539 43.2808 297.539C39.6685 297.539 36.7397 294.609 36.7397 290.996C36.7397 287.384 39.6685 284.455 43.2808 284.455Z" fill="#868686" fill-opacity="1.000000" fill-rule="nonzero"/>
	<path id="path190" d="M46.8237 290.996C46.8237 289.04 45.2383 287.453 43.2808 287.453C41.3242 287.453 39.7388 289.04 39.7388 290.996C39.7388 292.954 41.3242 294.539 43.2808 294.539C45.2383 294.539 46.8237 292.954 46.8237 290.996ZM49.8232 290.996C49.8232 294.609 46.8945 297.539 43.2808 297.539C39.6685 297.539 36.7397 294.609 36.7397 290.996C36.7397 287.384 39.6685 284.455 43.2808 284.455C46.8945 284.455 49.8232 287.384 49.8232 290.996Z" stroke="#1A2E35" stroke-opacity="1.000000" stroke-width="1.333333" stroke-linejoin="round"/>
	<path id="path194" d="M61.3442 194.748C87.0869 195.545 112.212 194.434 137.783 191.368C142.99 190.669 147.199 194.232 147.199 199.456L147.199 200.705C147.199 205.931 142.99 210.838 137.783 211.539C112.212 214.603 87.0869 215.714 61.3442 214.918L61.3442 194.748Z" fill="#9A9A9A" fill-opacity="1.000000" fill-rule="nonzero"/>
	<path id="path198" d="M137.783 191.368C142.99 190.669 147.199 194.232 147.199 199.456L147.199 200.705C147.199 205.931 142.99 210.838 137.783 211.539C112.212 214.603 87.0869 215.714 61.3442 214.918L61.3442 194.748C87.0869 195.545 112.212 194.434 137.783 191.368Z" stroke="#1A2E35" stroke-opacity="1.000000" stroke-width="1.333333" stroke-linejoin="round"/>
	<path id="path202" d="M21.2534 211.205C37.0977 213.186 52.8042 214.505 68.7578 215.189C72.6465 215.298 75.8013 212.184 75.8013 208.305L75.8013 202.181C75.8013 198.302 72.6465 195.128 68.7578 195.019C52.8042 194.334 37.0977 193.016 21.2534 191.035C17.3906 190.493 14.2656 193.141 14.2656 197.019L14.2656 203.142C14.2656 207.022 17.3906 210.663 21.2534 211.205Z" fill="#868686" fill-opacity="1.000000" fill-rule="nonzero"/>
	<path id="path206" d="M68.7578 215.189C72.6465 215.298 75.8013 212.184 75.8013 208.305L75.8013 202.181C75.8013 198.302 72.6465 195.128 68.7578 195.019C52.8042 194.334 37.0977 193.016 21.2534 191.035C17.3906 190.493 14.2656 193.141 14.2656 197.019L14.2656 203.142C14.2656 207.022 17.3906 210.663 21.2534 211.205C37.0977 213.186 52.8042 214.505 68.7578 215.189Z" stroke="#1A2E35" stroke-opacity="1.000000" stroke-width="1.333333" stroke-linejoin="round"/>
	<path id="path210" d="M127.339 294.14C127.386 290.577 128.116 283.448 132.308 274.252L137.78 254.527L154.84 261.814L150.042 276.918C150.042 276.918 164.708 283.916 170.122 285.804C173.729 287.06 184.516 289.536 183.983 294.156C183.983 295.53 182.87 296.643 181.496 296.643L129.828 296.643C128.446 296.643 127.321 295.521 127.339 294.14Z" fill="#FFFFFF" fill-opacity="1.000000" fill-rule="nonzero"/>
	<path id="path214" d="M132.308 274.252L137.78 254.527L154.84 261.814L150.042 276.918C150.042 276.918 164.708 283.916 170.122 285.804C173.729 287.06 184.516 289.536 183.983 294.156C183.983 295.53 182.87 296.643 181.496 296.643L129.828 296.643C128.446 296.643 127.321 295.521 127.339 294.14C127.386 290.577 128.116 283.448 132.308 274.252Z" stroke="#1A2E35" stroke-opacity="1.000000" stroke-width="1.333333" stroke-linejoin="round"/>
	<path id="path218" d="M136.726 282.605C139.392 284.559 153.607 287.047 150.042 284.204C146.478 281.361 150.042 276.918 150.042 276.918C150.042 276.918 164.708 283.915 170.123 285.804C173.73 287.061 184.517 289.535 183.984 294.155C183.984 295.53 182.87 296.643 181.495 296.643L129.828 296.643C128.446 296.643 127.322 295.521 127.339 294.139C127.378 291.132 127.914 285.569 130.604 278.375C133.541 278.412 134.061 280.651 136.726 282.605Z" fill="#38BFF2" fill-opacity="1.000000" fill-rule="nonzero"/>
	<path id="path222" d="M150.042 284.204C146.478 281.361 150.042 276.918 150.042 276.918C150.042 276.918 164.708 283.915 170.123 285.804C173.73 287.061 184.517 289.535 183.984 294.155C183.984 295.53 182.87 296.643 181.495 296.643L129.828 296.643C128.446 296.643 127.322 295.521 127.339 294.139C127.378 291.132 127.914 285.569 130.604 278.375C133.541 278.412 134.061 280.651 136.726 282.605C139.392 284.559 153.607 287.047 150.042 284.204Z" stroke="#1A2E35" stroke-opacity="1.000000" stroke-width="1.333333" stroke-linejoin="round"/>
	<path id="path226" d="M114.998 296.643L77.1489 296.643C76.3662 296.643 75.6987 296.088 75.5508 295.321C74.9707 292.312 75.103 285.585 78.5171 276.651L78.853 258.515L98.2422 261.814L95.7822 277.274C95.7822 277.274 103.589 285.864 107.296 287.403C109.903 288.484 115.824 288.598 116.619 294.829C116.743 295.792 115.969 296.643 114.998 296.643Z" fill="#FFFFFF" fill-opacity="1.000000" fill-rule="nonzero"/>
	<path id="path230" d="M77.1489 296.643C76.3662 296.643 75.6987 296.088 75.5508 295.321C74.9707 292.312 75.103 285.585 78.5171 276.651L78.853 258.515L98.2422 261.814L95.7822 277.274C95.7822 277.274 103.589 285.864 107.296 287.403C109.903 288.484 115.824 288.598 116.619 294.829C116.743 295.792 115.969 296.643 114.998 296.643L77.1489 296.643Z" stroke="#1A2E35" stroke-opacity="1.000000" stroke-width="1.333333" stroke-linejoin="round"/>
	<path id="path234" d="M84.9062 282.673C88.9077 285.471 91.8569 285.804 89.9912 281.607C88.1255 277.412 95.7817 277.274 95.7817 277.274C95.7817 277.274 103.589 285.864 107.297 287.403C109.903 288.483 115.825 288.598 116.62 294.828C116.743 295.792 115.97 296.643 114.998 296.643L77.1494 296.643C76.3662 296.643 75.6987 296.089 75.5513 295.32C74.9712 292.311 75.1035 285.584 78.5176 276.651C81.438 277.363 80.9038 279.876 84.9062 282.673Z" fill="#38BFF2" fill-opacity="1.000000" fill-rule="nonzero"/>
	<path id="path238" d="M89.9912 281.607C88.1255 277.412 95.7817 277.274 95.7817 277.274C95.7817 277.274 103.589 285.864 107.297 287.403C109.903 288.483 115.825 288.598 116.62 294.828C116.743 295.792 115.97 296.643 114.998 296.643L77.1494 296.643C76.3662 296.643 75.6987 296.089 75.5513 295.32C74.9712 292.311 75.1035 285.584 78.5176 276.651C81.438 277.363 80.9038 279.876 84.9062 282.673C88.9077 285.471 91.8569 285.804 89.9912 281.607Z" stroke="#1A2E35" stroke-opacity="1.000000" stroke-width="1.333333" stroke-linejoin="round"/>
	<path id="path242" d="M118.767 158.212C118.767 158.212 122.578 162.122 138.176 164.61C153.774 167.097 186.117 174.917 185.761 187.712C185.406 200.506 155.552 268.744 155.552 268.744C155.552 268.744 140.625 265.9 133.694 261.636C133.694 261.636 145.709 212.945 154.718 200.15C154.718 200.15 114.275 195.175 91.9092 185.934C69.543 176.693 82.6929 155.663 82.6929 155.663L118.767 158.212Z" fill="#1A2E35" fill-opacity="1.000000" fill-rule="nonzero"/>
	<path id="path246" d="M138.176 164.61C153.774 167.097 186.117 174.917 185.761 187.712C185.406 200.506 155.552 268.744 155.552 268.744C155.552 268.744 140.625 265.9 133.694 261.636C133.694 261.636 145.709 212.945 154.718 200.15C154.718 200.15 114.275 195.175 91.9092 185.934C69.543 176.693 82.6929 155.663 82.6929 155.663L118.767 158.212C118.767 158.212 122.578 162.122 138.176 164.61Z" stroke="#1A2E35" stroke-opacity="1.000000" stroke-width="1.333333" stroke-linejoin="round"/>
	<path id="path250" d="M93.3564 156.416C93.3564 156.416 87.6191 166.031 91.9087 171.363C96.1982 176.694 120.528 186.646 117.782 198.729C115.035 210.813 105.951 227.872 100.026 268.388C100.026 268.388 86.2471 266.256 77.0063 262.347C77.0063 262.347 75.4751 221.12 86.1914 203.349C86.1914 203.349 55.5039 197.663 52.3945 187.356C49.2847 177.05 55.103 161.288 55.2148 155.664L93.3564 156.416Z" fill="#1A2E35" fill-opacity="1.000000" fill-rule="nonzero"/>
	<path id="path254" d="M91.9087 171.363C96.1982 176.694 120.528 186.646 117.782 198.729C115.035 210.813 105.951 227.872 100.026 268.388C100.026 268.388 86.2471 266.256 77.0063 262.347C77.0063 262.347 75.4751 221.12 86.1914 203.349C86.1914 203.349 55.5039 197.663 52.3945 187.356C49.2847 177.05 55.103 161.288 55.2148 155.664L93.3564 156.416C93.3564 156.416 87.6191 166.031 91.9087 171.363Z" stroke="#1A2E35" stroke-opacity="1.000000" stroke-width="1.333333" stroke-linejoin="round"/>
	<path id="path258" d="M111.845 171.684C112.524 171.639 113.232 171.646 113.969 171.718" stroke="#808080" stroke-opacity="1.000000" stroke-width="1.000000" stroke-linejoin="round" stroke-linecap="round"/>
	<path id="path262" d="M110.496 165.321C110.496 165.321 104.193 167.175 101.721 175.388C101.524 176.04 102.336 176.538 102.813 176.053C104.126 174.727 106.173 173.097 108.883 172.242" stroke="#808080" stroke-opacity="1.000000" stroke-width="1.000000" stroke-linejoin="round" stroke-linecap="round"/>
	<path id="path266" d="M157.683 199.706C157.683 196.24 172.61 194.375 168.611 191.177C164.613 187.978 155.55 198.374 155.55 198.374" stroke="#808080" stroke-opacity="1.000000" stroke-width="1.000000" stroke-linejoin="round" stroke-linecap="round"/>
	<path id="path270" d="M84.3369 213.567C84.3369 209.599 98.6021 207.436 97.8887 203.171C97.1763 198.907 88.1138 207.303 88.1138 207.303" stroke="#808080" stroke-opacity="1.000000" stroke-width="1.000000" stroke-linejoin="round" stroke-linecap="round"/>
	<path id="path274" d="M157.123 268.988L155.553 272.612C155.374 273.023 154.933 273.252 154.496 273.153C151.048 272.376 136.674 268.98 131.626 265.36C131.326 265.145 131.201 264.757 131.289 264.397L132.268 260.358C132.413 259.759 133.084 259.464 133.625 259.76C135.892 260.999 142.216 263.952 156.495 267.712C157.048 267.857 157.35 268.462 157.123 268.988Z" fill="#9A9A9A" fill-opacity="1.000000" fill-rule="nonzero"/>
	<path id="path278" d="M155.553 272.612C155.374 273.023 154.933 273.252 154.496 273.153C151.048 272.376 136.674 268.98 131.626 265.36C131.326 265.145 131.201 264.757 131.289 264.397L132.268 260.358C132.413 259.759 133.084 259.464 133.625 259.76C135.892 260.999 142.216 263.952 156.495 267.712C157.048 267.857 157.35 268.462 157.123 268.988L155.553 272.612Z" stroke="#1A2E35" stroke-opacity="1.000000" stroke-width="1.333333" stroke-linejoin="round"/>
	<path id="path282" d="M101.762 266.002C101.84 265.458 101.314 265.007 100.799 265.197C99.7764 265.577 98.0449 265.873 95.4434 265.278C91.4907 264.375 80.1729 260.793 76.8066 259.719C76.3301 259.568 75.8516 259.925 75.8516 260.425L75.8516 265.139C75.8516 265.431 76.0166 265.692 76.2832 265.811C78.9307 266.99 93.0967 273.058 100.511 271.404C100.806 271.338 101.024 271.085 101.067 270.784L101.762 266.002Z" fill="#9A9A9A" fill-opacity="1.000000" fill-rule="nonzero"/>
	<path id="path286" d="M100.799 265.197C99.7764 265.577 98.0449 265.873 95.4434 265.278C91.4907 264.375 80.1729 260.793 76.8066 259.719C76.3301 259.568 75.8516 259.925 75.8516 260.425L75.8516 265.139C75.8516 265.431 76.0166 265.692 76.2832 265.811C78.9307 266.99 93.0967 273.058 100.511 271.404C100.806 271.338 101.024 271.085 101.067 270.784L101.762 266.002C101.84 265.458 101.314 265.007 100.799 265.197Z" stroke="#1A2E35" stroke-opacity="1.000000" stroke-width="1.333333" stroke-linejoin="round"/>
	<path id="path290" d="M90.3599 167.313C90.4941 168.772 90.9526 170.174 91.9082 171.362C95.0376 175.251 108.828 181.597 114.997 189.437" stroke="#808080" stroke-opacity="1.000000" stroke-width="1.333333" stroke-linejoin="round" stroke-linecap="round"/>
	<path id="path294" d="M91.0244 161.89C90.7993 162.658 90.6084 163.467 90.4819 164.291" stroke="#808080" stroke-opacity="1.000000" stroke-width="1.333333" stroke-linejoin="round" stroke-linecap="round"/>
	<path id="path298" d="M172.681 288.203C172.681 288.203 171.614 289.89 170.815 293.267L132.308 293.267C132.308 293.267 132.206 290.686 130.165 288.869" stroke="#1A2E35" stroke-opacity="1.000000" stroke-width="1.333333" stroke-linejoin="round" stroke-linecap="round"/>
	<path id="path302" d="M105.776 288.203C105.776 288.203 100.445 288.602 98.4458 293.267L78.3208 293.267C78.3208 293.267 77.2544 290.868 77.2544 288.869" stroke="#1A2E35" stroke-opacity="1.000000" stroke-width="1.333333" stroke-linejoin="round" stroke-linecap="round"/>
	<path id="path306" d="M137.335 97.9102C136.84 99.7931 136.333 101.657 135.825 103.48C130.494 122.672 123.565 159.19 123.565 159.19C89.4458 166.387 53.4609 159.19 53.4609 159.19C53.2651 151.229 54.2344 140.728 55.3145 129.698C49.7188 128.15 45.6841 122.986 45.4644 114.409C45.1978 104.013 47.082 85.2957 48.1299 76.5581C49.0522 68.8685 48.3965 64.2966 60.3062 58.4697C66.2749 55.0237 76.1855 53.3945 88.3799 51.7685C112.37 48.5699 129.681 53.4169 135.825 56.0334C140.696 54.7507 142.051 60.4699 142.051 60.4699C144.75 58.426 147.882 67.0645 147.882 67.0645C155.773 77.1338 161.981 94.0888 164.044 100.136C164.496 101.461 165.341 102.605 166.454 103.453C172.051 107.722 168.94 112.998 168.94 112.998L157.478 116.511C157.478 116.511 151.925 117.956 147.683 110.654C144.133 104.544 138.334 94.188 137.335 97.9102Z" fill="#38BFF2" fill-opacity="1.000000" fill-rule="nonzero"/>
	<path id="path342" d="M135.826 103.48C130.495 122.672 123.565 159.19 123.565 159.19C89.4463 166.387 53.4614 159.19 53.4614 159.19C53.2656 151.229 54.2349 140.728 55.3149 129.698C49.7192 128.15 45.6846 122.986 45.4648 114.409C45.1982 104.013 47.0825 85.2957 48.1304 76.5581C49.0527 68.8685 48.397 64.2966 60.3066 58.4697C66.2754 55.0237 76.186 53.3945 88.3804 51.7685C112.37 48.5699 129.681 53.4169 135.826 56.0334C140.696 54.7507 142.052 60.4699 142.052 60.4699C144.75 58.426 147.883 67.0645 147.883 67.0645C155.774 77.1338 161.981 94.0888 164.044 100.136C164.497 101.461 165.342 102.605 166.454 103.453C172.052 107.722 168.94 112.998 168.94 112.998L157.479 116.511C157.479 116.511 151.926 117.956 147.683 110.654C144.134 104.544 138.335 94.188 137.335 97.9102C136.841 99.7931 136.333 101.657 135.826 103.48Z" stroke="#1A2E35" stroke-opacity="1.000000" stroke-width="1.333333" stroke-linejoin="round"/>
	<g opacity="0.300003">
		<g opacity="0.300003">
			<g opacity="0.300003">
				<path id="path352" d="M53.4624 159.19C53.3208 153.43 53.792 146.332 54.4702 138.675C53.3081 154.906 87.1177 159.986 88.1841 151.188C89.25 142.387 55.3154 129.699 73.7803 134.134C89.895 138.004 121.115 134.307 128.798 133.303C125.848 147.172 123.566 159.19 123.566 159.19C89.4473 166.387 53.4624 159.19 53.4624 159.19Z" fill="#000000" fill-opacity="1.000000" fill-rule="nonzero"/>
			</g>
		</g>
	</g>
	<g opacity="0.300003">
		<g opacity="0.300003">
			<g opacity="0.300003">
				<path id="path368" d="M68.9644 77.6243C68.9644 77.6243 73.7891 91.7517 73.7793 99.2152C73.7686 106.671 87.314 111.681 87.3374 111.691C80.085 110.212 73.0234 108.262 69.6489 107.288C68.4517 106.942 67.6689 105.806 67.7778 104.564C68.4429 96.9121 69.1636 86.6082 68.9634 77.6243L68.9644 77.6243Z" fill="#000000" fill-opacity="1.000000" fill-rule="nonzero"/>
			</g>
		</g>
	</g>
	<path id="path378" d="M141.803 74.0674C141.803 74.0674 141.965 84.2295 138.247 93.5696C137.902 94.4354 138.886 95.2254 139.644 94.6827C141.473 93.3734 144.059 90.7047 146.398 85.3288" stroke="#1A2E35" stroke-opacity="1.000000" stroke-width="1.000000" stroke-linejoin="round" stroke-linecap="round"/>
	<path id="path382" d="M51.3286 117.607C54.1411 108.28 59.0098 105.943 62.7827 105.708C63.3896 105.671 63.5913 104.877 63.0581 104.588C60.8682 103.402 56.5947 102.466 51.3286 108.278" stroke="#1A2E35" stroke-opacity="1.000000" stroke-width="1.000000" stroke-linejoin="round" stroke-linecap="round"/>
	<path id="path386" d="M105.415 90.9031C105.415 91.7881 106.133 92.5045 107.017 92.5045C107.901 92.5045 108.619 91.7881 108.619 90.9031C108.619 90.0181 107.901 89.3016 107.017 89.3016C106.133 89.3016 105.415 90.0181 105.415 90.9031Z" fill="#9A9A9A" fill-opacity="1.000000" fill-rule="nonzero"/>
	<path id="path390" d="M107.017 92.5045C107.901 92.5045 108.619 91.7881 108.619 90.9031C108.619 90.0181 107.901 89.3016 107.017 89.3016C106.133 89.3016 105.415 90.0181 105.415 90.9031C105.415 91.7881 106.133 92.5045 107.017 92.5045Z" stroke="#1A2E35" stroke-opacity="1.000000" stroke-width="1.000000" stroke-linejoin="round"/>
	<path id="path394" d="M103.244 109.052C103.244 109.937 103.962 110.653 104.847 110.653C105.732 110.653 106.448 109.937 106.448 109.052C106.448 108.167 105.732 107.449 104.847 107.449C103.962 107.449 103.244 108.167 103.244 109.052Z" fill="#9A9A9A" fill-opacity="1.000000" fill-rule="nonzero"/>
	<path id="path398" d="M104.847 110.653C105.732 110.653 106.448 109.937 106.448 109.052C106.448 108.167 105.732 107.449 104.847 107.449C103.962 107.449 103.244 108.167 103.244 109.052C103.244 109.937 103.962 110.653 104.847 110.653Z" stroke="#1A2E35" stroke-opacity="1.000000" stroke-width="1.000000" stroke-linejoin="round"/>
	<path id="path402" d="M97.8887 152.79C97.8887 153.674 98.6064 154.392 99.4912 154.392C100.375 154.392 101.093 153.674 101.093 152.79C101.093 151.905 100.375 151.188 99.4912 151.188C98.6064 151.188 97.8887 151.905 97.8887 152.79Z" fill="#9A9A9A" fill-opacity="1.000000" fill-rule="nonzero"/>
	<path id="path406" d="M99.4912 154.392C100.375 154.392 101.093 153.674 101.093 152.79C101.093 151.905 100.375 151.188 99.4912 151.188C98.6064 151.188 97.8887 151.905 97.8887 152.79C97.8887 153.674 98.6064 154.392 99.4912 154.392Z" stroke="#1A2E35" stroke-opacity="1.000000" stroke-width="1.333333" stroke-linejoin="round"/>
	<path id="path410" d="M128.505 120.939C128.505 120.939 133.742 125.935 131.251 126.013C128.762 126.091 125.611 122.671 122.723 122.272C119.833 121.872 124.498 120.106 124.498 120.106L128.505 120.939Z" fill="#FFFFFF" fill-opacity="1.000000" fill-rule="nonzero"/>
	<path id="path414" d="M131.251 126.013C128.762 126.091 125.611 122.671 122.723 122.272C119.833 121.872 124.498 120.106 124.498 120.106L128.505 120.939C128.505 120.939 133.742 125.935 131.251 126.013Z" stroke="#1A2E35" stroke-opacity="1.000000" stroke-width="1.333333" stroke-linejoin="round"/>
	<path id="path418" d="M97.936 115.328C98.4053 114.9 99.0405 114.699 99.6738 114.75C102.239 114.955 109.588 115.513 112.37 115.341C117.289 115.039 131.797 111.965 131.797 111.965C132.133 111.907 132.479 111.926 132.806 112.022L141.79 114.661C142.117 114.758 142.417 114.928 142.669 115.159L148.107 120.156C148.286 120.322 148.438 120.515 148.555 120.729L149.681 122.794C150.158 123.668 149.996 124.752 149.286 125.449L140.289 125.731C139.733 125.748 139.191 125.557 138.769 125.195L136.104 122.91C135.928 122.758 135.777 122.578 135.653 122.38C134.997 121.326 132.486 117.799 128.504 118.14C128.504 118.14 137.026 122.672 135.426 124.538C133.827 126.403 127.296 121.072 125.164 121.605C123.078 122.127 122.89 127.368 111.284 125.474C110.769 125.389 110.235 125.41 109.732 125.549L99.1782 128.501C97.856 128.871 96.4985 128.077 96.1587 126.748C95.3687 123.66 94.6479 118.325 97.936 115.328Z" fill="#FFFFFF" fill-opacity="1.000000" fill-rule="nonzero"/>
	<path id="path422" d="M99.6738 114.75C102.239 114.955 109.588 115.513 112.37 115.341C117.289 115.039 131.797 111.965 131.797 111.965C132.133 111.907 132.479 111.926 132.806 112.022L141.79 114.661C142.117 114.758 142.417 114.928 142.669 115.159L148.107 120.156C148.286 120.322 148.438 120.515 148.555 120.729L149.681 122.794C150.158 123.668 149.996 124.752 149.286 125.449L140.289 125.731C139.733 125.748 139.191 125.557 138.769 125.195L136.104 122.91C135.928 122.758 135.777 122.578 135.653 122.38C134.997 121.326 132.486 117.799 128.504 118.14C128.504 118.14 137.026 122.672 135.426 124.538C133.827 126.403 127.296 121.072 125.164 121.605C123.078 122.127 122.89 127.368 111.284 125.474C110.769 125.389 110.235 125.41 109.732 125.549L99.1782 128.501C97.856 128.871 96.4985 128.077 96.1587 126.748C95.3687 123.66 94.6479 118.325 97.936 115.328C98.4053 114.9 99.0405 114.699 99.6738 114.75Z" stroke="#1A2E35" stroke-opacity="1.000000" stroke-width="1.333333" stroke-linejoin="round"/>
	<path id="path426" d="M130.542 113.875L132.807 114.257C133.909 114.443 134.939 114.932 135.781 115.669L138.133 117.727C138.548 118.09 138.911 118.507 139.212 118.967L140.756 121.329C140.926 121.589 141.118 121.833 141.327 122.064C142.244 123.074 144.768 126.076 142.041 125.676M130.454 114.516L130.431 114.533C130.063 114.47 129.823 114.132 129.885 113.764C129.947 113.396 130.285 113.156 130.653 113.218L130.669 113.241L130.454 114.516ZM141.967 126.319L141.944 126.336C141.575 126.282 141.328 125.949 141.381 125.579C141.436 125.21 141.769 124.962 142.138 125.016L142.155 125.039L141.967 126.319Z" fill="#FFFFFF" fill-opacity="1.000000" fill-rule="nonzero"/>
	<path id="path426" d="M130.542 113.875L132.807 114.257C133.909 114.443 134.939 114.932 135.781 115.669L138.133 117.727C138.548 118.09 138.911 118.507 139.212 118.967L140.756 121.329C140.926 121.589 141.118 121.833 141.327 122.064C142.244 123.074 144.768 126.076 142.041 125.676" stroke="#1A2E35" stroke-opacity="1.000000" stroke-width="1.333333" stroke-linejoin="round" stroke-linecap="round"/>
	<path id="path430" d="M136.907 114.675L139.247 115.307C139.976 115.504 140.643 115.882 141.188 116.405L143.012 118.157C143.185 118.323 143.345 118.503 143.489 118.696L146.482 122.671C146.482 122.671 148.086 125.487 146.482 125.537M136.757 115.304L136.733 115.318C136.373 115.221 136.166 114.861 136.263 114.501C136.361 114.141 136.72 113.934 137.081 114.031L137.095 114.056L136.757 115.304ZM146.523 126.183L146.503 126.204C146.13 126.215 145.828 125.931 145.816 125.558C145.805 125.185 146.089 124.883 146.462 124.871L146.482 124.89L146.523 126.183Z" fill="#FFFFFF" fill-opacity="1.000000" fill-rule="nonzero"/>
	<path id="path430" d="M136.907 114.675L139.247 115.307C139.976 115.504 140.643 115.882 141.188 116.405L143.012 118.157C143.185 118.323 143.345 118.503 143.489 118.696L146.482 122.671C146.482 122.671 148.086 125.487 146.482 125.537" stroke="#1A2E35" stroke-opacity="1.000000" stroke-width="1.333333" stroke-linejoin="round" stroke-linecap="round"/>
	<path id="path434" d="M68.894 75.3623C69.2886 84.8324 68.4995 96.2623 67.7764 104.564C67.6689 105.805 68.4502 106.941 69.6479 107.287C74.3027 108.632 85.9756 111.839 95.4907 113.094" stroke="#1A2E35" stroke-opacity="1.000000" stroke-width="1.333333" stroke-linejoin="round" stroke-linecap="round"/>
	<path id="path438" d="M68.3633 68.7508C68.5029 69.8352 68.6167 70.975 68.7075 72.1606" stroke="#1A2E35" stroke-opacity="1.000000" stroke-width="1.000000" stroke-linejoin="round" stroke-linecap="round"/>
	<path id="path442" d="M64.7847 58.7655C66.0078 59.8168 66.9077 61.7658 67.5547 64.3301" stroke="#1A2E35" stroke-opacity="1.000000" stroke-width="1.000000" stroke-linejoin="round" stroke-linecap="round"/>
	<path id="path446" d="M118.17 52.4344C118.17 52.4344 117.504 50.3019 113.906 49.1024C110.307 47.9029 97.856 45.9816 91.4487 49.1024C85.04 52.2232 97.313 69.1612 97.313 69.1612L103.043 77.0235L108.107 80.8224L110.374 74.0679L113.306 71.026C113.306 71.026 119.637 65.8293 119.104 60.6975C118.57 55.5669 118.17 52.4344 118.17 52.4344Z" fill="#FFFFFF" fill-opacity="1.000000" fill-rule="nonzero"/>
	<path id="path450" d="M91.9995 51.7304C100.463 78.3016 107.927 79.4894 107.927 79.4894C110.414 69.7165 112.547 71.8488 115.923 65.7415C118.633 60.8423 117.716 54.6305 117.249 52.3669C117.135 51.8167 116.786 51.3391 116.285 51.0843C107.886 46.8087 97.6099 48.3814 93.3721 49.3175C92.2939 49.5553 91.665 50.6791 91.9995 51.7304ZM86.7144 51.9927C87.7144 48.4859 92.2886 47.5028 92.2886 47.5028C114.146 43.7711 118.767 51.7165 118.767 51.7165C123.209 64.1028 118.767 74.0677 118.767 74.0677C118.767 74.0677 112.547 71.4928 111.48 74.0677C110.414 76.6415 108.46 82.1549 108.46 82.1549C108.46 82.1549 104.195 80.0225 100.818 75.5807C97.4429 71.1377 89.5015 75.5807 89.5015 75.5807C84.4048 66.6948 86.7144 51.9927 86.7144 51.9927Z" fill="#38BFF2" fill-opacity="1.000000" fill-rule="nonzero"/>
	<g opacity="0.399994">
		<g opacity="0.399994">
			<g opacity="0.399994">
				<path id="path468" d="M91.9995 51.7306C100.463 78.3018 107.927 79.4896 107.927 79.4896C110.414 69.7166 112.547 71.849 115.923 65.7417C118.633 60.8425 117.716 54.6307 117.249 52.3671C117.135 51.8169 116.786 51.3393 116.285 51.0844C107.886 46.8089 97.6099 48.3816 93.3721 49.3177C92.2939 49.5555 91.665 50.6793 91.9995 51.7306ZM86.7144 51.9929C87.7144 48.4861 92.2886 47.503 92.2886 47.503C114.146 43.7713 118.767 51.7167 118.767 51.7167C123.209 64.103 118.767 74.0678 118.767 74.0678C118.767 74.0678 112.547 71.493 111.48 74.0678C110.414 76.6417 108.46 82.1551 108.46 82.1551C108.46 82.1551 104.195 80.0227 100.818 75.5808C97.4429 71.1379 89.5015 75.5808 89.5015 75.5808C84.4048 66.695 86.7144 51.9929 86.7144 51.9929Z" fill="#FFFFFF" fill-opacity="1.000000" fill-rule="nonzero"/>
			</g>
		</g>
	</g>
	<path id="path342" d="M135.826 103.48C130.495 122.672 123.565 159.19 123.565 159.19C89.4463 166.387 53.4614 159.19 53.4614 159.19C53.2656 151.229 54.2349 140.728 55.3149 129.698C49.7192 128.15 45.6846 122.986 45.4648 114.409C45.1982 104.013 47.0825 85.2957 48.1304 76.5581C49.0527 68.8685 48.397 64.2966 60.3066 58.4697C66.2754 55.0237 76.186 53.3945 88.3804 51.7685C112.37 48.5699 129.681 53.4169 135.826 56.0334C140.696 54.7507 142.052 60.4699 142.052 60.4699C144.75 58.426 147.883 67.0645 147.883 67.0645C155.774 77.1338 161.981 94.0888 164.044 100.136C164.497 101.461 165.342 102.605 166.454 103.453C172.052 107.722 168.94 112.998 168.94 112.998L157.479 116.511C157.479 116.511 151.926 117.956 147.683 110.654C144.134 104.544 138.335 94.188 137.335 97.9102C136.841 99.7931 136.333 101.657 135.826 103.48Z" stroke="#1A2E35" stroke-opacity="1.000000" stroke-width="1.333333" stroke-linejoin="round"/>
	<g opacity="0.300003">
		<g opacity="0.300003">
			<g opacity="0.300003">
				<path id="path352" d="M53.4624 159.19C53.3208 153.43 53.792 146.332 54.4702 138.675C53.3081 154.906 87.1177 159.986 88.1841 151.188C89.25 142.387 55.3154 129.699 73.7803 134.134C89.895 138.004 121.115 134.307 128.798 133.303C125.848 147.172 123.566 159.19 123.566 159.19C89.4473 166.387 53.4624 159.19 53.4624 159.19Z" fill="#000000" fill-opacity="1.000000" fill-rule="nonzero"/>
			</g>
		</g>
	</g>
	<g opacity="0.300003">
		<g opacity="0.300003">
			<g opacity="0.300003">
				<path id="path368" d="M68.9644 77.6243C68.9644 77.6243 73.7891 91.7517 73.7793 99.2152C73.7686 106.671 87.314 111.681 87.3374 111.691C80.085 110.212 73.0234 108.262 69.6489 107.288C68.4517 106.942 67.6689 105.806 67.7778 104.564C68.4429 96.9121 69.1636 86.6082 68.9634 77.6243L68.9644 77.6243Z" fill="#000000" fill-opacity="1.000000" fill-rule="nonzero"/>
			</g>
		</g>
	</g>
	<path id="path378" d="M141.803 74.0674C141.803 74.0674 141.965 84.2295 138.247 93.5696C137.902 94.4354 138.886 95.2254 139.644 94.6827C141.473 93.3734 144.059 90.7047 146.398 85.3288" stroke="#1A2E35" stroke-opacity="1.000000" stroke-width="1.000000" stroke-linejoin="round"/>
	<path id="path382" d="M51.3286 117.607C54.1411 108.28 59.0098 105.943 62.7827 105.708C63.3896 105.671 63.5913 104.877 63.0581 104.588C60.8682 103.402 56.5947 102.466 51.3286 108.278" stroke="#1A2E35" stroke-opacity="1.000000" stroke-width="1.000000" stroke-linejoin="round"/>
	<path id="path386" d="M105.415 90.9031C105.415 91.7881 106.133 92.5045 107.017 92.5045C107.901 92.5045 108.619 91.7881 108.619 90.9031C108.619 90.0181 107.901 89.3016 107.017 89.3016C106.133 89.3016 105.415 90.0181 105.415 90.9031Z" fill="#9A9A9A" fill-opacity="1.000000" fill-rule="nonzero"/>
	<path id="path390" d="M107.017 92.5045C107.901 92.5045 108.619 91.7881 108.619 90.9031C108.619 90.0181 107.901 89.3016 107.017 89.3016C106.133 89.3016 105.415 90.0181 105.415 90.9031C105.415 91.7881 106.133 92.5045 107.017 92.5045Z" stroke="#1A2E35" stroke-opacity="1.000000" stroke-width="1.000000" stroke-linejoin="round"/>
	<path id="path394" d="M103.244 109.052C103.244 109.937 103.962 110.653 104.847 110.653C105.732 110.653 106.448 109.937 106.448 109.052C106.448 108.167 105.732 107.449 104.847 107.449C103.962 107.449 103.244 108.167 103.244 109.052Z" fill="#9A9A9A" fill-opacity="1.000000" fill-rule="nonzero"/>
	<path id="path398" d="M104.847 110.653C105.732 110.653 106.448 109.937 106.448 109.052C106.448 108.167 105.732 107.449 104.847 107.449C103.962 107.449 103.244 108.167 103.244 109.052C103.244 109.937 103.962 110.653 104.847 110.653Z" stroke="#1A2E35" stroke-opacity="1.000000" stroke-width="1.000000" stroke-linejoin="round"/>
	<path id="path402" d="M97.8887 152.79C97.8887 153.674 98.6064 154.392 99.4912 154.392C100.375 154.392 101.093 153.674 101.093 152.79C101.093 151.905 100.375 151.188 99.4912 151.188C98.6064 151.188 97.8887 151.905 97.8887 152.79Z" fill="#9A9A9A" fill-opacity="1.000000" fill-rule="nonzero"/>
	<path id="path406" d="M99.4912 154.392C100.375 154.392 101.093 153.674 101.093 152.79C101.093 151.905 100.375 151.188 99.4912 151.188C98.6064 151.188 97.8887 151.905 97.8887 152.79C97.8887 153.674 98.6064 154.392 99.4912 154.392Z" stroke="#1A2E35" stroke-opacity="1.000000" stroke-width="1.333333" stroke-linejoin="round"/>
	<path id="path410" d="M128.505 120.939C128.505 120.939 133.742 125.935 131.251 126.013C128.762 126.091 125.611 122.671 122.723 122.272C119.833 121.872 124.498 120.106 124.498 120.106L128.505 120.939Z" fill="#FFFFFF" fill-opacity="1.000000" fill-rule="nonzero"/>
	<path id="path414" d="M131.251 126.013C128.762 126.091 125.611 122.671 122.723 122.272C119.833 121.872 124.498 120.106 124.498 120.106L128.505 120.939C128.505 120.939 133.742 125.935 131.251 126.013Z" stroke="#1A2E35" stroke-opacity="1.000000" stroke-width="1.333333" stroke-linejoin="round"/>
	<path id="path418" d="M97.936 115.328C98.4053 114.9 99.0405 114.699 99.6738 114.75C102.239 114.955 109.588 115.513 112.37 115.341C117.289 115.039 131.797 111.965 131.797 111.965C132.133 111.907 132.479 111.926 132.806 112.022L141.79 114.661C142.117 114.758 142.417 114.928 142.669 115.159L148.107 120.156C148.286 120.322 148.438 120.515 148.555 120.729L149.681 122.794C150.158 123.668 149.996 124.752 149.286 125.449L140.289 125.731C139.733 125.748 139.191 125.557 138.769 125.195L136.104 122.91C135.928 122.758 135.777 122.578 135.653 122.38C134.997 121.326 132.486 117.799 128.504 118.14C128.504 118.14 137.026 122.672 135.426 124.538C133.827 126.403 127.296 121.072 125.164 121.605C123.078 122.127 122.89 127.368 111.284 125.474C110.769 125.389 110.235 125.41 109.732 125.549L99.1782 128.501C97.856 128.871 96.4985 128.077 96.1587 126.748C95.3687 123.66 94.6479 118.325 97.936 115.328Z" fill="#FFFFFF" fill-opacity="1.000000" fill-rule="nonzero"/>
	<path id="path422" d="M99.6738 114.75C102.239 114.955 109.588 115.513 112.37 115.341C117.289 115.039 131.797 111.965 131.797 111.965C132.133 111.907 132.479 111.926 132.806 112.022L141.79 114.661C142.117 114.758 142.417 114.928 142.669 115.159L148.107 120.156C148.286 120.322 148.438 120.515 148.555 120.729L149.681 122.794C150.158 123.668 149.996 124.752 149.286 125.449L140.289 125.731C139.733 125.748 139.191 125.557 138.769 125.195L136.104 122.91C135.928 122.758 135.777 122.578 135.653 122.38C134.997 121.326 132.486 117.799 128.504 118.14C128.504 118.14 137.026 122.672 135.426 124.538C133.827 126.403 127.296 121.072 125.164 121.605C123.078 122.127 122.89 127.368 111.284 125.474C110.769 125.389 110.235 125.41 109.732 125.549L99.1782 128.501C97.856 128.871 96.4985 128.077 96.1587 126.748C95.3687 123.66 94.6479 118.325 97.936 115.328C98.4053 114.9 99.0405 114.699 99.6738 114.75Z" stroke="#1A2E35" stroke-opacity="1.000000" stroke-width="1.333333" stroke-linejoin="round"/>
	<path id="path426" d="M130.542 113.875L132.807 114.257C133.909 114.443 134.939 114.932 135.781 115.669L138.133 117.727C138.548 118.09 138.911 118.507 139.212 118.967L140.756 121.329C140.926 121.589 141.118 121.833 141.327 122.064C142.244 123.074 144.768 126.076 142.041 125.676M130.454 114.516L130.431 114.533C130.063 114.47 129.823 114.132 129.885 113.764C129.947 113.396 130.285 113.156 130.653 113.218L130.669 113.241L130.454 114.516ZM141.967 126.319L141.944 126.336C141.575 126.282 141.328 125.949 141.381 125.579C141.436 125.21 141.769 124.962 142.138 125.016L142.155 125.039L141.967 126.319Z" fill="#FFFFFF" fill-opacity="1.000000" fill-rule="nonzero"/>
	<path id="path426" d="M130.542 113.875L132.807 114.257C133.909 114.443 134.939 114.932 135.781 115.669L138.133 117.727C138.548 118.09 138.911 118.507 139.212 118.967L140.756 121.329C140.926 121.589 141.118 121.833 141.327 122.064C142.244 123.074 144.768 126.076 142.041 125.676" stroke="#1A2E35" stroke-opacity="1.000000" stroke-width="1.333333" stroke-linejoin="round"/>
	<path id="path430" d="M136.907 114.675L139.247 115.307C139.976 115.504 140.643 115.882 141.188 116.405L143.012 118.157C143.185 118.323 143.345 118.503 143.489 118.696L146.482 122.671C146.482 122.671 148.086 125.487 146.482 125.537M136.757 115.304L136.733 115.318C136.373 115.221 136.166 114.861 136.263 114.501C136.361 114.141 136.72 113.934 137.081 114.031L137.095 114.056L136.757 115.304ZM146.523 126.183L146.503 126.204C146.13 126.215 145.828 125.931 145.816 125.558C145.805 125.185 146.089 124.883 146.462 124.871L146.482 124.89L146.523 126.183Z" fill="#FFFFFF" fill-opacity="1.000000" fill-rule="nonzero"/>
	<path id="path430" d="M136.907 114.675L139.247 115.307C139.976 115.504 140.643 115.882 141.188 116.405L143.012 118.157C143.185 118.323 143.345 118.503 143.489 118.696L146.482 122.671C146.482 122.671 148.086 125.487 146.482 125.537" stroke="#1A2E35" stroke-opacity="1.000000" stroke-width="1.333333" stroke-linejoin="round"/>
	<path id="path434" d="M68.894 75.3623C69.2886 84.8324 68.4995 96.2623 67.7764 104.564C67.6689 105.805 68.4502 106.941 69.6479 107.287C74.3027 108.632 85.9756 111.839 95.4907 113.094" stroke="#1A2E35" stroke-opacity="1.000000" stroke-width="1.333333" stroke-linejoin="round"/>
	<path id="path438" d="M68.3633 68.7508C68.5029 69.8352 68.6167 70.975 68.7075 72.1606" stroke="#1A2E35" stroke-opacity="1.000000" stroke-width="1.000000" stroke-linejoin="round"/>
	<path id="path442" d="M64.7847 58.7655C66.0078 59.8168 66.9077 61.7658 67.5547 64.3301" stroke="#1A2E35" stroke-opacity="1.000000" stroke-width="1.000000" stroke-linejoin="round"/>
	<path id="path446" d="M118.17 52.4344C118.17 52.4344 117.504 50.3019 113.906 49.1024C110.307 47.9029 97.856 45.9816 91.4487 49.1024C85.04 52.2232 97.313 69.1612 97.313 69.1612L103.043 77.0235L108.107 80.8224L110.374 74.0679L113.306 71.026C113.306 71.026 119.637 65.8293 119.104 60.6975C118.57 55.5669 118.17 52.4344 118.17 52.4344Z" fill="#FFFFFF" fill-opacity="1.000000" fill-rule="nonzero"/>
	<path id="path450" d="M91.9995 51.7304C100.463 78.3016 107.927 79.4894 107.927 79.4894C110.414 69.7165 112.547 71.8488 115.923 65.7415C118.633 60.8423 117.716 54.6305 117.249 52.3669C117.135 51.8167 116.786 51.3391 116.285 51.0843C107.886 46.8087 97.6099 48.3814 93.3721 49.3175C92.2939 49.5553 91.665 50.6791 91.9995 51.7304ZM86.7144 51.9927C87.7144 48.4859 92.2886 47.5028 92.2886 47.5028C114.146 43.7711 118.767 51.7165 118.767 51.7165C123.209 64.1028 118.767 74.0677 118.767 74.0677C118.767 74.0677 112.547 71.4928 111.48 74.0677C110.414 76.6415 108.46 82.1549 108.46 82.1549C108.46 82.1549 104.195 80.0225 100.818 75.5807C97.4429 71.1377 89.5015 75.5807 89.5015 75.5807C84.4048 66.6948 86.7144 51.9927 86.7144 51.9927Z" fill="#38BFF2" fill-opacity="1.000000" fill-rule="nonzero"/>
	<path id="path486" d="M107.926 79.4894C110.413 69.7165 112.546 71.8488 115.922 65.7415C118.632 60.8423 117.715 54.6305 117.248 52.3669C117.134 51.8167 116.785 51.3391 116.284 51.0843C107.885 46.8087 97.6089 48.3814 93.3711 49.3175C92.293 49.5553 91.6641 50.6791 91.9985 51.7304C100.462 78.3016 107.926 79.4894 107.926 79.4894ZM92.2876 47.5028C114.145 43.7711 118.766 51.7165 118.766 51.7165C123.208 64.1028 118.766 74.0677 118.766 74.0677C118.766 74.0677 112.546 71.4928 111.479 74.0677C110.413 76.6415 108.459 82.1549 108.459 82.1549C108.459 82.1549 104.194 80.0225 100.817 75.5807C97.4419 71.1377 89.5005 75.5807 89.5005 75.5807C84.4038 66.6948 86.7134 51.9927 86.7134 51.9927C87.7134 48.4859 92.2876 47.5028 92.2876 47.5028Z" stroke="#1A2E35" stroke-opacity="1.000000" stroke-width="1.333333" stroke-linejoin="round"/>
	<path id="path490" d="M122.398 11.3892C122.398 11.3892 141.233 15.1615 130.86 27.4134C119.355 41.0013 122.398 11.3892 122.398 11.3892Z" fill="#1A2E35" fill-opacity="1.000000" fill-rule="nonzero"/>
	<path id="path494" d="M130.86 27.4134C119.355 41.0013 122.398 11.3892 122.398 11.3892C122.398 11.3892 141.233 15.1615 130.86 27.4134Z" stroke="#1A2E35" stroke-opacity="1.000000" stroke-width="1.333333" stroke-linejoin="round"/>
	<path id="path498" d="M129.826 41.2832C129.826 41.2832 134.304 23.1575 125.774 14.4497C117.245 5.74295 108.004 3.96558 101.073 8.23044C94.1431 12.4953 91.3003 23.1575 92.3667 28.6667C93.4331 34.1747 92.9126 53.8997 102.414 62.0744C111.914 70.2492 117.761 68.234 124.043 57.0984C128.171 49.782 130.146 47.6805 129.826 41.2832Z" fill="#FFFFFF" fill-opacity="1.000000" fill-rule="nonzero"/>
	<path id="path502" d="M125.774 14.4497C117.245 5.74295 108.004 3.96558 101.073 8.23044C94.1431 12.4953 91.3003 23.1575 92.3667 28.6667C93.4331 34.1747 92.9126 53.8997 102.414 62.0744C111.914 70.2492 117.761 68.234 124.043 57.0984C128.171 49.782 130.146 47.6805 129.826 41.2832C129.826 41.2832 134.304 23.1575 125.774 14.4497Z" stroke="#1A2E35" stroke-opacity="1.000000" stroke-width="1.333333" stroke-linejoin="round"/>
	<path id="path506" d="M96.8125 37.7296C96.8125 37.7296 103.973 30.6212 106.167 22.2695C108.359 13.9178 109.603 12.4955 117.777 16.5833C125.952 20.6702 138.706 15.1685 135.37 4.85495C131.863 -5.98529 121.154 8.05362 110.847 4.49884C100.54 0.945129 93.23 7.34244 93.2139 16.7603C93.2139 16.7603 86.9849 22.8026 93.23 38.4408L96.8125 37.7296Z" fill="#1A2E35" fill-opacity="1.000000" fill-rule="nonzero"/>
	<path id="path510" d="M106.167 22.2695C108.359 13.9178 109.603 12.4955 117.777 16.5833C125.952 20.6702 138.706 15.1685 135.37 4.85495C131.863 -5.98529 121.154 8.05362 110.847 4.49884C100.54 0.945129 93.23 7.34244 93.2139 16.7603C93.2139 16.7603 86.9849 22.8026 93.23 38.4408L96.8125 37.7296C96.8125 37.7296 103.973 30.6212 106.167 22.2695Z" stroke="#1A2E35" stroke-opacity="1.000000" stroke-width="1.333333" stroke-linejoin="round"/>
	<path id="path514" d="M99.0591 36.5374C99.0591 36.5374 97.2476 26.6013 92.2075 27.5225C87.1685 28.4448 90.7715 43.1053 96.6997 41.506M99.6919 36.4017L99.7148 36.4178C99.7817 36.7851 99.5459 37.1263 99.1787 37.1932C98.8115 37.2602 98.4702 37.0243 98.4033 36.657L98.4194 36.6337L99.6919 36.4017ZM96.5117 40.8868L96.5259 40.8623C96.8862 40.765 97.2461 40.9719 97.3433 41.3323C97.4404 41.6928 97.2334 42.0524 96.873 42.1496L96.8486 42.1355L96.5117 40.8868Z" fill="#FFFFFF" fill-opacity="1.000000" fill-rule="nonzero"/>
	<path id="path514" d="M99.0591 36.5374C99.0591 36.5374 97.2476 26.6013 92.2075 27.5225C87.1685 28.4448 90.7715 43.1053 96.6997 41.506" stroke="#1A2E35" stroke-opacity="1.000000" stroke-width="1.333333" stroke-linejoin="round" stroke-linecap="round"/>
	<path id="path518" d="M123.021 39.9062C123.021 39.9062 124.995 49.1269 124.353 50.7124C123.71 52.2978 117.605 51.0844 117.605 51.0844M122.392 40.0612L122.369 40.0459C122.29 39.6808 122.516 39.3326 122.881 39.2544C123.246 39.1762 123.594 39.4016 123.672 39.7666L123.657 39.7904L122.392 40.0612ZM117.499 51.7226L117.475 51.7384C117.109 51.6656 116.878 51.3207 116.951 50.9545C117.024 50.5883 117.369 50.3578 117.735 50.4306L117.75 50.4541L117.499 51.7226Z" fill="#FFFFFF" fill-opacity="1.000000" fill-rule="nonzero"/>
	<path id="path518" d="M123.021 39.9062C123.021 39.9062 124.995 49.1269 124.353 50.7124C123.71 52.2978 117.605 51.0844 117.605 51.0844" stroke="#1A2E35" stroke-opacity="1.000000" stroke-width="1.333333" stroke-linejoin="round" stroke-linecap="round"/>
	<path id="path522" d="M116.756 55.0998C116.756 55.0998 111.975 56.9881 107.768 50.7124M116.5 54.5058L116.511 54.4798C116.858 54.3426 117.239 54.5077 117.376 54.8549C117.513 55.2022 117.348 55.5827 117.001 55.7199L116.975 55.7086L116.5 54.5058ZM107.242 51.0891L107.214 51.0836C107.006 50.7735 107.086 50.3665 107.396 50.1586C107.707 49.9507 108.113 50.031 108.321 50.3412L108.316 50.3689L107.242 51.0891Z" fill="#FFFFFF" fill-opacity="1.000000" fill-rule="nonzero"/>
	<path id="path522" d="M116.756 55.0998C116.756 55.0998 111.975 56.9881 107.768 50.7124" stroke="#1A2E35" stroke-opacity="1.000000" stroke-width="1.333333" stroke-linejoin="round" stroke-linecap="round"/>
	<path id="path526" d="M126.291 40.6752C126.113 41.5346 126.337 42.3076 126.792 42.4025C127.246 42.4963 127.761 41.8769 127.939 41.0175C128.117 40.1581 127.894 39.3851 127.438 39.2913C126.983 39.1964 126.47 39.8158 126.291 40.6752Z" fill="#1A2E35" fill-opacity="1.000000" fill-rule="nonzero"/>
	<path id="path530" d="M114.598 39.7355C114.42 40.5949 114.644 41.3679 115.099 41.4617C115.553 41.5566 116.068 40.9361 116.247 40.0777C116.424 39.2184 116.201 38.4453 115.745 38.3505C115.29 38.2566 114.776 38.8761 114.598 39.7355Z" fill="#1A2E35" fill-opacity="1.000000" fill-rule="nonzero"/>
	<path id="path534" d="M129.255 45.2348C132.491 45.5579 135.311 43.8626 135.553 41.4477C135.793 39.0316 133.25 37.9654 130.015 37.6423C126.779 37.3192 124.075 37.8598 123.833 40.2758C123.592 42.6908 126.02 44.9118 129.255 45.2348Z" stroke="#1A2E35" stroke-opacity="1.000000" stroke-width="1.333333" stroke-linejoin="round"/>
	<path id="path538" d="M114.167 43.7262C117.403 44.0503 120.222 42.354 120.463 39.939C120.705 37.5229 118.162 36.4578 114.926 36.1347C111.69 35.8117 108.986 36.3523 108.744 38.7672C108.502 41.1833 110.931 43.4032 114.167 43.7262Z" stroke="#1A2E35" stroke-opacity="1.000000" stroke-width="1.333333" stroke-linejoin="round"/>
	<path id="path542" d="M123.833 40.276L120.463 39.9391M123.877 39.6305L123.899 39.6126C124.271 39.6497 124.533 39.9709 124.496 40.3423C124.458 40.7138 124.138 40.9765 123.766 40.9393L123.748 40.9174L123.877 39.6305ZM120.419 40.5845L120.397 40.6024C120.025 40.5653 119.763 40.2442 119.8 39.8727C119.837 39.5013 120.158 39.2386 120.53 39.2757L120.547 39.2976L120.419 40.5845Z" fill="#FFFFFF" fill-opacity="1.000000" fill-rule="nonzero"/>
	<path id="path542" d="M123.833 40.276L120.463 39.9391" stroke="#1A2E35" stroke-opacity="1.000000" stroke-width="1.333333" stroke-linejoin="round" stroke-linecap="round"/>
	<path id="path546" d="M109.159 37.5578L96.7642 30.2488M109.47 36.9906L109.498 36.9835C109.819 37.1731 109.923 37.5748 109.733 37.8964C109.544 38.218 109.142 38.3217 108.82 38.132L108.813 38.1046L109.47 36.9906ZM96.4531 30.816L96.4258 30.8231C96.104 30.6335 96.0005 30.2318 96.1899 29.9102C96.3799 29.5886 96.7812 29.485 97.103 29.6746L97.1099 29.702L96.4531 30.816Z" fill="#FFFFFF" fill-opacity="1.000000" fill-rule="nonzero"/>
	<path id="path546" d="M109.159 37.5578L96.7642 30.2488" stroke="#1A2E35" stroke-opacity="1.000000" stroke-width="1.333333" stroke-linejoin="round" stroke-linecap="round"/>
	<path id="path550" d="M94.6382 48.9264L94.0537 50.3466M94.0327 48.6989L94.0215 48.6728C94.1636 48.3275 94.5464 48.1679 94.8916 48.3099C95.2373 48.4519 95.397 48.8348 95.2549 49.1801L95.2285 49.191L94.0327 48.6989ZM94.6597 50.5742L94.6704 50.6003C94.5283 50.9455 94.1455 51.1052 93.8003 50.9632C93.4551 50.8211 93.2954 50.4383 93.4375 50.093L93.4634 50.0821L94.6597 50.5742Z" fill="#FFFFFF" fill-opacity="1.000000" fill-rule="nonzero"/>
	<path id="path550" d="M94.6382 48.9264L94.0537 50.3466" stroke="#1A2E35" stroke-opacity="1.000000" stroke-width="1.333333" stroke-linejoin="round" stroke-linecap="round"/>
	<path id="path554" d="M130.821 36.3786C130.821 36.3786 128.934 33.9765 126.617 35.1333M131.317 35.9634L131.346 35.9668C131.576 36.2603 131.527 36.6722 131.233 36.9029C130.939 37.1335 130.528 37.0841 130.297 36.7905L130.3 36.7624L131.317 35.9634ZM126.924 35.7029L126.915 35.7298C126.581 35.8965 126.188 35.7651 126.021 35.4311C125.854 35.0971 125.985 34.7036 126.319 34.5368L126.346 34.5458L126.924 35.7029Z" fill="#FFFFFF" fill-opacity="1.000000" fill-rule="nonzero"/>
	<path id="path554" d="M130.821 36.3786C130.821 36.3786 128.934 33.9765 126.617 35.1333" stroke="#1A2E35" stroke-opacity="1.000000" stroke-width="1.333333" stroke-linejoin="round" stroke-linecap="round"/>
	<path id="path558" d="M111.503 35.3051C111.503 35.3051 114.82 32.1437 118.011 34.3615M111.964 35.7594L111.963 35.7877C111.693 36.0453 111.278 36.0353 111.021 35.765C110.763 35.4948 110.773 35.08 111.043 34.8225L111.071 34.8232L111.964 35.7594ZM118.364 33.8191L118.392 33.8141C118.698 34.0271 118.772 34.4353 118.559 34.7419C118.346 35.0485 117.938 35.122 117.631 34.9089L117.626 34.8811L118.364 33.8191Z" fill="#FFFFFF" fill-opacity="1.000000" fill-rule="nonzero"/>
	<path id="path558" d="M111.503 35.3051C111.503 35.3051 114.82 32.1437 118.011 34.3615" stroke="#1A2E35" stroke-opacity="1.000000" stroke-width="1.333333" stroke-linejoin="round" stroke-linecap="round"/>
	<path id="path562" d="M126.634 6.05118C121.592 7.65479 113.103 9.61237 106.167 7.51938C95.564 4.32071 99.1626 16.2581 96.7637 19.5527" stroke="#808080" stroke-opacity="1.000000" stroke-width="1.333333" stroke-linejoin="round" stroke-linecap="round"/>
	<path id="path566" d="M131 4.45456C131 4.45456 130.153 4.82773 128.719 5.34378" stroke="#808080" stroke-opacity="1.000000" stroke-width="1.333333" stroke-linejoin="round" stroke-linecap="round"/>
	<path id="path570" d="M118.262 11.9941C117.697 11.8214 117.105 11.6199 116.489 11.3896" stroke="#808080" stroke-opacity="1.000000" stroke-width="1.333333" stroke-linejoin="round" stroke-linecap="round"/>
	<path id="path574" d="M129.826 10.5853C129.826 10.5853 127.573 14.0782 120.292 12.5237" stroke="#808080" stroke-opacity="1.000000" stroke-width="1.333333" stroke-linejoin="round" stroke-linecap="round"/>
	<path id="path578" d="M102.75 17.4226C102.302 20.456 101.154 24.8553 98.2305 28.844" stroke="#808080" stroke-opacity="1.000000" stroke-width="1.333333" stroke-linejoin="round" stroke-linecap="round"/>
	<path id="path582" d="M103.028 13.6507C103.028 13.6507 103.055 14.3672 102.962 15.5581" stroke="#808080" stroke-opacity="1.000000" stroke-width="1.333333" stroke-linejoin="round" stroke-linecap="round"/>
	<g opacity="0.300003">
		<g opacity="0.300003">
			<g opacity="0.300003">
				<path id="path592" d="M93.5439 128.028C94.4023 128.795 93.9033 130.211 92.752 130.218C85.5527 130.251 66.127 130.299 58.5942 129.869C49.2651 129.336 56.3853 119.184 63.8872 123.06C70.8003 126.633 85.3438 120.686 93.5439 128.028Z" fill="#000000" fill-opacity="1.000000" fill-rule="nonzero"/>
			</g>
		</g>
	</g>
	<path id="path602" d="M174.736 118.032C174.736 118.032 170.379 106.421 159.44 108.265C148.391 110.126 156.862 119.265 162.121 120.083C162.121 120.083 162.919 116.895 174.736 118.032Z" fill="#FFFFFF" fill-opacity="1.000000" fill-rule="nonzero"/>
	<path id="path606" d="M159.44 108.265C148.391 110.126 156.862 119.265 162.121 120.083C162.121 120.083 162.919 116.895 174.736 118.032C174.736 118.032 170.379 106.421 159.44 108.265Z" stroke="#1A2E35" stroke-opacity="1.000000" stroke-width="1.333333" stroke-linejoin="round"/>
	<path id="path610" d="M184 124.62C185.443 126.064 188.906 126.187 186.577 123.06C184 119.6 181.096 118.44 179.113 117.555C173.924 115.239 171.901 115.703 167.207 114.674C162.512 113.647 161.635 115.555 160.01 116.445C156.142 118.566 155.212 118.934 154.234 121.066C153.258 123.199 152.191 125.974 155.212 125.974C157.966 125.974 158.144 121.421 160.81 121.599C163.475 121.776 164.808 125.974 166.674 125.974L167.385 125.974C168.984 125.974 169.071 124.644 168.092 122.553C167.113 120.461 166.052 118.578 166.052 118.578C166.052 118.578 168.37 119.633 169.651 122.354C170.93 125.075 171.166 126.222 173.518 126.222C175.87 126.222 175.708 124.474 173.368 120.615C173.368 120.615 175.476 121.773 176.628 123.952C177.781 126.131 178.381 125.974 179.892 125.974C181.867 125.974 181.734 122.709 178.224 120.577C178.224 120.577 179.002 119.623 184 124.62Z" fill="#FFFFFF" fill-opacity="1.000000" fill-rule="nonzero"/>
	<path id="path614" d="M186.577 123.06C184 119.6 181.096 118.44 179.113 117.555C173.924 115.239 171.901 115.703 167.207 114.674C162.512 113.647 161.635 115.555 160.01 116.445C156.142 118.566 155.212 118.934 154.234 121.066C153.258 123.199 152.191 125.974 155.212 125.974C157.966 125.974 158.144 121.421 160.81 121.599C163.475 121.776 164.808 125.974 166.674 125.974L167.385 125.974C168.984 125.974 169.071 124.644 168.092 122.553C167.113 120.461 166.052 118.578 166.052 118.578C166.052 118.578 168.37 119.633 169.651 122.354C170.93 125.075 171.166 126.222 173.518 126.222C175.87 126.222 175.708 124.474 173.368 120.615C173.368 120.615 175.476 121.773 176.628 123.952C177.781 126.131 178.381 125.974 179.892 125.974C181.867 125.974 181.734 122.709 178.224 120.577C178.224 120.577 179.002 119.623 184 124.62C185.443 126.064 188.906 126.187 186.577 123.06Z" stroke="#1A2E35" stroke-opacity="1.000000" stroke-width="1.333333" stroke-linejoin="round"/>
	<path id="path618" d="M170.292 116.823C170.292 116.823 171.672 116.757 172.538 119.089M170.335 117.302L170.316 117.323C170.037 117.336 169.806 117.127 169.792 116.847C169.779 116.568 169.989 116.337 170.268 116.324L170.289 116.343L170.335 117.302ZM172.98 118.903L173.006 118.915C173.104 119.178 172.974 119.46 172.711 119.558C172.449 119.655 172.167 119.526 172.069 119.263L172.081 119.237L172.98 118.903Z" fill="#FFFFFF" fill-opacity="1.000000" fill-rule="nonzero"/>
	<path id="path618" d="M170.292 116.823C170.292 116.823 171.672 116.757 172.538 119.089" stroke="#1A2E35" stroke-opacity="1.000000" stroke-width="1.000000" stroke-linejoin="round" stroke-linecap="round"/>
</svg>
