<svg width="163.779297" height="180.636108" viewBox="0 0 163.779 180.636" fill="none" xmlns="http://www.w3.org/2000/svg" xmlns:xlink="http://www.w3.org/1999/xlink">
	<desc>
			Created with Pixso.
	</desc>
	<defs/>
	<path id="path54" d="M75.2881 58.6038C68.834 63.969 70.9731 95.2795 51.0166 81.7961C31.0601 68.3117 65.0991 60.314 63.1523 52.6713C60.4272 41.9697 15.4189 54.8283 22.9697 34.3324C30.5205 13.8365 57.4277 44.6597 64.501 37.0299C70.9985 30.0195 38.6113 4.66803 53.7144 0.353088C68.8159 -3.96295 65.564 32.7181 75.2881 32.7149C82.854 32.7117 81.4453 -2.34448 95.3564 10.061C109.269 22.4664 78.8589 34.6885 82.8398 42.3866C85.8638 48.238 109.807 33.7928 108.729 47.2773C107.65 60.7607 82.0757 52.9614 75.2881 58.6038Z" fill="#38BFF2" fill-opacity="1.000000" fill-rule="nonzero"/>
	<path id="path58" d="M70.9736 42.5689C70.9736 42.5689 85.5371 60.2222 83.9185 108.226" stroke="#1A2E35" stroke-opacity="1.000000" stroke-width="1.333333" stroke-linejoin="round" stroke-linecap="round"/>
	<path id="path62" d="M42.6025 67.5458C45.1831 62.3533 66.5732 58.8092 54.333 47.5371C42.0928 36.2661 42.1323 60.4224 36.6831 60.3296C29.0552 60.2006 30.5396 27.8953 17.9614 36.2341C5.3833 44.5709 30.3872 57.7557 26.3823 63.7255C22.7026 69.209 0.506348 51.4694 0.00830078 62.3085C-0.490723 73.1487 23.6528 65.1265 25.1978 71.6646C26.3994 76.7515 2.60791 81.3821 13.1611 88.7603C23.7144 96.1385 27.0933 73.7501 32.9023 75.2023C37.3164 76.3047 31.415 94.7002 40.3081 91.8289C49.2017 88.9586 39.8892 73.0059 42.6025 67.5458Z" fill="#38BFF2" fill-opacity="1.000000" fill-rule="nonzero"/>
	<g opacity="0.300003">
		<g opacity="0.300003">
			<g opacity="0.300003">
				<path id="path72" d="M42.6021 67.5458C45.1826 62.3533 66.5728 58.8092 54.3325 47.5371C42.0923 36.2661 42.1318 60.4224 36.6826 60.3296C29.0547 60.2006 30.5391 27.8953 17.9609 36.2341C5.38281 44.5709 30.3867 57.7557 26.3818 63.7255C22.7021 69.209 0.505859 51.4694 0.0078125 62.3085C-0.491211 73.1487 23.6523 65.1265 25.1973 71.6646C26.3989 76.7515 2.60742 81.3821 13.1606 88.7603C23.7139 96.1385 27.0928 73.7501 32.9019 75.2023C37.3159 76.3047 31.4146 94.7002 40.3076 91.8289C49.2012 88.9586 39.8887 73.0059 42.6021 67.5458Z" fill="#000000" fill-opacity="1.000000" fill-rule="nonzero"/>
			</g>
		</g>
	</g>
	<path id="path82" d="M31.6001 67.7727C31.6001 67.7727 73.0439 63.4578 77.1328 108.225" stroke="#1A2E35" stroke-opacity="1.000000" stroke-width="1.333333" stroke-linejoin="round" stroke-linecap="round"/>
	<path id="path86" d="M110.608 62.9185C117.062 68.2837 114.923 99.5942 134.88 86.1108C154.836 72.6264 120.798 64.6298 122.744 56.986C125.469 46.2844 170.478 59.143 162.927 38.6471C155.375 18.1512 128.469 48.9744 121.396 41.3446C114.899 34.3342 147.285 8.98273 132.183 4.66779C117.08 0.352783 120.332 37.0339 110.608 37.0296C103.042 37.0264 104.451 1.97021 90.54 14.3757C76.6279 26.7811 107.038 39.0032 103.058 46.7013C100.033 52.5527 76.0894 38.1075 77.1675 51.592C78.2466 65.0754 103.821 57.276 110.608 62.9185Z" fill="#38BFF2" fill-opacity="1.000000" fill-rule="nonzero"/>
	<g opacity="0.300003">
		<g opacity="0.300003">
			<g opacity="0.300003">
				<path id="path96" d="M110.608 62.9185C117.062 68.2837 114.923 99.5942 134.88 86.1108C154.836 72.6264 120.798 64.6298 122.744 56.986C125.469 46.2844 170.478 59.143 162.927 38.6471C155.375 18.1512 128.469 48.9744 121.396 41.3446C114.899 34.3342 147.285 8.98273 132.183 4.66779C117.08 0.352783 120.332 37.0339 110.608 37.0296C103.042 37.0264 104.451 1.97021 90.54 14.3757C76.6279 26.7811 107.038 39.0032 103.058 46.7013C100.033 52.5527 76.0894 38.1075 77.1675 51.592C78.2466 65.0754 103.821 57.276 110.608 62.9185Z" fill="#FFFFFF" fill-opacity="1.000000" fill-rule="nonzero"/>
			</g>
		</g>
	</g>
	<path id="path106" d="M115.201 46.8835C115.201 46.8835 96.3237 72.0878 92.0088 114.159" stroke="#1A2E35" stroke-opacity="1.000000" stroke-width="1.333333" stroke-linejoin="round" stroke-linecap="round"/>
	<path id="path110" d="M101.686 179.969L72.2583 179.969C66.6245 179.969 61.9287 175.657 61.4512 170.043L56.8247 115.675C56.2861 109.346 61.2793 103.91 67.6318 103.91L106.312 103.91C112.665 103.91 117.658 109.346 117.119 115.675L112.492 170.043C112.016 175.657 107.32 179.969 101.686 179.969Z" fill="#38BFF2" fill-opacity="1.000000" fill-rule="nonzero"/>
	<path id="path114" d="M72.2583 179.969C66.6245 179.969 61.9287 175.657 61.4512 170.043L56.8247 115.675C56.2861 109.346 61.2793 103.91 67.6318 103.91L106.312 103.91C112.665 103.91 117.658 109.346 117.119 115.675L112.492 170.043C112.016 175.657 107.32 179.969 101.686 179.969L72.2583 179.969Z" stroke="#1A2E35" stroke-opacity="1.000000" stroke-width="1.333333" stroke-linejoin="round"/>
</svg>
