<svg width="119.001953" height="49.913574" viewBox="0 0 119.002 49.9136" fill="none" xmlns="http://www.w3.org/2000/svg" xmlns:xlink="http://www.w3.org/1999/xlink">
	<desc>
			Created with Pixso.
	</desc>
	<defs/>
	<path id="path1034" d="M1.84375 49.2469L33.6094 49.2469C34.2588 49.2469 34.7856 48.7202 34.7856 48.0698L34.7856 45.4479L0.666504 46.5142L0.666504 48.0698C0.666504 48.7202 1.19434 49.2469 1.84375 49.2469Z" fill="#868686" fill-opacity="1.000000" fill-rule="nonzero"/>
	<path id="path1038" d="M33.6094 49.2469C34.2588 49.2469 34.7856 48.7202 34.7856 48.0698L34.7856 45.4479L0.666504 46.5142L0.666504 48.0698C0.666504 48.7202 1.19434 49.2469 1.84375 49.2469L33.6094 49.2469Z" stroke="#1A2E35" stroke-opacity="1.000000" stroke-width="1.333333" stroke-linejoin="round"/>
	<path id="path1042" d="M38.3286 49.2469L102.188 49.2469C103.212 49.2469 104.21 48.4888 104.521 47.4749L118.229 2.97089C118.605 1.75006 117.846 0.666809 116.616 0.666809L52.7544 0.666809C51.7319 0.666809 50.7339 1.42487 50.4219 2.43884L36.7144 46.9428C36.3379 48.1625 37.0972 49.2469 38.3286 49.2469Z" fill="#9A9A9A" fill-opacity="1.000000" fill-rule="nonzero"/>
	<path id="path1046" d="M102.188 49.2469C103.212 49.2469 104.21 48.4888 104.521 47.4749L118.229 2.97089C118.605 1.75006 117.846 0.666809 116.616 0.666809L52.7544 0.666809C51.7319 0.666809 50.7339 1.42487 50.4219 2.43884L36.7144 46.9428C36.3379 48.1625 37.0972 49.2469 38.3286 49.2469L102.188 49.2469Z" stroke="#1A2E35" stroke-opacity="1.000000" stroke-width="1.333333" stroke-linejoin="round"/>
	<path id="path1050" d="M33.8462 46.9427L47.5532 2.43872C47.8657 1.42474 48.8638 0.666687 49.8862 0.666687L52.7554 0.666687C51.7329 0.666687 50.7349 1.42474 50.4224 2.43872L36.7153 46.9427C36.3389 48.1635 37.0981 49.2468 38.3296 49.2468L35.4604 49.2468C34.229 49.2468 33.4697 48.1635 33.8462 46.9427Z" fill="#868686" fill-opacity="1.000000" fill-rule="nonzero"/>
	<path id="path1054" d="M47.5532 2.43872C47.8657 1.42474 48.8638 0.666687 49.8862 0.666687L52.7554 0.666687C51.7329 0.666687 50.7349 1.42474 50.4224 2.43872L36.7153 46.9427C36.3389 48.1635 37.0981 49.2468 38.3296 49.2468L35.4604 49.2468C34.229 49.2468 33.4697 48.1635 33.8462 46.9427L47.5532 2.43872Z" stroke="#1A2E35" stroke-opacity="1.000000" stroke-width="1.333333" stroke-linejoin="round"/>
	<path id="path1058" d="M73.522 24.9565C73.2544 27.1379 74.8057 28.9068 76.9873 28.9068C79.1685 28.9068 81.1548 27.1379 81.4229 24.9565C81.6904 22.775 80.1387 21.0061 77.9575 21.0061C75.7759 21.0061 73.7896 22.775 73.522 24.9565Z" fill="#FFFFFF" fill-opacity="1.000000" fill-rule="nonzero"/>
	<path id="path1062" d="M76.9873 28.9068C79.1685 28.9068 81.1548 27.1379 81.4229 24.9565C81.6904 22.775 80.1387 21.0061 77.9575 21.0061C75.7759 21.0061 73.7896 22.775 73.522 24.9565C73.2544 27.1379 74.8057 28.9068 76.9873 28.9068Z" stroke="#1A2E35" stroke-opacity="1.000000" stroke-width="1.333333" stroke-linejoin="round"/>
</svg>
