<svg width="329.018066" height="167.952332" viewBox="0 0 329.018 167.952" fill="none" xmlns="http://www.w3.org/2000/svg" xmlns:xlink="http://www.w3.org/1999/xlink">
	<desc>
			Created with Pixso.
	</desc>
	<defs/>
	<path id="path930" d="M283.093 167.286L287.044 167.286L288.11 10.2797L283.093 10.2797L283.093 167.286Z" fill="#868686" fill-opacity="1.000000" fill-rule="nonzero"/>
	<path id="path934" d="M287.044 167.286L288.11 10.2797L283.093 10.2797L283.093 167.286L287.044 167.286Z" stroke="#1A2E35" stroke-opacity="1.000000" stroke-width="1.333333" stroke-linejoin="round"/>
	<path id="path938" d="M279.142 167.286L283.093 167.286L283.093 10.2797L278.075 10.2797L279.142 167.286Z" fill="#9A9A9A" fill-opacity="1.000000" fill-rule="nonzero"/>
	<path id="path942" d="M283.093 167.286L283.093 10.2797L278.075 10.2797L279.142 167.286L283.093 167.286Z" stroke="#1A2E35" stroke-opacity="1.000000" stroke-width="1.333333" stroke-linejoin="round"/>
	<path id="path944" d="M57.3125 10.2797L328.352 10.2797L328.352 0.666687L57.3125 0.666687L57.3125 10.2797Z" fill="#1A2E35" fill-opacity="1.000000" fill-rule="nonzero"/>
	<path id="path944" d="M328.352 10.2797L328.352 0.666687L57.3125 0.666687L57.3125 10.2797L328.352 10.2797Z" stroke="#1A2E35" stroke-opacity="1.000000" stroke-width="1.333333" stroke-linejoin="round"/>
	<path id="path946" d="M0.666992 10.2797L61.355 10.2797L61.355 0.666687L0.666992 0.666687L0.666992 10.2797Z" fill="#868686" fill-opacity="1.000000" fill-rule="nonzero"/>
	<path id="path946" d="M61.355 10.2797L61.355 0.666687L0.666992 0.666687L0.666992 10.2797L61.355 10.2797Z" stroke="#1A2E35" stroke-opacity="1.000000" stroke-width="1.333333" stroke-linejoin="round"/>
	<path id="path948" d="M45.0117 26.1278L314.47 26.1278L314.47 10.2795L45.0117 10.2795L45.0117 26.1278Z" fill="#38BFF2" fill-opacity="1.000000" fill-rule="nonzero"/>
	<path id="path948" d="M314.47 26.1278L314.47 10.2795L45.0117 10.2795L45.0117 26.1278L314.47 26.1278Z" stroke="#1A2E35" stroke-opacity="1.000000" stroke-width="1.333333"/>
	<path id="path950" d="M45.0117 26.1278L13.6353 26.1278L13.6353 10.2795L45.0117 10.2795L45.0117 26.1278Z" fill="#38BFF2" fill-opacity="1.000000" fill-rule="nonzero"/>
	<g opacity="0.300003">
		<g opacity="0.300003">
			<path id="path968" d="M45.0112 26.1281L13.6348 26.1281L13.6348 10.2798L45.0112 10.2798L45.0112 26.1281Z" fill="#000000" fill-opacity="1.000000" fill-rule="nonzero"/>
		</g>
	</g>
	<path id="path974" d="M13.6353 26.1278L13.6353 10.2795L45.0117 10.2795L45.0117 26.1278L13.6353 26.1278Z" stroke="#1A2E35" stroke-opacity="1.000000" stroke-width="1.333333"/>
	<path id="path978" d="M45.0107 167.286L48.9609 167.286L50.0273 10.2797L45.0107 10.2797L45.0107 167.286Z" fill="#868686" fill-opacity="1.000000" fill-rule="nonzero"/>
	<path id="path982" d="M48.9609 167.286L50.0273 10.2797L45.0107 10.2797L45.0107 167.286L48.9609 167.286Z" stroke="#1A2E35" stroke-opacity="1.000000" stroke-width="1.333333" stroke-linejoin="round"/>
	<path id="path986" d="M41.0605 167.286L45.0117 167.286L45.0117 10.2797L39.9941 10.2797L41.0605 167.286Z" fill="#9A9A9A" fill-opacity="1.000000" fill-rule="nonzero"/>
	<path id="path990" d="M45.0117 167.286L45.0117 10.2797L39.9941 10.2797L41.0605 167.286L45.0117 167.286Z" stroke="#1A2E35" stroke-opacity="1.000000" stroke-width="1.333333" stroke-linejoin="round"/>
	<path id="path994" d="M314.47 167.286L318.421 167.286L319.487 10.2797L314.47 10.2797L314.47 167.286Z" fill="#868686" fill-opacity="1.000000" fill-rule="nonzero"/>
	<path id="path998" d="M318.421 167.286L319.487 10.2797L314.47 10.2797L314.47 167.286L318.421 167.286Z" stroke="#1A2E35" stroke-opacity="1.000000" stroke-width="1.333333" stroke-linejoin="round"/>
	<path id="path1002" d="M310.518 167.286L314.469 167.286L314.469 10.2797L309.451 10.2797L310.518 167.286Z" fill="#9A9A9A" fill-opacity="1.000000" fill-rule="nonzero"/>
	<path id="path1006" d="M314.469 167.286L314.469 10.2797L309.451 10.2797L310.518 167.286L314.469 167.286Z" stroke="#1A2E35" stroke-opacity="1.000000" stroke-width="1.333333" stroke-linejoin="round"/>
	<path id="path1010" d="M13.6348 167.286L17.585 167.286L18.6514 10.2797L13.6348 10.2797L13.6348 167.286Z" fill="#868686" fill-opacity="1.000000" fill-rule="nonzero"/>
	<path id="path1014" d="M17.585 167.286L18.6514 10.2797L13.6348 10.2797L13.6348 167.286L17.585 167.286Z" stroke="#1A2E35" stroke-opacity="1.000000" stroke-width="1.333333" stroke-linejoin="round"/>
	<path id="path1018" d="M9.68408 167.286L13.6353 167.286L13.6353 10.2797L8.61768 10.2797L9.68408 167.286Z" fill="#9A9A9A" fill-opacity="1.000000" fill-rule="nonzero"/>
	<path id="path1022" d="M13.6353 167.286L13.6353 10.2797L8.61768 10.2797L9.68408 167.286L13.6353 167.286Z" stroke="#1A2E35" stroke-opacity="1.000000" stroke-width="1.333333" stroke-linejoin="round"/>
</svg>
